<?xml version="1.0" encoding="utf-8"?>
<!-- Generator: Adobe Illustrator 21.1.0, SVG Export Plug-In . SVG Version: 6.00 Build 0)  -->
<svg version="1.1" id="Calque_1" xmlns="http://www.w3.org/2000/svg" xmlns:xlink="http://www.w3.org/1999/xlink" x="0px" y="0px"
	 viewBox="0 0 432 432" style="enable-background:new 0 0 432 432;" xml:space="preserve">
<style type="text/css">
	path { fill: #ffffff }
</style>
<path class="st12" d="M123.1,339c-0.6-0.7-1.4-1.3-2.1-1.8c-1-0.7-2.2-1.3-3.3-1.8c-0.9-0.4-1.9-0.8-2.8-1.3c-1.5-0.8-2.3-2-2.3-3.7
	c-0.1-1.9,0.1-3.7,0.4-5.5c0.4-2.8,0.8-5.5,0.9-8.6c0-0.6-0.1-1.5-0.1-2.4c0-0.3-0.1-0.6-0.2-0.9c-0.6-2.2-2.4-2.9-4.4-1.8
	c-0.5,0.3-0.9,0.6-1.3,0.9c-3.6,2.7-6.2,6.2-8.3,10.2c-1.3,2.5-2.4,5.1-3.4,7.8c-0.3,0.7-0.5,1.3-0.9,2c-0.6,0.9-1.2,1.1-2.2,0.8
	c-0.5-0.2-0.9-0.4-1.4-0.6c-1.8-0.8-3.6-1.6-5.5-2.2c-1.3-0.4-2.6-0.7-4-0.6c-2.5,0.2-3.8,1.7-3.6,4.1c0.1,0.8,0.3,1.6,0.6,2.4
	c1.5,3.4,3.4,6.5,6,9.2c4.3,4.4,9.5,7.3,15.5,8.8c0.6,0.2,0.8,0.4,0.9,1c0.2,1.9,0.7,3.7,1.1,5.5c0.5,1.7,1,3.4,1.8,5
	c0.3,0.6,0.6,1.1,1.1,1.5c0.3,0.2,0.7,0.4,1,0.1c0.4-0.2,0.4-0.6,0.3-0.9c-0.2-0.7-0.4-1.3-0.6-2c-1-2.8-1.8-5.8-2.4-8.7
	c-0.3-1.3-0.3-1.2,1-1.3c5.5-0.1,10.5-1.6,14.9-5c1.5-1.2,2.9-2.5,3.9-4.2C125.1,342.7,124.9,340.9,123.1,339z"/>
<path class="st1" d="M380,193.3c-0.8-0.4-1.7-0.8-2.6-1.1c0.9-0.9,1.7-1.7,2.5-2.6c1.5-1.8,3-3.7,3.9-5.8c0.8-1.7,0.9-3.5,0.5-5.3
	c-0.8-3-3.7-5.6-7.6-5.4c-2.5,0.1-4.7,1.2-6.7,2.7c-0.2,0.2-0.4,0.5-0.7,0.4c-0.5-3.3-2-6-4.8-8c-1.2-0.9-2.6-1.4-4-1.7
	c-2.6-0.5-4.7,0.5-6.5,2.2c-3.2,3.1-4.2,6.9-3.8,11.1c0.1,1.3,0.3,2.6,0.5,4c-0.4-0.3-0.7-0.5-1-0.7c-1.9-1.4-3.9-2.4-6.2-2.8
	c-2.4-0.4-5.3,0.3-6.9,3.1c-0.4,0.6-0.7,1.2-0.9,1.9c-1.2,3-1.5,6.1-1.4,9.3c0,0.2,0.1,0.4,0,0.5c-0.2,0-0.2-0.1-0.3-0.1
	c-2.3-1.9-4.9-3.2-7.8-3.5c-2.1-0.3-3.9,0.4-5.3,2.1c-1.2,1.5-1.5,3.2-1.6,5.1c-0.1,2.1,0.4,4.2,0.9,6.2c0.1,0.2,0.2,0.4,0,0.6
	c-1.8-0.8-4.3-1.1-6.2-1.1c-2.5,0.1-3.9,1.3-4.3,3.8c-0.5,2.7-0.4,5.3,0.1,7.9c0.5,2.7,1.1,5.4,2.8,7.8c-0.6,0.6-1.2,1.1-1.8,1.7
	c-2.4,2.4-4.6,4.9-6.2,7.8c-0.2,0.5-0.5,0.9-0.6,1.4c-0.1,0.4-0.2,0.8,0.3,1.1c0.5,0.3,0.7-0.1,1-0.3c0.3-0.4,0.6-0.8,0.8-1.2
	c1.9-3.4,4.6-6.1,7.4-8.7c0.2-0.1,0.3-0.4,0.5-0.2c0.4,0.2,0.8,0.2,1.2,0.5c1.3,1,2.8,1.8,4.3,2.7c2.5,1.5,5.1,1.8,7.9,1.2
	c1.9-0.4,3.1-1.6,3.6-3.5c0.2-1,0.2-2,0-3.1c0.4,0,0.6,0.2,0.9,0.3c1,0.4,1.9,0.9,2.9,1.2c4.7,1.6,8.9,0.6,12.6-2.6
	c1.3-1.1,2.1-2.5,2.2-4.3c0-0.7-0.1-1.4-0.3-2.1c0.2-0.1,0.3-0.1,0.5,0c1.2,0.4,2.4,0.7,3.6,1c3.4,0.7,6.7,0.6,9.9-0.7
	c1.1-0.4,2.1-1.1,2.9-2.1c1.5-1.8,1.6-3.8,0.6-5.9c-0.1-0.2-0.3-0.4-0.3-0.8c0.9,0.1,1.8,0.2,2.6,0.2c3.2,0.2,6.3-0.2,9.3-1.3
	c1.6-0.6,3-1.4,4.2-2.6c1.6-1.7,2.3-4.1,1.1-6.6C382.7,195.3,381.5,194.1,380,193.3z"/>
<g>
	<path class="st12" d="M292.9,147.2c-0.7-0.2-1.4-0.3-2.2-0.4c0.5-0.7,1.1-0.9,1.6-1.3c0.9-0.7,1.8-1.4,2.5-2.3c0.8-1,1.2-2,0.6-3.2
		c-0.5-0.9-1.5-1.1-3.1-0.7c-2,0.5-3.8,1.4-5.6,2.4c-0.6,0.3-1.2,0.6-1.9,1c-0.1-0.5-0.1-0.8-0.2-1.1c-0.5-1.9-1.7-2.5-3.4-1.5
		c-0.4,0.2-0.8,0.5-1.1,0.7c-2.3,1.5-4.6,3.2-6.9,5c-0.1-0.3-0.2-0.5-0.2-0.7c-0.3-2.1-2.3-2.6-4-1.6c-0.5,0.3-1,0.6-1.4,1
		c-2.1,1.6-3.9,3.5-5.5,5.6c-0.4,0.5-0.6,1.1-1.3,1.3c-1.7-2.6-3.6-2.7-5.5-0.3c-0.2,0.2-0.4,0.5-0.6,0.8c-1.8,2.7-2.9,5.7-2.7,9
		c0.1,1-0.3,1.6-1.1,2.2c-2.2,1.5-4.1,3.3-5.9,5.2c-10.2,11.1-16.5,24.1-19.7,38.7c-0.8,3.7-1.4,7.4-1.8,11.4
		c-0.3-0.7-0.3-1.3-0.2-1.9c0.3-5.8,1-11.5,2.1-17.1c1.9-9.4,5.1-18.3,9-27.1c4.3-9.8,9.2-19.3,15.8-27.8c0.3-0.4,0.5-0.8,1-1.1
		c0.7,1,1.3,2,2.3,2.6c1.8,1,3.1,0.9,4.4-0.7c0.6-0.7,1.1-0.5,1.7-0.4c3.9,0.6,6.7-1.6,7.1-5.4c0.2-1.4,0.2-1.5,1.7-1.3
		c2.2,0.3,3.9-0.5,5.2-2.2c1.1-1.4,1.5-3.1,1.5-4.8c0-0.7,0-1.4,0-2.1c0.1-1.3,0.2-1.4,1.5-1.4c1.6,0.1,3.2,0,4.8-0.3
		c3.8-0.7,4.5-4.4,2.3-6.4c-0.9-0.8-0.7-1.5-0.1-2.3c0.9-1,1.7-2.1,2.6-3.1c0.8-0.9,1.6-1.9,2-3c0.4-1.1,0.5-2.1-0.4-3.1
		c-0.8-0.9-1.9-1-3-0.6c-0.6,0.2-1.2,0.4-1.8,0.7c-1.4,0.8-2.6,1.9-3.8,2.9c-0.6,0.5-1,1.1-1.9,1.4c-0.1-0.6-0.1-1.1-0.1-1.6
		c0-0.8-0.2-1.7-0.6-2.4c-0.9-1.9-2.8-2.2-4.2-0.7c-0.8,0.9-1.3,1.9-1.8,3c-1.1,2.4-1.8,4.9-2.5,7.4c-0.2,0.7-0.4,1.5-1,2.1
		c-0.9-0.6-1.3-1.5-2-2.2c-1.6-1.5-3.4-1.3-4.4,0.7c-0.2,0.4-0.4,0.9-0.6,1.4c-0.5,1.8-1.1,3.6-1.6,5.3c-0.3,0.9-0.6,1.7-0.9,2.5
		c-0.2,0.6-0.6,0.8-1.2,0.4c-0.6-0.4-1.3-0.9-1.9-1.2c-1.6-0.8-3-0.5-4.1,0.9c-0.4,0.6-0.8,1.2-1,1.8c-1.1,2.6-1.2,5.2-0.5,7.9
		c0.2,0.8,0.2,1.3-0.5,1.8c-2.6,2.3-4.6,5-6.6,7.7c-5.3,7.4-9.3,15.6-12.9,23.9c-3.9,8.9-6.8,18.2-8.3,27.9
		c-0.5,2.9-0.8,5.8-1.2,8.7c0.3-13.6,2.3-27,5.9-40.1c1.8-6.8,3.7-13.6,6.3-20.1c2.5-6.3,5.8-12.1,8.9-18.1c0.4-0.7,0.5-1.7,1.3-2.1
		c0.7-0.3,1.4,0.5,2.1,0.7c3.8,1.1,7.2-1.4,7.1-5.3c0-0.8,0.2-1.2,0.9-1.4c1.4-0.5,2.7-1.1,3.9-2.1c2.4-2.1,2.5-4.2,0.4-6.6
		c-0.1-0.1-0.2-0.3-0.3-0.5c0.3-0.2,0.6-0.5,0.9-0.7c1.7-1,3.3-1.9,5-2.9c1.4-0.9,2.7-1.9,3.5-3.4c0.9-1.8,0.2-3.3-1.6-3.9
		c-0.4-0.1-1,0.1-1.3-0.4c0.1-0.4,0.4-0.7,0.7-0.9c1.6-1.6,3.1-3.2,4.5-5c0.6-0.7,1.2-1.5,1.6-2.4c0.4-1.1,0.6-2.3-0.3-3.2
		c-0.9-0.9-1.9-0.8-3-0.5c-0.8,0.2-1.4,0.8-2.3,0.8c0.1-1.1,0.2-2.1,0.2-3.1c0.1-1.2,0.1-2.4-0.4-3.6c-0.8-2.1-2.8-2.4-4.2-0.7
		c-0.5,0.5-0.8,1.2-1,1.8c-0.7,1.7-0.8,3.6-0.9,5.5c0,0.6,0.1,1.2-0.3,2c-0.5-0.7-0.8-1.2-1.2-1.7c-0.8-1-1.8-1.4-2.6-1
		c-1,0.5-1.3,1.4-1.2,2.4c0,0.9,0.2,1.7-0.1,2.6c-2.4-0.8-3.2-0.4-3.9,1.9c-0.6,1.7-0.6,3.5-0.5,5.3c0,0.9,0.2,1.9,0,2.8
		c-2.2-0.6-3.1-0.1-3.5,2c-0.2,1-0.3,2-0.2,3.1c0.1,0.7,0.2,1.5,0,2.3c-0.8-0.5-1.5-1.1-2.3-1c-1.5,0.1-2.2,1.1-2.7,2.4
		c-1.2,3.6-1.1,7.2,0.2,10.7c0.4,1,0.2,1.7-0.4,2.6c-4.2,6.2-7.6,12.9-10.1,20c-2.8,8-5,16.1-7,24.3c-1.6,6.3-3,12.7-3.8,19.2
		c-0.2,1.8-0.4,3.7-0.6,5.5c0.1-2.5,0.1-5,0.2-7.5c0.3-6.9,0.7-13.8,1.4-20.6c1.3-12.1,2.4-24.2,3.2-36.3c0.2-2.5,0.5-5,0.4-7.5
		c0-1.2-0.2-2.3-0.5-3.4c-0.1-0.5-0.5-0.9-1.1-0.9c-0.5,0-0.8,0.3-1.1,0.7c-0.4,0.7-0.6,1.4-0.7,2.2c-0.4,2.9-0.9,5.8-1.2,8.7
		c-0.6,6.4-1.3,12.9-2,19.3c-0.6-5.8-1.2-11.7-1.8-17.6c-0.3-3.4-0.9-6.8-1.4-10.2c-0.1-0.9-0.4-1.8-0.9-2.5
		c-0.3-0.5-0.7-0.8-1.4-0.8c-0.8,0-1.2,0.5-1.4,1c-0.4,1.3-0.6,2.6-0.6,4c-0.1,2.9,0.2,5.8,0.4,8.7c0.9,14.1,2.2,28.1,3.6,42.2
		c0.2,1.6,0.3,3.3,0.4,4.9c-0.1,1.4-0.1,2.7-0.2,4.1c-0.7-4.2-1.6-8.5-2.6-12.7c-2-8.2-4.1-16.4-6.8-24.4
		c-2.4-7.1-5.7-13.8-9.9-20.1c-0.6-0.9-0.7-1.6-0.4-2.6c1.3-3.5,1.5-7.1,0.3-10.7c-0.4-1.3-1.1-2.3-2.6-2.4c-0.9-0.1-1.5,0.5-2.3,1
		c-0.3-0.9-0.1-1.6,0-2.3c0.1-1,0.1-2.1-0.1-3.1c-0.4-2.1-1.3-2.6-3.5-2c-0.2-0.9-0.1-1.9,0-2.8c0.1-1.8,0.1-3.6-0.5-5.3
		c-0.7-2.3-1.5-2.7-3.9-2c-0.3-0.9-0.1-1.7,0-2.6c0-1-0.2-1.9-1.2-2.4c-0.9-0.4-1.8,0-2.7,1c-0.4,0.5-0.7,1-1.2,1.7
		c-0.4-0.8-0.2-1.4-0.3-2c-0.1-1.9-0.1-3.7-0.8-5.5c-0.3-0.7-0.6-1.3-1-1.8c-1.4-1.7-3.4-1.4-4.2,0.6c-0.5,1.1-0.5,2.4-0.4,3.6
		c0.1,1,0.1,2,0.2,3.1c-0.9,0-1.5-0.6-2.3-0.8c-1.1-0.3-2.2-0.5-3,0.5c-0.9,1-0.7,2.1-0.3,3.2c0.3,0.9,0.9,1.7,1.5,2.4
		c1.4,1.8,2.9,3.4,4.5,5c0.3,0.3,0.6,0.5,0.7,0.9c-0.3,0.5-0.9,0.3-1.3,0.4c-1.9,0.6-2.6,2.1-1.7,3.9c0.8,1.5,2.1,2.6,3.5,3.5
		c1.6,1,3.3,2,4.9,2.9c0.3,0.2,0.6,0.4,0.9,0.7c-0.1,0.2-0.2,0.4-0.4,0.5c-2.1,2.4-2,4.5,0.4,6.6c1.1,1,2.5,1.6,3.8,2.1
		c0.7,0.3,0.9,0.6,0.9,1.4c-0.1,3.9,3.3,6.4,7.1,5.4c0.7-0.2,1.4-1,2.1-0.7c0.7,0.3,0.9,1.3,1.3,2.1c3,6,6.3,11.9,8.7,18.2
		c2.5,6.6,4.3,13.4,6.1,20.2c3.4,13.2,5.3,26.6,5.4,40.2c-0.4-2.9-0.7-5.8-1.1-8.7c-1.4-9.7-4.2-19-8-27.9
		c-3.5-8.4-7.4-16.6-12.6-24.1c-1.9-2.8-4-5.5-6.5-7.8c-0.6-0.6-0.7-1.1-0.5-1.9c0.7-2.7,0.6-5.3-0.5-7.9c-0.3-0.6-0.6-1.3-1-1.8
		c-1-1.4-2.5-1.7-4.1-1c-0.7,0.3-1.3,0.8-1.9,1.2c-0.6,0.4-1,0.2-1.2-0.4c-0.3-0.8-0.6-1.7-0.8-2.5c-0.5-1.8-1-3.6-1.5-5.3
		c-0.1-0.5-0.3-1-0.5-1.4c-1-2-2.8-2.2-4.4-0.7c-0.7,0.6-1.1,1.6-2,2.1c-0.6-0.6-0.7-1.4-0.9-2.1c-0.7-2.5-1.3-5.1-2.4-7.5
		c-0.5-1-0.9-2.1-1.7-3c-1.4-1.5-3.3-1.2-4.2,0.6c-0.4,0.8-0.5,1.6-0.6,2.4c0,0.5-0.1,1-0.2,1.6c-0.9-0.3-1.4-0.9-1.9-1.4
		c-1.2-1-2.4-2.1-3.8-2.9c-0.6-0.3-1.1-0.6-1.7-0.8c-1.1-0.3-2.2-0.3-3,0.6c-0.9,0.9-0.8,2-0.4,3.1c0.4,1.2,1.1,2.1,1.9,3.1
		c0.9,1,1.7,2.1,2.5,3.1c0.6,0.8,0.8,1.6-0.1,2.3c-2.2,2-1.6,5.7,2.2,6.4c1.6,0.3,3.2,0.4,4.8,0.4c1.3,0,1.4,0.1,1.5,1.4
		c0,0.7,0,1.4,0,2.1c0,1.8,0.4,3.4,1.5,4.9c1.3,1.7,3,2.5,5.2,2.3c1.6-0.2,1.6-0.1,1.7,1.3c0.4,3.8,3.2,6,7.1,5.5
		c0.6-0.1,1.1-0.3,1.7,0.4c1.3,1.6,2.5,1.7,4.4,0.8c1.1-0.6,1.7-1.5,2.4-2.6c0.6,0.2,0.8,0.7,1,1.1c6.5,8.6,11.3,18.1,15.5,27.9
		c3.8,8.8,6.9,17.8,8.7,27.2c1.1,5.7,1.6,11.4,1.9,17.2c0,0.6,0.1,1.1-0.3,1.9c-0.4-4-0.9-7.7-1.7-11.4
		c-3.1-14.6-9.2-27.7-19.3-38.9c-1.8-2-3.7-3.7-5.8-5.3c-0.8-0.6-1.1-1.2-1.1-2.2c0.2-3.3-0.8-6.3-2.6-9.1c-0.2-0.3-0.4-0.5-0.5-0.8
		c-1.9-2.4-3.7-2.3-5.5,0.2c-0.7-0.2-0.9-0.8-1.3-1.3c-1.6-2.1-3.4-4-5.4-5.7c-0.4-0.4-0.9-0.7-1.4-1c-1.6-1-3.7-0.6-4,1.5
		c0,0.2-0.1,0.3-0.2,0.7c-2.2-1.9-4.5-3.5-6.8-5.1c-0.4-0.2-0.7-0.5-1.1-0.7c-1.7-1-3-0.4-3.4,1.5c-0.1,0.3-0.1,0.6-0.2,1.1
		c-0.7-0.4-1.3-0.7-1.9-1c-1.8-1-3.6-1.9-5.6-2.4c-1.6-0.4-2.6-0.2-3.1,0.7c-0.6,1.2-0.2,2.2,0.5,3.2c0.7,0.9,1.6,1.6,2.5,2.4
		c0.5,0.4,1.1,0.6,1.6,1.3c-0.8,0.1-1.5,0.2-2.2,0.4c-1.2,0.3-2.2,0.9-2.4,2.2c-0.3,1.3,0.1,2.4,1.1,3.3c2.2,1.8,4.9,2.4,7.7,2.5
		c1.1,0,2.3,0,3.5,0c0.2,0.8-0.4,1.1-0.6,1.6c-1.1,2.1-0.7,4,1.3,5.4c1.4,1,3.1,1.2,4.8,0.9c0.9-0.2,1.5-0.1,2,0.8
		c1,1.9,2.9,2.1,4.8,2c0.4,0,0.8-0.1,1.1-0.2c1.3-0.5,2.2-0.5,3.1,0.9c1.2,1.7,3.3,1.7,5.3,1.4c2.2-0.3,4.3-0.9,6.2-2
		c0.7-0.4,1.2-0.4,1.8,0.3c10.7,10.7,18.3,23.3,22.5,37.8c2.7,9.3,3.6,18.8,3.6,28.5c0,7-0.7,14-1.1,21.1c0,0.1,0,0.1,0,0.2
		c-0.2,2.1,0.3,2.5,2.4,1.7c0.2,0.7-0.1,1.8,1.1,1.9c1.2,0,1.3-1,1.4-1.9c0.7-3.4,1.4-6.9,2.1-10.3c0.1,0,0.2,0.1,0.3,0.1
		c-0.3,2.7-0.6,5.3-0.8,8c-0.1,1.4-0.3,2.8-0.4,4.2c0,0.4,0,0.8,0.1,1.1c0.2,0.7,1.1,0.8,1.5,0.2c0.3-0.4,0.4-0.9,0.4-1.5
		c1-6.3,2-12.6,2.6-19c1.1,9.3,2.9,18.4,5.4,27.4c0.3,1,0.7,2.1,1,3.1c0.2,0.6,0.8,1.1,1.5,0.9c0.8-0.2,1.1-0.8,1-1.6
		c-0.2-1.3-0.4-2.7-0.6-4c-0.4-1.9-0.8-3.7-1.2-5.6c0.1-0.1,0.2-0.2,0.3-0.4c0.1-0.3,0.1-0.8,0.1-1.1c-0.1-1.4-0.2-2.8-0.3-4.2
		c-0.2-2.7-0.5-5.3-0.7-8c0.1,0,0.2-0.1,0.3-0.1c0.6,3.4,1.3,6.9,1.9,10.3c0.2,0.9,0.2,1.9,1.4,1.9c1.2,0,0.9-1.1,1.1-1.9
		c2.1,0.8,2.6,0.4,2.4-1.7c0-0.1,0-0.1,0-0.2c-0.3-7-0.9-14-0.9-21.1c0.1-9.6,1.1-19.1,3.9-28.4c4.3-14.5,12.1-27,22.9-37.6
		c0.6-0.6,1.1-0.7,1.8-0.2c1.9,1.1,4,1.7,6.1,2.1c1.9,0.3,4.1,0.4,5.3-1.4c1-1.4,1.9-1.4,3.1-0.9c0.4,0.1,0.7,0.2,1.1,0.3
		c1.9,0.1,3.8-0.1,4.9-1.9c0.5-0.9,1.1-1,2-0.8c1.7,0.3,3.3,0.1,4.8-0.9c2-1.4,2.4-3.2,1.4-5.3c-0.2-0.5-0.8-0.8-0.6-1.6
		c1.2,0,2.3,0.1,3.5,0.1c2.8-0.1,5.5-0.6,7.7-2.4c1.1-0.8,1.4-2,1.2-3.3C295.1,148.1,294.1,147.6,292.9,147.2z"/>
	<path class="st12" d="M194.3,81.4c-1.9,1.8-2,2.5-0.8,4.7c0.4,0.6,0.6,0.9-0.2,1.5c-1.3,1-1.4,2.1-0.6,3.6c0.1,0.3,0.3,0.6,0.5,0.8
		c1.1,1.1,1.8,2.1,1.2,3.8c-0.3,1,0.4,2.1,1,3c0.5,0.7,1,1.3,1.6,2.1c-1,0.4-1.8,0.9-2.1,2c-0.3,1.1-0.1,2.1,0.3,3.2
		c0.7,1.7,2.1,3.3,4.6,5.2c0,0.1,0.1,0.3,0,0.3c-1.6,2.1-1.4,3.6,0.8,4.8c2.5,1.4,5.2,2.1,8.1,1.3c1.1-0.3,2-0.9,2.6-1.8
		c1.2-1.7,2.2-3.4,3-5.3c0.9,2.5,2.3,4.7,4,6.8c0.7,0.9,1.6,1.4,2.7,1.6c2.9,0.6,5.6-0.3,8-1.8c2.2-1.4,2.3-2.9,0.5-4.9
		c-0.1-0.1,0-0.2,0-0.3c2.4-2.1,3.7-3.7,4.3-5.5c0.4-1.1,0.5-2.1,0.1-3.2c-0.4-1.1-1.2-1.5-2.3-1.8c0.5-0.8,1-1.5,1.4-2.2
		c0.6-0.9,1.2-2.1,0.9-3.1c-0.6-1.7,0-2.7,1-3.9c0.2-0.2,0.3-0.5,0.5-0.8c0.7-1.5,0.5-2.6-0.8-3.5c-0.8-0.5-0.6-0.9-0.3-1.5
		c1.1-2.3,1-3-1.1-4.6c1.2-1.5,2.4-2.7,2.8-4.5c0.3-1.1-0.2-2.2-1-2.7c-0.8-0.5-1.7-0.3-2.6,0.5c-0.6,0.6-1.2,1.3-2.1,2.2
		c0-1.1,0-1.8,0-2.5c-0.2-2.5-0.7-4.9-2-7.1c-0.6-1-1.5-1.8-2.8-1.6c-1.1,0.2-1.7,1-2,2.5c-0.1,0.3-0.1,0.6-0.1,1
		c-0.4,1.9,0,3.8,0.1,5.7c-2.8,0.1-3.3,0.7-2.6,3.4c0.3,1,0.7,2.1,1,3.1c0.1,0.4,0.2,0.7-0.3,0.9c-1.3,0.5-1.2,1.6-1,2.7
		c0.2,0.8,0.7,1.5,0.7,2.4c-2.6-0.2-3.4,0.8-2.4,3.2c0.5,1.4,1.1,2.7,1.7,4.1c0.3,0.7,0.8,1.3,0.7,2c-0.4,0.2-0.6,0-0.9-0.1
		c-2.2-0.5-3.2,0.6-2.6,2.7c0.3,1,0.8,2,1.1,3.1c0.2,0.7,0.7,1.3,0.6,2.2c-0.6-0.4-1-0.7-1.4-0.9c-0.5-0.3-1-0.6-1.5-0.8
		c-0.4-0.1-0.8-0.2-1.1-0.2c-0.5-1.5-1.8-2.1-3.2-1.5c-0.5,0.2-1,0.5-1.5,0.9c-0.4,0.3-0.8,0.6-1.3,1c-0.2-0.9,0.3-1.5,0.5-2.2
		c0.3-1,0.7-2.1,0.9-3.1c0.5-2.2-0.6-3.2-2.7-2.6c-0.2,0.1-0.4,0.3-0.9,0.1c-0.1-0.7,0.4-1.4,0.6-2c0.4-1.4,1-2.8,1.4-4.2
		c0.8-2.5,0-3.4-2.6-3.1c0-0.9,0.4-1.6,0.6-2.4c0.2-1.1,0.2-2.2-1.2-2.7c-0.5-0.2-0.5-0.5-0.4-0.9c0.3-1.1,0.6-2.1,0.8-3.2
		c0.5-2.7,0-3.3-2.8-3.2c0-1.9,0.2-3.8-0.3-5.7c-0.1-0.3-0.1-0.6-0.2-0.9c-0.4-1.5-1.1-2.3-2.2-2.4c-1.4-0.1-2.1,0.7-2.7,1.7
		c-1.2,2.3-1.5,4.7-1.6,7.2c0,0.7,0.1,1.4,0.2,2.5c-0.9-0.9-1.5-1.5-2.2-2.1c-1-0.8-1.8-0.9-2.6-0.4c-0.8,0.6-1.2,1.6-0.8,2.7
		C191.8,78.8,193,80,194.3,81.4z"/>
</g>
<path class="st5" d="M176.1,251c-0.8-0.3-1.6-0.3-2.4-0.2c-1.2,0.2-2.4,0.4-3.6,0.6c-3.9,0.7-7.3-0.3-10.1-3.2
	c-1.6-1.6-3-3.3-4.4-5.1c-1.4-1.8-3-3.4-4.9-4.8c-0.8-0.6-1.7-1.3-2.8-1.5c-1.7-0.4-2.9,0.5-3.2,2.2c-0.2,1.1,0,2.2,0.2,3.3
	c0.2,1.3,0.4,2.7,0.5,4c0.1,1.1-0.4,1.3-1.3,0.7c-1.5-1.1-2.8-2.5-4-3.9c-3.6-4.1-6.9-8.5-10.4-12.7c-0.9-1.1-1.9-2.3-3.2-3
	c-2.2-1.3-4.2-0.3-4.3,2.3c0,0.9,0.1,1.9,0.3,2.8c0.2,1,0.4,2.1,0.5,3.1c0.1,0.7,0.2,1.4-0.2,2.1c-0.9-0.4-1.6-1.1-2.2-1.8
	c-2-2.5-3.6-5.4-5.4-8.1c-2.1-3.2-4.7-5.9-8.4-7.2c-0.9-0.3-1.8-0.5-2.8-0.5c-1.6,0.1-2.4,1-2.2,2.5c0.1,0.5,0.2,1,0.4,1.5
	c0.5,1.4,1.1,2.9,1.7,4.3c0.5,1.3,1,2.5,1.2,3.8c0.1,0.5,0.5,1.3-0.1,1.6c-0.6,0.3-1.1-0.2-1.6-0.5c-0.5-0.3-1-0.7-1.4-1
	c-2.5-2.1-4.9-4.3-7.3-6.3c-2-1.7-4.2-3.1-6.7-3.8c-1.5-0.4-3.1-0.4-4.2,1c-1.1,1.3-0.5,2.7,0.2,4c0.9,1.7,1.8,3.4,2.7,5.1
	c0.5,1,0.9,2,0.9,3.2c0,1.1-0.2,1.3-1.2,0.9c-0.7-0.2-1.3-0.5-2-0.8c-1.6-0.8-3.2-1.6-4.7-2.3c-2-1-4.1-1.9-6.2-2.5
	c-2.2-0.6-4.5-0.6-6.6,0.3c-3.6,1.7-7.4,2.6-11.4,2.7c-0.8,0-1.6,0.2-2.4,0.6c-1.1,0.6-1.3,1.6-0.5,2.6c0.4,0.6,0.9,1,1.5,1.5
	c1.6,1.3,3.6,1.9,5.4,2.9c2.8,1.4,3.3,3.1,1.3,5.4c-1.1,1.2-2.2,2.5-2.9,4c-1.1,2-0.6,3.3,1.5,4.2c1.7,0.7,3.5,1,5.3,1
	c2.1,0,4.2,0.1,6.4,0.2c1.2,0,2.4,0.2,3.5,0.4c0.5,0.1,1.2,0.1,1.3,0.7c0.2,0.6-0.4,1-0.8,1.4c-0.9,0.8-1.8,1.5-2.7,2.3
	c-0.8,0.7-1.5,1.5-2,2.4c-0.6,1.2-0.3,2.2,0.8,2.9c0.7,0.4,1.4,0.6,2.2,0.6c1,0.1,2,0.1,3,0.1c2.4,0,4.8,0,7.2,0.1
	c1.8,0.1,3.5,0.2,5.2,0.9c1.6,0.6,1.7,1,0.5,2.1c-1.5,1.3-3,2.7-4.5,4c-0.9,0.8-1.7,1.8-2.3,2.9c-0.9,1.8-0.2,3.4,1.6,4.1
	c1,0.4,2.1,0.5,3.1,0.5c2.8,0.1,5.5-0.2,8.2-0.8c2.4-0.5,4.8-1.1,7.2-1.6c2-0.4,4.1-0.8,6.1-0.8c0.7,0,1.7-0.2,2,0.4
	c0.4,0.7-0.6,1.1-1.1,1.6c-0.7,0.8-1.5,1.5-2.2,2.3c-0.9,1-1.6,2-2.1,3.2c-0.9,2.1-0.2,3.8,2,4.6c0.8,0.3,1.6,0.4,2.4,0.3
	c1.1-0.1,2.1-0.2,3.2-0.4c3.3-0.5,6.3-2,9.2-3.4c1.8-0.8,3.6-1.7,5.6-2.2c1.5-0.4,1.8-0.3,2.3,1.3c0.2,0.7,0.4,1.5,0.8,2.2
	c1,2,2.3,2.5,4.4,1.8c1.2-0.4,2.4-1,3.5-1.7c2.3-1.5,4.4-3.3,6.5-5.1c1.6-1.4,3.2-2.8,4.8-4.2c1.1-0.9,1.2-0.9,2.2,0.1
	c0.5,0.5,1,1,1.5,1.5c1.5,1.3,3,1.3,4.7,0.2c1.8-1.2,2.8-3,3.2-5.1c0.3-1.8,0.3-3.6,0.1-5.5c-0.2-1.6-0.3-3.2-0.4-4.7
	c-0.1-2.6,1.2-4.4,3.6-5.5c1.6-0.7,3.2-1.1,4.9-1.3c1.3-0.2,2.7-0.6,3.9-1.2c1.4-0.7,2.9-1.4,3.8-2.8
	C178.4,253.3,177.9,251.7,176.1,251z"/>
<path class="st1" d="M113.2,152c-1.2-3.4-4.4-5.1-7.9-4c-1.1,0.3-2.1,0.8-3.1,1.2c-0.5,0.2-1,0.4-1.5,0.6c-0.6,0.2-0.9-0.1-0.7-0.7
	c0.2-0.5,0.3-1,0.5-1.5c0.9-2.4,1.9-4.8,2.8-7.3c0.9-2.4,1.7-4.9,2.1-7.5c0.2-1.4,0.2-2.8-0.4-4.2c-0.9-1.9-2.7-2.4-4.4-1.1
	c-0.6,0.4-1.1,0.9-1.6,1.4c-0.9,0.9-1.8,1.9-2.7,2.8c-0.4,0.4-0.8,1-1.8,1c0.2-1.7,0.7-3.3,1.5-4.8c2.6-4.8,5-9.7,6.7-15
	c0.5-1.6,1.1-3.2,1.3-4.9c0.1-0.8-0.1-1.7-1-2.1c-0.8-0.4-1.6-0.2-2.3,0.4c-0.6,0.5-1.1,1.2-1.6,1.8c-1.8,2.5-3.2,5.2-4.9,7.8
	c-0.7,1-1.4,2-2.5,2.7c-1,0.6-1.4,0.4-1.5-0.8c-0.1-1.1,0.1-2.2,0.2-3.3c0.7-4.3,1.1-8.6,0.4-13c-0.2-1.2-0.5-2.4-1.1-3.5
	c-1.4-2.6-4.2-3-6.3-0.9c-0.4,0.4-0.7,0.8-1,1.2c-1,1.4-1.8,2.9-2.6,4.4c-0.6,1-1.2,1.9-2,2.7c-0.9,0.9-1.6,0.7-2-0.4
	c-0.3-0.7-0.4-1.5-0.5-2.2c-0.4-2.1-0.8-4.3-1.5-6.4c-0.3-1-0.7-1.9-1.4-2.7c-1.3-1.5-3.1-1.3-4.1,0.4c-0.3,0.6-0.6,1.3-1,1.9
	c-0.7,1.2-0.7,1.2-2.1,0.7c-1.2-0.4-2.2-1.1-3.5-1.2c-1.6-0.2-2.3,0.5-1.9,2c0.3,1.3,0.7,2.6,1.1,3.9c0.4,1.3,0.9,2.5,0.9,4.1
	c-0.8-0.1-1.3-0.4-1.8-0.6c-1.9-0.9-4-1.4-6.1-1.8c-1.6-0.3-3.2-0.4-4.7,0c-2.3,0.6-3,2.2-1.7,4.3c0.4,0.6,0.9,1.1,1.4,1.6
	c0.7,0.6,1.3,1.1,2,1.7c2.9,2.4,6.1,4.6,8.8,7.3c0.6,0.6,1.4,1.1,1.6,2.1c-2.1-0.3-4-0.8-5.9-1.3c-3.3-0.8-6.6-1.3-10-0.9
	c-1,0.1-1.9,0.3-2.3,1.4c-0.4,1.1,0.3,1.8,1,2.4c0.4,0.4,0.8,0.7,1.2,1c1.9,1.6,4.2,2.9,6.3,4.3c3.5,2.4,7,4.8,10.2,7.5
	c0.4,0.4,1.1,0.6,1.1,1.5c-0.5-0.2-0.9-0.3-1.3-0.4c-2.6-0.7-5.3-1.3-8-0.7c-2.6,0.6-3.4,2.6-1.8,4.8c0.7,1.1,1.7,2,2.7,2.8
	c2.7,2.3,5.6,4.1,8.5,6c2.9,1.8,5.8,3.7,8.2,6c0.4,0.4,1,0.8,1.1,1.6c-0.8-0.1-1.4-0.1-2.1-0.2c-2.1-0.3-4.1-0.3-6.1,0.2
	c-3.2,0.6-3.7,2.4-1.6,4.8c0.2,0.3,0.5,0.5,0.7,0.8c1.1,1,2.2,2,3.4,2.7c2.4,1.5,4.9,3.1,7.3,4.7c1,0.6,1.9,1.3,2.5,2.4
	c-0.3,0.5-0.8,0.5-1.2,0.8c-0.5,0.3-1,0.5-1.4,0.8c-1.4,1-1.6,2.3-0.4,3.6c0.8,0.8,1.7,1.4,2.7,1.9c2.2,1.1,4.7,1.6,7,2.5
	c3.9,1.5,5.4,3.5,5.6,7.7c0,0.6,0,1.3,0,1.9c0,0.9,0.3,1.7,0.7,2.5c0.7,1.1,1.8,1.3,2.9,0.5c0.8-0.6,1.1-1.5,1.2-2.4
	c0.3-2,0.8-4.1,1.7-5.9c1.3-2.6,2.9-5.1,4.9-7.3c3.5-3.9,6.8-8,9.5-12.4c1.7-2.7,3-5.6,3.6-8.8C113.8,155.1,113.8,153.5,113.2,152z"
	/>
<path class="st5" d="M360.2,125.7c-0.1-0.8-0.4-1.6-0.9-2.3c-0.6-0.9-1.3-1.8-2-2.7c-1.9-2.3-3.8-4.6-5.7-6.9
	c-0.9-1.1-0.9-1.2,0.1-2.3c1-1,1.2-2.2,0.9-3.6c-0.2-0.8-0.6-1.4-1.1-2c-1.3-1.7-2.6-3.4-3.9-5c-1-1.2-1-1.2,0.2-2.1
	c1.9-1.4,2.5-3.1,1.7-5.4c-0.6-1.8-1.6-3.3-2.8-4.7c-1-1.1-2.1-2.3-3.1-3.4c-1.1-1.2-1.1-1.2-0.1-2.6c1.4-1.9,1.4-3.7,0.1-5.7
	c-0.4-0.6-0.8-1.1-1.4-1.6c-3.6-3.2-7.7-5.1-12.3-6.1c-0.9-0.2-1.6-0.5-2-1.4c-0.5-0.9-1.1-1.7-1.7-2.4c-1-1.2-2.3-0.8-2.8,0.7
	c-0.2,0.6-0.2,1.2-0.1,1.7c0.1,0.7,0.2,1.4,0.4,2.1c0.1,0.6,0,0.9-0.4,1.4c-3.8,4-6.9,8.5-9.1,13.5c-0.7,1.6-1.2,3.3-1.3,5.1
	c-0.2,3,1.5,5.7,5.5,4.1c1.1-0.4,2.2-0.8,3.4-0.9c1.2,0,1.4,0.2,1.2,1.3c-0.2,1.3-0.8,2.6-1.4,3.8c-1.3,2.5-2.6,5-3.9,7.5
	c-0.8,1.6-1.5,3.3-1.7,5.2c-0.2,2.4,1.2,3.5,3.5,2.7c0.6-0.2,1.1-0.8,2-0.5c-1.1,1.9-2.1,3.8-3.1,5.6c-0.5,0.9-0.9,1.8-1.1,2.8
	c-0.2,1.6,0.6,2.5,2.2,2.4c0.5,0,0.9-0.2,1.4-0.3c0.6-0.1,1.2-0.5,1.9-0.1c-0.2,1-0.8,1.8-1.4,2.6c-1.2,1.9-2.4,3.8-3.3,5.8
	c-1.1,2.4-0.8,3.3,1.6,4.6c-0.3,0.7-0.6,1.3-0.9,1.9c-0.7,1.5-1.2,3.1-1.4,4.7c-0.2,2.4,1,3.7,3.4,3.6c0.7,0,1.3-0.1,2.1-0.1
	c-0.2,0.6-0.3,1.1-0.4,1.5c-0.9,2.8-1.5,5.6-1.9,8.4c-0.3,2.6-0.2,5.2,0.4,7.7c0.3,1.1,0.8,2.1,1.6,2.9c1.3,1.2,2.9,1.1,4-0.3
	c0.5-0.6,0.9-1.4,1.4-2.1c0.9-1.3,1-1.3,1.8,0c0.7,1.1,1.3,2.3,2.5,2.9c1.3,0.8,2.4,0.5,3-0.9c0.2-0.5,0.3-1,0.4-1.5
	c0.2-0.7,0.2-1.4,0.7-1.9c0.6,0,0.8,0.4,1.2,0.7c1.2,1,2.5,1.9,4,2.5c1,0.4,2,0.7,3.1,0.7c1.8,0.1,2.6-1,2.2-2.7
	c-0.1-0.6-0.4-1.1-0.6-1.6c-0.5-1.2-1.1-2.3-1.6-3.5c-0.4-0.9-0.9-1.8-0.7-2.8c0.7-0.1,1.3,0.2,2,0.3c1,0.2,2,0.3,3,0
	c1.2-0.3,1.7-1.1,1.3-2.2c-0.2-0.7-0.5-1.4-0.9-2.1c-0.8-1.4-1.3-2.9-1.5-4.5c-0.1-0.7,0.1-1.2,1-1.4c0.7-0.1,1.4-0.3,2-0.5
	c2.3-0.8,2.7-1.9,1.7-4.1c-0.6-1.3-1.3-2.6-1.9-4c-1.3-2.8-2.3-5.7-2.4-8.8c-0.1-1.2,0.2-1.4,1.3-1.2c1.5,0.2,2.9,0.5,4.4,0.7
	c1.6,0.2,3.2,0.2,4.7-0.4C359.8,128.2,360.3,127.2,360.2,125.7z"/>
<path class="st4" d="M308.9,319.6c1.5,0.1,3,0.1,4.4,0.2c8.7,0.1,17-1.5,25-5c1.8-0.8,3.3-1,5.1-0.3c5.3,2,10.6,1.4,15.7-1.1
	c2.4-1.2,4.6-2.5,6.8-4c7.5-5.3,12.3-12.6,15.6-21c3.1-8,4.7-16.5,7-24.7c0.1-0.4,0.1-0.8,0-1.2c-0.2-0.8-0.8-1.2-1.6-1
	c-0.3,0.1-0.7,0.2-0.9,0.4c-1.4,0.9-3,1.5-4.6,2.2c-4.6,1.9-9.2,3.6-13.8,5.6c-6.6,2.8-12.5,6.7-17.3,12.1
	c-3.8,4.2-6.6,9.1-8.9,14.3c-2.1,4.8-3.2,9.9-3.3,15.1c0,0.8-0.5,1-1.1,1.2c-4.6,1.9-9.3,2.9-14.2,3.5c-9,1-17.8-0.3-26.5-2.7
	c-0.8-0.2-1.5-0.5-2.3-0.7c0.6-0.2,1.1-0.2,1.6-0.1c7,0.5,13.8,0.1,20.6-2c5.4-1.7,10.2-4.3,14.2-8.3c3.6-3.7,5.7-8.1,6.3-13.3
	c0.8-6.6-2.9-10.5-8.2-11.8c-4.8-1.2-9.5-0.6-13.8,1.8c-2.7,1.4-4.5,3.7-5.3,6.7c-0.9,3.3,0.5,6,3.6,7.2c2.4,0.9,6.1,0.2,7.9-1.6
	c0.1-0.1,0.1-0.1,0.2-0.2c0.2-0.3,0.2-0.6,0-0.8c-0.2-0.2-0.4-0.3-0.6-0.2c-0.6,0.2-1.1,0.4-1.7,0.6c-1,0.4-1.9,0.7-3,0.7
	c-2.3-0.1-3.4-1.6-2.8-3.8c0.1-0.4,0.3-0.8,0.5-1.2c0.9-2,2.4-3.3,4.3-4.3c3-1.6,6.2-2.2,9.5-2c5.2,0.4,7.9,3.6,7.5,8.7
	c-0.2,2.6-1,5-2.3,7.3c-2.5,4.5-6.4,7.5-11,9.6c-5.7,2.6-11.8,3.9-18,3.8c-8-0.1-15.8-1.3-23.6-2.9c-1.6-0.3-3.2-0.9-4.7-1.7
	c-3-1.6-6.1-3.1-9.1-4.6c-1.2-0.6-2.6-1.1-3.8-2c2.3-0.8,4.4-0.8,6.6-0.8c5.3,0.1,10.2-1.7,14.9-3.9c0.9-0.4,1.7-1,2.3-1.8
	c1.1-1.4,1.1-2.7-0.2-4c-0.3-0.3-0.7-0.5-0.7-1c0.1-0.1,0.1-0.2,0.2-0.2c1.3-0.9,2.5-1.8,3.8-2.6c0.9-0.6,1.6-1.3,2.3-2.1
	c1.6-2.1,1.3-3.2-1.1-4.4c-1.5-0.8-1.5-0.8-0.5-2.2c0.3-0.4,0.6-0.7,0.8-1.1c1.2-1.6,2.5-3,3.6-4.7c0.9-1.5,1.6-3,1.7-4.7
	c0.1-2-1.1-3-3-2.2c-0.6,0.3-1.3,0.6-1.9,0.9c-1.7,1-3.4,2-5.2,3c-0.3,0.2-0.6,0.6-1.1,0.2c0.1-1.2,0.4-2.3,0.7-3.5
	c0.1-0.5,0.2-1.1,0.2-1.6c-0.1-1.4-1.2-2.1-2.5-1.5c-0.5,0.2-0.9,0.6-1.3,1c-1.8,1.5-3.3,3.4-4.6,5.4c-0.9,1.3-1.7,2.5-2.8,3.6
	c-0.5,0.5-1,1-1.8,1.2c-0.2-1.9,0.5-3.3,1.3-4.7c1.5-2.7,3.2-5.2,4.9-7.8c0.6-0.9,1.2-1.7,1.5-2.7c0.5-1.9-0.5-3.4-2.5-3.5
	c-0.8-0.1-1.6,0-2.4,0.2c-0.9,0.2-1.8,0.5-2.7,0.7c-0.6,0.2-0.9,0-1-0.6c-0.2-1.2-0.3-2.4-0.3-3.5c0.1-2.1,0.1-4.3-0.1-6.4
	c-0.1-0.6-0.2-1.3-0.4-1.9c-0.6-1.3-1.7-1.6-2.9-0.8c-0.5,0.4-0.9,0.9-1.3,1.4c-1.5,2.1-2.5,4.4-3.2,6.8c-0.4,1.5-0.5,3-0.7,4.5
	c-0.4-0.2-0.7-0.4-1-0.5c-1.5-0.7-2.7-0.2-3.3,1.3c-0.3,0.7-0.4,1.4-0.5,2.2c-0.4,3.1-0.6,6.2-0.8,9.3c0,0.6-0.1,1.1-0.3,1.7
	c-0.4-0.1-0.5-0.5-0.6-0.7c-0.7-1.4-1.1-2.9-1.4-4.5c-0.2-1.1-0.4-2.2-0.9-3.1c-0.8-1.3-2.2-1.5-3.3-0.4c-0.6,0.6-1.1,1.4-1.4,2.3
	c-0.2,0.6-0.3,1.2-1.1,1.7c-0.6-1.1-1.2-2.1-1.8-3.1c-0.5-0.8-0.9-1.6-1.6-2.3c-0.7-0.8-1.6-1.5-2.7-1.7c-1.2-0.2-2,0.3-2,1.5
	c-0.1,2.6-0.3,5.1,0.3,7.7c0.1,0.2,0.2,0.5-0.2,0.7c-0.2-0.1-0.4-0.1-0.7-0.2c-2.5-0.7-4,0.3-4.1,2.9c0,0.3,0,0.7,0,1
	c0.3,3.3,1.6,6.2,3.7,8.7c0.4,0.5,1,0.9,1.3,1.6c-0.5,0.1-0.9,0.1-1.4,0.2c-1.8,0.3-2.6,1.5-2.4,3.3c0.2,1.3,0.8,2.2,1.9,2.9
	c1.4,0.9,3,1.3,4.5,2c2,0.9,3.9,1.9,5.3,3.6c0.5,0.6,1,1.2,1,2c-0.4,0.2-0.7,0-1-0.1c-5.3-1.5-10.6-2.9-16-3.7
	c-6.1-0.9-12.2-1.3-18.3-0.7c-11.1,1-21.4,4.6-31,10.1c-5.4,3.1-10.4,6.7-14.8,11.1c-5.4,5.6-8.9,12.1-9.7,19.9
	c-0.4,3.4-0.3,6.7,0.8,10c0.4,1.1,0.9,2.2,1.7,3.1c0.3,0.3,0.6,0.5,1,0.3c0.4-0.3,0.4-0.7,0.1-1.1c-1-1.5-1.2-3.1-1.4-4.8
	c-0.4-5.8,0.8-11.3,3.3-16.5c2.1-4.2,5-7.7,8.5-10.8c6.3-5.6,13.4-9.8,21.1-13.1c7.4-3.1,15-4.9,23.1-5.2c0.5,0,1,0,1.6,0.2
	c4.1,1.5,5.7,5,7.2,8.8c-0.6,0-1,0-1.4,0.1c-1.9,0.2-3.7,0.6-5.4,1.5c-2.2,1.2-3,3.1-2.8,5.6c0.2,2,1.4,3.1,3.4,3.3
	c0.6,0.1,1.2,0.1,1.7,0.1c0.1,0.5-0.1,0.8-0.3,1.2c-0.5,1.2-0.9,2.4-1.3,3.6c-0.8,3,0.8,6.6,4.2,7.5c1,0.2,1.9,0.4,2.9,0.6
	c1.3,0.3,1.4,0.4,1,1.7c-0.5,1.8-1,3.6-1.4,5.5c-0.3,1.1-0.4,2.2-0.3,3.4c0.1,1.6,0.7,2.9,2.2,3.7c1.3,0.8,2.7,0.5,4,0
	c1-0.3,1.8-0.9,2.7-1.4c0.4,0.2,0.5,0.5,0.6,0.8c0.5,1.4,0.9,2.9,1.5,4.4c1.1,2.8,3.6,4,6.5,3.3c1.7-0.4,2.7-1.6,2.8-3.4
	c0.1-1-0.1-2-0.5-2.9c-0.4-0.9-0.7-1.7-1.1-2.6c-0.9-2.4-0.7-2.8,1.5-4c0.3-0.1,0.5-0.3,0.8-0.4c1-0.5,1.9-1.1,2.6-2
	c1.2-1.5,1.1-3.2-0.4-4.4c-0.6-0.5-1.4-0.9-2.2-1.3c-1.8-0.8-3.7-1.5-5.5-2.3c-1.1-0.5-1.2-1-0.5-2c0.6-0.8,1.3-1.5,2-2.2
	c1.7-1.8,1.5-3.3-0.4-4.7c-0.3-0.2-0.6-0.4-0.9-0.6c-1.3-0.8-2.7-1.6-4-2.5c-1.9-1.3-1.9-1.7-0.7-3.6c0.5-0.8,1.1-1.5,1.5-2.4
	c0.9-1.9,0-4.2-2.4-4.3c-1.3,0-2.7,0-4,0.1c-3.2,0.4-3,0.3-3.8-2.5c-0.7-2.2-1.9-4-4-5.1c-0.3-0.2-0.6-0.3-0.7-0.7
	c0.2,0,0.3,0,0.4,0c6.3,0.4,12.5,1.8,18.6,3.5c3.7,1,7.3,2.5,10.9,4c5.6,2.4,11,5.4,16.4,8.3c3.6,1.9,7.3,3.8,10.8,5.9
	c1.7,1,3.6,1.8,5.3,2.9c5.6,3.5,10.1,8.1,13,14.1c4.2,8.7,0.5,18-7.4,22.3c-6.1,3.3-14.3,1.2-18.1-3.2c-1.7-1.9-2.6-4.2-2.6-6.8
	c-0.1-3.1,1.4-5.3,4.1-6.7c2.9-1.5,5.9-1.3,8.8,0.2c1.1,0.6,1.8,1.5,1.9,2.8c0.1,0.5,0.1,1.1,0.2,1.6c0.1,0.6,0.3,1.1,1,1.1
	c0.7,0,0.9-0.6,1-1.1c0.6-2.2-0.3-4.5-2.4-5.7c-3.8-2.2-7.6-2.3-11.5-0.3c-2.8,1.5-4.5,3.9-4.9,7c-0.4,3.1,0.1,5.9,1.9,8.5
	c2,3,4.8,5.1,8.2,6.3c6.3,2.3,12.2,1.6,17.8-2.1c7.4-5,10.6-14,7.9-22.6c-1.3-4.2-3.7-7.8-6.8-11c-0.4-0.4-0.8-0.7-1.1-1.4
	c4.1,1.3,7.6,3.2,10.9,5.4c3.6,2.4,7.1,4.9,10.8,7c3.6,2.1,7.4,3.7,11.4,5c0.6,0.2,1.1,0.3,1.5,0.9c2.1,3.6,5.2,6.3,8.7,8.5
	c2.1,1.3,4.4,2.2,6.9,2.5c4.8,0.5,9.5-0.1,14-1.7c8.4-2.9,15.8-7.4,22.5-13.3c0.9-0.8,1.8-1.6,2.6-2.4c0.5-0.4,0.7-1,0.5-1.6
	c-0.2-0.7-0.8-0.8-1.4-0.9c-0.8-0.1-1.7-0.1-2.5-0.3c-5.5-0.9-10.9-2-16.4-2.7c-5.3-0.7-10.5-1-15.8-0.1c-6.6,1.2-12.8,3.4-17.8,8.2
	c-0.6,0.6-1.2,0.4-1.7,0.1c-3.3-1.3-6.6-2.7-9.7-4.5c-4.7-2.7-9-6.1-13.6-9C308.1,319.5,308.5,319.6,308.9,319.6z"/>
</svg>
