<svg id="Layer_2" data-name="Layer 2" xmlns="http://www.w3.org/2000/svg" viewBox="0 0 900 900"><title>PRESENTATION_LoveSVG_CC</title><path d="M257.966,207.41c1.091-1.252,2.132-2.486,3.065-3.8s1.792-2.653,2.6-4.013a88.421,88.421,0,0,0,4.351-8.416c2.578-5.486.551-9.154-5.533-9.192a22.6,22.6,0,0,0-15.947,6.565,28.774,28.774,0,0,0-9.07,19.311,73.734,73.734,0,0,0,.312,8.807c-10.389,7.068-16.936,17.461-20.522,28.967l-3.015.3a66.858,66.858,0,0,0-28.1,9.67,85,85,0,0,0-23.639,22.1,75.655,75.655,0,0,0-9.976,68.509q.664,1.808,1.42,3.546.782,1.748,1.655,3.425a63.264,63.264,0,0,0,3.837,6.431A65.621,65.621,0,0,0,169.3,370.9a5.115,5.115,0,0,1,1.855,4.356c0,1.143-.018,2.276.027,3.417s.1,2.276.165,3.408l.219,3.383.32,3.374c.153,1.527.3,3.042.491,4.556l.621,4.526.311,2.247.351,2.247c.232,1.5.455,2.986.66,4.472a55.438,55.438,0,0,1,.69,7.574,36.55,36.55,0,0,1-.5,7.6,22.85,22.85,0,0,1-1.657,5.742,19.527,19.527,0,0,1-2.874,4.738,18.192,18.192,0,0,1-9.321,5.9c-9.113,2.48-17.7.9-25.332-5.6a20.294,20.294,0,0,1-3.8-4.379,21.225,21.225,0,0,1-2.573-5.622,17.057,17.057,0,0,1-.73-5.165,14.136,14.136,0,0,1,.943-4.745,12.608,12.608,0,0,1,2.408-3.944,12.391,12.391,0,0,1,3.783-2.774,14.5,14.5,0,0,1,13.512.41,10.034,10.034,0,0,1,2.764,2.242c1.368,1.522,1.341,2.633.537,4.633a7.566,7.566,0,0,0-.849,3.136,4.1,4.1,0,0,0,1.386,2.595c.846.672,1.657-.232,2.3-1a9.183,9.183,0,0,0,1.89-3.664,10.115,10.115,0,0,0,.3-2.024,12.974,12.974,0,0,0-.045-2.134,13.657,13.657,0,0,0-2.147-6.224,14.127,14.127,0,0,0-4.45-4.274,18.108,18.108,0,0,0-17.583-1.358,16.883,16.883,0,0,0-8.032,7.356,20.181,20.181,0,0,0-1.282,2.639,23.907,23.907,0,0,0-.908,2.883,24.707,24.707,0,0,0-.742,6.3,32.277,32.277,0,0,0,1.117,8.17,31.561,31.561,0,0,0,3.048,7.207,40.937,40.937,0,0,0,6.925,8.835,30.108,30.108,0,0,0,8.167,5.492c5.774,2.6,12.181,3.13,19.127,2a21.744,21.744,0,0,0,11.436-5.384,24.628,24.628,0,0,0,4.055-4.845,27.567,27.567,0,0,0,1.615-2.916c.5-1.025.983-2.1,1.4-3.231a28.366,28.366,0,0,0,1.13-3.8,32.388,32.388,0,0,0,.7-3.836c.166-1.286.221-2.586.286-3.889s.056-2.618.008-3.941c-.027-.82-.084-1.639-.131-2.455s-.1-1.628-.17-2.441c-.135-1.625-.35-3.253-.554-4.875-.38-3.24-.965-6.5-1.431-9.767-.223-1.494-.466-3-.666-4.506l-.561-4.535-.272-2.285-.217-2.285-.416-4.6a31.042,31.042,0,0,1,.089-3.275c.938.461,1.564.749,2.176,1.067a37.773,37.773,0,0,0,18.722,4.559,34.266,34.266,0,0,0,8.838-1.383,30.816,30.816,0,0,0,7.673-3.374,27.18,27.18,0,0,0,6.159-5.09,24.5,24.5,0,0,0,2.452-3.125,30.8,30.8,0,0,0,1.957-3.508,18.945,18.945,0,0,0,1.385-11.734,19.372,19.372,0,0,0-2.074-5.668,20.189,20.189,0,0,0-3.832-4.986,25.174,25.174,0,0,0-9.267-5.645,28.7,28.7,0,0,0-12.149-1.459,27.82,27.82,0,0,0-11.359,3.795,32.422,32.422,0,0,0-14.643,21.006c-.165.735-.459,1.445-.7,2.194a33.41,33.41,0,0,1-9.344-10.706,58.647,58.647,0,0,1-3.655-7.608,65.689,65.689,0,0,1-2.7-8.576,66.625,66.625,0,0,1-1.859-18.133,51.859,51.859,0,0,1,1.033-8.5,35.938,35.938,0,0,1,2.377-7.366l1.59,3.042c3.732,7.251,9.762,9.6,17.6,7.973a42.428,42.428,0,0,0,19.374-9.858,19.554,19.554,0,0,0,3.481-4c3.084-4.468,2.565-7.759-1.945-9.593a155.722,155.722,0,0,0-16.536-5.525,24.934,24.934,0,0,0-7.044-.941,23.691,23.691,0,0,0-7.4,1.34c-.129.045-.285-.152-.429-.235a32.5,32.5,0,0,1,3.584-5.25,58.887,58.887,0,0,1,5.1-5.3c1.931-1.725,4.031-3.414,6.229-5.018,2.238-1.577,4.578-3.066,6.945-4.43,2.4-1.339,4.841-2.542,7.235-3.587a62.911,62.911,0,0,1,7.093-2.543,39.3,39.3,0,0,1,6.515-1.353,23.014,23.014,0,0,1,5.514-.059c0,.361.031.741,0,1.124-1.826,19.3,3.517,36.274,12.868,50.938a64.4,64.4,0,0,0,9.429,11.649,58.379,58.379,0,0,0,12.07,8.978,46.255,46.255,0,0,0,9.476,4.076,35.469,35.469,0,0,0,9.936,1.52c5.208.039,9.582-1.228,12.868-3.574a14.936,14.936,0,0,0,4.09-4.342,15.324,15.324,0,0,0,1.408-2.756,21.747,21.747,0,0,0,.924-3.163,26.113,26.113,0,0,0,.5-5.739,38.5,38.5,0,0,0-.583-6.049,73.383,73.383,0,0,0-8.522-24.528c-5.9-10.437-12.919-19.306-21.655-26a66.152,66.152,0,0,0-31.685-13.02c-.989-.139-1.972-.247-3.127-.384,3.581-10.273,9.811-18.841,19.837-23.643,10.444-4.992,20.7-4.72,30.225-1.459a11.1,11.1,0,0,1,1.463.676c-.085,1.423-.169,2.822-.252,4.2s-.129,2.759-.176,4.108c-.086,2.707-.132,5.316-.008,7.941a32,32,0,0,0,3.937,13.825,21.635,21.635,0,0,0,10.386,9.94,12.552,12.552,0,0,0,6.555,1.19,10.82,10.82,0,0,0,5.843-2.574,12.9,12.9,0,0,0,3.859-4.965,16.508,16.508,0,0,0,1.409-6.342,31,31,0,0,0-2.972-14.131,45.362,45.362,0,0,0-17.4-19.778l-2.357-1.537a41.3,41.3,0,0,1,5.085-8.163,37.734,37.734,0,0,1,3.113-3.419,36.281,36.281,0,0,1,3.51-2.9q.921-.666,1.883-1.272c.648-.393,1.314-.759,1.992-1.109a35.047,35.047,0,0,1,4.234-1.83,34.685,34.685,0,0,1,4.6-1.213,32.819,32.819,0,0,1,4.933-.6c1.7-.083,3.377-.052,5.047,0s3.354.17,5.02.184c4.084.025,8.179.225,12.214.172a8.744,8.744,0,0,0,5.38-1.626,10.18,10.18,0,0,0,3.344-4.457,39.859,39.859,0,0,0,2.815-10.184,31.782,31.782,0,0,0-.354-10.355c-.787-3.957-3.633-5.972-8.291-5.422a36.905,36.905,0,0,0-8.514,2.17c-9.6,3.754-17.6,9.977-24.776,16.805l-6.147,5.814c-2.009,1.981-4.015,3.93-5.9,5.983a168.98,168.98,0,0,0-11.265,13.7,40.288,40.288,0,0,0-3.05,5.484,41.446,41.446,0,0,0-21.369-1.815C257.333,208.218,257.625,207.8,257.966,207.41Zm-21.22,52.526a67.434,67.434,0,0,1,13.562,6.877,65.91,65.91,0,0,1,11.148,9.277,73.926,73.926,0,0,1,8.934,11.361,94.588,94.588,0,0,1,7.049,13.217,62.859,62.859,0,0,1,2.325,6,55.22,55.22,0,0,1,1.594,6.035,31.411,31.411,0,0,1,.622,4.768,23.046,23.046,0,0,1-.18,4.606c-.694,4.623-3.283,7.368-8.02,8.574a22.2,22.2,0,0,1-9.88.089,35.455,35.455,0,0,1-10.135-3.63,58.44,58.44,0,0,1-10.579-7.194,54.036,54.036,0,0,1-8.623-9.361,84.061,84.061,0,0,1-6.853-11.162,75.11,75.11,0,0,1-8-39.148c.07-1.041.212-2.085.369-3.525a53.634,53.634,0,0,1,8.683.949A50.618,50.618,0,0,1,236.746,259.936Zm-22.532,87.83A21.1,21.1,0,0,1,215.937,349a14.565,14.565,0,0,1,3.269,3.64,11.034,11.034,0,0,1,1.578,4.067,11.2,11.2,0,0,1-2.166,8.41,20.208,20.208,0,0,1-5.719,5.567,23.324,23.324,0,0,1-7.6,3.152,31.46,31.46,0,0,1-17.319-.823,32.956,32.956,0,0,1-10.611-5.333,28.072,28.072,0,0,1,5.435-14.2,23.6,23.6,0,0,1,4.682-4.607,22.4,22.4,0,0,1,5.4-2.985,24.28,24.28,0,0,1,11.41-1.529A22.474,22.474,0,0,1,214.214,347.766ZM296.4,244.533a21.035,21.035,0,0,1,1.195,8.321,7.6,7.6,0,0,1-.594,2.515,3.485,3.485,0,0,1-1.251,1.55c-1.059.695-2.564.713-4.483.027a16.953,16.953,0,0,1-8.586-7.207,26.751,26.751,0,0,1-3.08-6.649,34.518,34.518,0,0,1-1.342-7.234,43.76,43.76,0,0,1-.111-6.006,47.193,47.193,0,0,1,.8-6.385,43.261,43.261,0,0,1,10.842,9.091A35.6,35.6,0,0,1,296.4,244.533Z" fill="#ffffff"/><path d="M419.629,218.117a70.862,70.862,0,0,1-20.822-.16,49.884,49.884,0,0,1-8.419-2.109,47.83,47.83,0,0,1-7.835-3.49,54.076,54.076,0,0,1-7.342-4.819,69.129,69.129,0,0,1-6.9-6.1c-1.435-1.444-2.8-2.982-4.128-4.549s-2.612-3.152-3.9-4.741c-3.034-3.735-5.915-7.623-8.945-11.412-1.061-1.324-2.178-2.616-2.065-4.5.129-2.182,1.252-3.026,3.482-2.45a19.417,19.417,0,0,1,3.4,1.351,50.32,50.32,0,0,0,28.028,4.842,53.275,53.275,0,0,0,9.515-2.592c1.355-.4,2.69-.872,4.024-1.36s2.666-1,4.034-1.377a28.76,28.76,0,0,1,6.295-1.133,22.664,22.664,0,0,1,5.909.48,19.289,19.289,0,0,1,5.4,2.158,20.779,20.779,0,0,1,2.471,1.7,22.652,22.652,0,0,1,2.308,2.167,58.8,58.8,0,0,1,6.81,8.779,56.649,56.649,0,0,1,4.942,9.855,21.256,21.256,0,0,1,1.268,5.129c.62,5.5-1.591,9.619-6.193,11.59a51.65,51.65,0,0,1-7.317,2.24A30.532,30.532,0,0,1,419.629,218.117Z" fill="#ffffff"/><path d="M389.106,133.539c10.418-1.68,20.888-1.671,31.214-1.2,5.056.218,10.1.566,15.123.834,4.028.249,5.959,2.359,4.384,5.97a16.44,16.44,0,0,1-2.56,3.985,108.933,108.933,0,0,1-9.24,9.671c-1.612,1.472-3.257,2.942-4.944,4.3q-1.265,1.023-2.56,1.989c-.864.647-1.734,1.306-2.617,1.929a102.583,102.583,0,0,1-23.387,12.21c-10.361,3.842-20.337,3.647-30.348-.933-2.08-.96-4.087-2.02-6.081-3.169s-3.968-2.361-5.936-3.5c-3.018-1.765-3.764-4.3-1.954-7.539a43.817,43.817,0,0,1,6.07-8.381C364.682,140.815,376.256,135.635,389.106,133.539Z" fill="#ffffff"/><path d="M393.527,234.9c.839,4.74,1.705,9.63,2.57,14.52a11.251,11.251,0,0,1,.076,3.116,5.442,5.442,0,0,1-1.288,3.136,3.5,3.5,0,0,1-2.679,1.192,15.944,15.944,0,0,1-4-.569,135.125,135.125,0,0,1-26.723-10.831,34.133,34.133,0,0,1-6.257-4.24,30.027,30.027,0,0,1-4.916-5.353,34.134,34.134,0,0,1-5.724-14.092,59.67,59.67,0,0,1,.124-19.644c.573-3.7,1.008-7.425,1.6-11.179a9.586,9.586,0,0,1,.288-1.6c.6-1.784,1.908-2.31,3.514-1.358a10.717,10.717,0,0,1,2.644,2.269,31.656,31.656,0,0,1,3.312,4.509,42.424,42.424,0,0,0,10.258,11.855,58.245,58.245,0,0,0,6.279,4.383q1.642.993,3.345,1.887c1.139.61,2.3,1.208,3.474,1.769a15.342,15.342,0,0,0,1.406.622,14.314,14.314,0,0,1,6.033,4.115,20.766,20.766,0,0,1,3.739,6.463C391.7,228.763,392.529,231.768,393.527,234.9Z" fill="#ffffff"/><path d="M207.41,642.034c-1.252-1.091-2.486-2.132-3.8-3.065s-2.653-1.792-4.013-2.6a88.421,88.421,0,0,0-8.416-4.351c-5.486-2.578-9.154-.551-9.192,5.533a22.607,22.607,0,0,0,6.565,15.948,28.775,28.775,0,0,0,19.311,9.069,73.525,73.525,0,0,0,8.807-.312c7.068,10.389,17.461,16.936,28.967,20.522.109,1.108.2,2.062.3,3.015a66.858,66.858,0,0,0,9.67,28.1,84.984,84.984,0,0,0,22.1,23.639,75.655,75.655,0,0,0,68.509,9.976q1.808-.664,3.546-1.42,1.748-.782,3.425-1.655a63.264,63.264,0,0,0,6.431-3.837A65.621,65.621,0,0,0,370.9,730.7a5.115,5.115,0,0,1,4.356-1.855c1.143,0,2.276.018,3.417-.027s2.276-.1,3.408-.165l3.383-.219,3.374-.32c1.527-.153,3.042-.3,4.556-.491l4.526-.621,2.247-.311,2.247-.351c1.5-.232,2.986-.455,4.472-.66a55.438,55.438,0,0,1,7.574-.69,36.55,36.55,0,0,1,7.6.5,22.85,22.85,0,0,1,5.742,1.657,19.527,19.527,0,0,1,4.738,2.874,18.192,18.192,0,0,1,5.9,9.321c2.48,9.113.9,17.7-5.6,25.332a20.294,20.294,0,0,1-4.379,3.8,21.225,21.225,0,0,1-5.622,2.573,17.057,17.057,0,0,1-5.165.73,14.146,14.146,0,0,1-4.746-.943,12.614,12.614,0,0,1-3.943-2.408,12.391,12.391,0,0,1-2.774-3.783,14.5,14.5,0,0,1,.41-13.512,10.052,10.052,0,0,1,2.242-2.765c1.522-1.367,2.633-1.34,4.633-.536a7.566,7.566,0,0,0,3.136.849,4.1,4.1,0,0,0,2.595-1.386c.672-.846-.232-1.657-1-2.3a9.183,9.183,0,0,0-3.664-1.89,10.115,10.115,0,0,0-2.024-.3,12.974,12.974,0,0,0-2.134.045,13.657,13.657,0,0,0-6.224,2.147,14.127,14.127,0,0,0-4.274,4.45,18.108,18.108,0,0,0-1.358,17.583,16.883,16.883,0,0,0,7.356,8.032,20.181,20.181,0,0,0,2.639,1.282,23.907,23.907,0,0,0,2.883.908,24.707,24.707,0,0,0,6.3.742,32.277,32.277,0,0,0,8.17-1.117,31.561,31.561,0,0,0,7.207-3.048,40.937,40.937,0,0,0,8.835-6.925,30.108,30.108,0,0,0,5.492-8.167c2.6-5.774,3.13-12.181,2-19.127a21.744,21.744,0,0,0-5.384-11.436,24.606,24.606,0,0,0-4.846-4.055,27.453,27.453,0,0,0-2.915-1.615c-1.025-.5-2.1-.983-3.231-1.4a28.366,28.366,0,0,0-3.8-1.13,32.388,32.388,0,0,0-3.836-.7c-1.286-.166-2.586-.221-3.889-.286s-2.618-.056-3.941-.008c-.82.027-1.639.084-2.455.131s-1.628.1-2.441.17c-1.625.135-3.253.35-4.875.554-3.24.38-6.5.965-9.767,1.431-1.494.223-3,.467-4.506.666l-4.535.561-2.285.272-2.285.217-4.6.416a31.042,31.042,0,0,1-3.275-.089c.461-.938.749-1.564,1.067-2.176a37.773,37.773,0,0,0,4.559-18.722,34.266,34.266,0,0,0-1.383-8.838,30.793,30.793,0,0,0-3.374-7.672,27.163,27.163,0,0,0-5.09-6.16,24.5,24.5,0,0,0-3.125-2.452,30.889,30.889,0,0,0-3.508-1.957,18.945,18.945,0,0,0-11.734-1.385,19.372,19.372,0,0,0-5.668,2.074,20.189,20.189,0,0,0-4.986,3.832,25.174,25.174,0,0,0-5.645,9.267,28.7,28.7,0,0,0-1.459,12.149,27.82,27.82,0,0,0,3.795,11.359,32.422,32.422,0,0,0,21.006,14.643c.735.165,1.445.459,2.194.7a33.41,33.41,0,0,1-10.706,9.344,58.647,58.647,0,0,1-7.608,3.655,65.689,65.689,0,0,1-8.576,2.7,66.625,66.625,0,0,1-18.133,1.859,51.859,51.859,0,0,1-8.5-1.033,35.938,35.938,0,0,1-7.366-2.377l3.042-1.59c7.251-3.732,9.6-9.762,7.973-17.6a42.433,42.433,0,0,0-9.858-19.374,19.554,19.554,0,0,0-4-3.481c-4.468-3.084-7.759-2.565-9.593,1.945a155.722,155.722,0,0,0-5.525,16.536,24.934,24.934,0,0,0-.941,7.044,23.691,23.691,0,0,0,1.34,7.4c.045.129-.152.285-.235.429a32.5,32.5,0,0,1-5.25-3.584,58.887,58.887,0,0,1-5.3-5.1c-1.725-1.931-3.414-4.031-5.018-6.229-1.577-2.238-3.066-4.578-4.43-6.945-1.339-2.4-2.542-4.841-3.587-7.235a62.911,62.911,0,0,1-2.543-7.093,39.3,39.3,0,0,1-1.353-6.515,23.07,23.07,0,0,1-.06-5.514c.362,0,.742-.031,1.125,0,19.3,1.826,36.274-3.517,50.938-12.868a64.4,64.4,0,0,0,11.649-9.429,58.352,58.352,0,0,0,8.978-12.07,46.255,46.255,0,0,0,4.076-9.476,35.469,35.469,0,0,0,1.52-9.936c.039-5.208-1.228-9.582-3.574-12.868a14.936,14.936,0,0,0-4.342-4.09,15.324,15.324,0,0,0-2.756-1.408,21.747,21.747,0,0,0-3.163-.924,26.113,26.113,0,0,0-5.739-.5,38.5,38.5,0,0,0-6.049.583,73.383,73.383,0,0,0-24.528,8.522c-10.437,5.9-19.306,12.919-26,21.655a66.152,66.152,0,0,0-13.02,31.685c-.139.989-.247,1.972-.384,3.127-10.273-3.581-18.841-9.811-23.643-19.837-4.993-10.444-4.72-20.7-1.459-30.225a11.1,11.1,0,0,1,.676-1.463l4.2.252c1.385.073,2.759.129,4.108.176,2.707.086,5.316.132,7.941.008a32,32,0,0,0,13.825-3.937,21.635,21.635,0,0,0,9.94-10.386,12.552,12.552,0,0,0,1.19-6.555,10.82,10.82,0,0,0-2.574-5.843,12.883,12.883,0,0,0-4.965-3.858,16.49,16.49,0,0,0-6.342-1.41,31,31,0,0,0-14.131,2.972,45.368,45.368,0,0,0-19.778,17.405l-1.537,2.357a41.3,41.3,0,0,1-8.163-5.085,37.734,37.734,0,0,1-3.419-3.113,36.135,36.135,0,0,1-2.9-3.51q-.666-.921-1.272-1.883c-.393-.648-.76-1.314-1.109-1.992a35.047,35.047,0,0,1-1.83-4.234,34.685,34.685,0,0,1-1.213-4.6,32.819,32.819,0,0,1-.6-4.933c-.083-1.7-.052-3.377,0-5.047s.17-3.354.184-5.02c.025-4.084.225-8.179.172-12.214a8.744,8.744,0,0,0-1.626-5.38,10.18,10.18,0,0,0-4.457-3.344,39.816,39.816,0,0,0-10.184-2.814,31.753,31.753,0,0,0-10.355.353c-3.957.787-5.972,3.633-5.422,8.291a36.905,36.905,0,0,0,2.17,8.514c3.754,9.6,9.977,17.6,16.805,24.776l5.813,6.147c1.982,2.009,3.931,4.015,5.984,5.9a168.77,168.77,0,0,0,13.7,11.265,40.288,40.288,0,0,0,5.484,3.05,41.447,41.447,0,0,0-1.815,21.369C208.218,642.667,207.794,642.375,207.41,642.034Zm52.526,21.22a67.434,67.434,0,0,1,6.877-13.562,65.91,65.91,0,0,1,9.277-11.148,73.926,73.926,0,0,1,11.361-8.934,94.478,94.478,0,0,1,13.217-7.048,62.6,62.6,0,0,1,6-2.326,55.22,55.22,0,0,1,6.035-1.594,31.394,31.394,0,0,1,4.768-.622,23.046,23.046,0,0,1,4.606.18c4.623.694,7.368,3.283,8.574,8.02a22.2,22.2,0,0,1,.089,9.88,35.455,35.455,0,0,1-3.63,10.135,58.44,58.44,0,0,1-7.194,10.579,54.036,54.036,0,0,1-9.361,8.623,84.061,84.061,0,0,1-11.162,6.853,75.11,75.11,0,0,1-39.148,8c-1.041-.069-2.085-.212-3.525-.369a53.634,53.634,0,0,1,.949-8.683A50.618,50.618,0,0,1,259.936,663.254Zm87.83,22.532A21.1,21.1,0,0,1,349,684.063a14.565,14.565,0,0,1,3.64-3.269,11.034,11.034,0,0,1,4.067-1.578,11.2,11.2,0,0,1,8.41,2.166,20.208,20.208,0,0,1,5.567,5.719,23.324,23.324,0,0,1,3.152,7.6,31.46,31.46,0,0,1-.823,17.319,32.956,32.956,0,0,1-5.333,10.611,28.072,28.072,0,0,1-14.2-5.435,23.6,23.6,0,0,1-4.607-4.682,22.4,22.4,0,0,1-2.985-5.4,24.28,24.28,0,0,1-1.529-11.41A22.474,22.474,0,0,1,347.766,685.786ZM244.533,603.6a21.035,21.035,0,0,1,8.321-1.195,7.6,7.6,0,0,1,2.515.594,3.485,3.485,0,0,1,1.55,1.251c.695,1.059.713,2.564.027,4.483a16.953,16.953,0,0,1-7.207,8.586,26.751,26.751,0,0,1-6.649,3.08,34.518,34.518,0,0,1-7.234,1.342,43.76,43.76,0,0,1-6.006.111,47.193,47.193,0,0,1-6.385-.8,43.261,43.261,0,0,1,9.091-10.842A35.6,35.6,0,0,1,244.533,603.6Z" fill="#ffffff"/><path d="M218.117,480.371a70.862,70.862,0,0,1-.16,20.822,49.86,49.86,0,0,1-2.109,8.419,47.83,47.83,0,0,1-3.49,7.835,54.076,54.076,0,0,1-4.819,7.342,69.129,69.129,0,0,1-6.1,6.9c-1.444,1.435-2.982,2.8-4.549,4.128s-3.152,2.612-4.741,3.9c-3.735,3.034-7.623,5.915-11.412,8.945-1.324,1.061-2.616,2.178-4.5,2.065-2.182-.129-3.026-1.252-2.45-3.482a19.417,19.417,0,0,1,1.351-3.4,50.32,50.32,0,0,0,4.842-28.028,53.36,53.36,0,0,0-2.592-9.515c-.4-1.355-.872-2.69-1.36-4.024s-1-2.666-1.377-4.034a28.76,28.76,0,0,1-1.133-6.295,22.707,22.707,0,0,1,.48-5.909,19.289,19.289,0,0,1,2.158-5.4,20.779,20.779,0,0,1,1.7-2.471,22.652,22.652,0,0,1,2.167-2.308,58.8,58.8,0,0,1,8.779-6.81,56.649,56.649,0,0,1,9.855-4.942,21.256,21.256,0,0,1,5.129-1.268c5.5-.62,9.619,1.591,11.59,6.193a51.65,51.65,0,0,1,2.24,7.317A30.553,30.553,0,0,1,218.117,480.371Z" fill="#ffffff"/><path d="M133.539,510.894c-1.68-10.418-1.671-20.888-1.2-31.214.218-5.056.566-10.1.834-15.123.249-4.028,2.359-5.959,5.97-4.384a16.44,16.44,0,0,1,3.985,2.56,108.933,108.933,0,0,1,9.671,9.24c1.472,1.612,2.942,3.257,4.3,4.944q1.023,1.265,1.989,2.56c.647.864,1.306,1.734,1.929,2.617a102.583,102.583,0,0,1,12.21,23.387c3.842,10.361,3.647,20.337-.933,30.348-.96,2.08-2.021,4.087-3.169,6.081s-2.361,3.968-3.5,5.936c-1.765,3.018-4.3,3.764-7.539,1.954a43.817,43.817,0,0,1-8.381-6.07C140.815,535.318,135.635,523.744,133.539,510.894Z" fill="#ffffff"/><path d="M234.9,506.473l14.52-2.57a11.251,11.251,0,0,1,3.116-.076,5.445,5.445,0,0,1,3.136,1.288,3.5,3.5,0,0,1,1.192,2.679,15.944,15.944,0,0,1-.569,4,135.125,135.125,0,0,1-10.831,26.723,34.133,34.133,0,0,1-4.24,6.257,29.989,29.989,0,0,1-5.353,4.916,34.134,34.134,0,0,1-14.092,5.724,59.67,59.67,0,0,1-19.644-.124c-3.7-.573-7.425-1.008-11.179-1.6a9.586,9.586,0,0,1-1.6-.288c-1.784-.6-2.31-1.908-1.358-3.514a10.717,10.717,0,0,1,2.269-2.644,31.572,31.572,0,0,1,4.509-3.311,42.443,42.443,0,0,0,11.855-10.259,58.332,58.332,0,0,0,4.383-6.278q.993-1.644,1.887-3.346c.61-1.139,1.208-2.3,1.769-3.474a15.342,15.342,0,0,0,.622-1.406,14.314,14.314,0,0,1,4.115-6.033,20.766,20.766,0,0,1,6.463-3.739C228.763,508.3,231.768,507.471,234.9,506.473Z" fill="#ffffff"/><path d="M642.034,692.59c-1.091,1.252-2.132,2.486-3.065,3.8s-1.792,2.653-2.6,4.013a88.421,88.421,0,0,0-4.351,8.416c-2.578,5.486-.551,9.154,5.533,9.192a22.607,22.607,0,0,0,15.948-6.565,28.775,28.775,0,0,0,9.069-19.311,73.734,73.734,0,0,0-.312-8.807c10.389-7.068,16.936-17.461,20.522-28.967l3.015-.3a66.858,66.858,0,0,0,28.1-9.67,84.984,84.984,0,0,0,23.639-22.1,75.655,75.655,0,0,0,9.976-68.509q-.664-1.808-1.42-3.546-.782-1.747-1.655-3.425a63.264,63.264,0,0,0-3.837-6.431A65.659,65.659,0,0,0,730.7,529.1a5.115,5.115,0,0,1-1.855-4.356c0-1.143.018-2.276-.027-3.417s-.1-2.276-.165-3.408l-.219-3.383-.32-3.374c-.153-1.527-.3-3.042-.491-4.556L727,502.077l-.311-2.247-.351-2.247c-.232-1.5-.455-2.986-.66-4.472a55.438,55.438,0,0,1-.69-7.574,36.55,36.55,0,0,1,.5-7.6,22.85,22.85,0,0,1,1.657-5.742,19.527,19.527,0,0,1,2.874-4.738,18.192,18.192,0,0,1,9.321-5.9c9.113-2.48,17.7-.9,25.332,5.6a20.294,20.294,0,0,1,3.8,4.379,21.225,21.225,0,0,1,2.573,5.622,17.057,17.057,0,0,1,.73,5.165,14.146,14.146,0,0,1-.943,4.746,12.614,12.614,0,0,1-2.408,3.943,12.391,12.391,0,0,1-3.783,2.774,14.5,14.5,0,0,1-13.512-.41,10.052,10.052,0,0,1-2.765-2.242c-1.367-1.522-1.34-2.633-.536-4.633a7.566,7.566,0,0,0,.849-3.136,4.1,4.1,0,0,0-1.386-2.595c-.846-.672-1.657.232-2.3,1a9.183,9.183,0,0,0-1.89,3.664,10.115,10.115,0,0,0-.3,2.024,12.988,12.988,0,0,0,.045,2.135,13.657,13.657,0,0,0,2.147,6.223,14.127,14.127,0,0,0,4.45,4.274,18.108,18.108,0,0,0,17.583,1.358,16.883,16.883,0,0,0,8.032-7.356,20.12,20.12,0,0,0,1.282-2.639,23.907,23.907,0,0,0,.908-2.883,24.707,24.707,0,0,0,.742-6.3,32.277,32.277,0,0,0-1.117-8.17,31.561,31.561,0,0,0-3.048-7.207,40.962,40.962,0,0,0-6.925-8.835,30.108,30.108,0,0,0-8.167-5.492c-5.774-2.6-12.181-3.13-19.127-2a21.744,21.744,0,0,0-11.436,5.384,24.606,24.606,0,0,0-4.055,4.846,27.453,27.453,0,0,0-1.615,2.915c-.5,1.025-.983,2.1-1.4,3.231a28.366,28.366,0,0,0-1.13,3.8,32.388,32.388,0,0,0-.7,3.836c-.166,1.286-.221,2.586-.286,3.889s-.056,2.618-.008,3.941c.027.82.084,1.639.131,2.455s.1,1.628.17,2.441c.135,1.625.35,3.253.554,4.875.38,3.24.965,6.5,1.431,9.767.223,1.494.467,3,.666,4.506l.561,4.535.272,2.285.217,2.285.416,4.6a31.042,31.042,0,0,1-.089,3.275c-.938-.461-1.564-.749-2.176-1.067a37.773,37.773,0,0,0-18.722-4.559,34.266,34.266,0,0,0-8.838,1.383,30.793,30.793,0,0,0-7.672,3.374,27.163,27.163,0,0,0-6.16,5.09,24.5,24.5,0,0,0-2.452,3.125,30.817,30.817,0,0,0-1.957,3.509,18.941,18.941,0,0,0-1.385,11.733,19.361,19.361,0,0,0,2.074,5.668,20.189,20.189,0,0,0,3.832,4.986,25.174,25.174,0,0,0,9.267,5.645,28.7,28.7,0,0,0,12.149,1.459,27.82,27.82,0,0,0,11.359-3.795,32.422,32.422,0,0,0,14.643-21.006c.165-.735.459-1.445.7-2.194a33.41,33.41,0,0,1,9.344,10.706,58.6,58.6,0,0,1,3.655,7.609,65.627,65.627,0,0,1,2.7,8.575,66.625,66.625,0,0,1,1.859,18.133,51.859,51.859,0,0,1-1.033,8.5,35.938,35.938,0,0,1-2.377,7.366c-.566-1.084-1.078-2.063-1.59-3.042-3.732-7.251-9.762-9.6-17.6-7.973a42.433,42.433,0,0,0-19.374,9.858,19.554,19.554,0,0,0-3.481,4c-3.084,4.468-2.565,7.759,1.945,9.593a155.722,155.722,0,0,0,16.536,5.525,24.934,24.934,0,0,0,7.044.941,23.691,23.691,0,0,0,7.4-1.34c.129-.045.285.152.429.235a32.5,32.5,0,0,1-3.584,5.25,58.887,58.887,0,0,1-5.1,5.3c-1.931,1.725-4.031,3.414-6.229,5.018-2.238,1.577-4.578,3.066-6.945,4.43-2.4,1.339-4.841,2.542-7.235,3.587a62.911,62.911,0,0,1-7.093,2.543,39.3,39.3,0,0,1-6.515,1.353,23.07,23.07,0,0,1-5.514.06c0-.362-.031-.742,0-1.125,1.826-19.3-3.517-36.274-12.868-50.938a64.4,64.4,0,0,0-9.429-11.649,58.352,58.352,0,0,0-12.07-8.978,46.255,46.255,0,0,0-9.476-4.076,35.469,35.469,0,0,0-9.936-1.52c-5.208-.039-9.582,1.228-12.868,3.574a14.936,14.936,0,0,0-4.09,4.342,15.324,15.324,0,0,0-1.408,2.756,21.747,21.747,0,0,0-.924,3.163,26.113,26.113,0,0,0-.5,5.739,38.5,38.5,0,0,0,.583,6.049,73.383,73.383,0,0,0,8.522,24.528c5.9,10.437,12.919,19.306,21.655,26a66.152,66.152,0,0,0,31.685,13.02c.989.139,1.972.247,3.127.384-3.581,10.273-9.811,18.841-19.837,23.643-10.444,4.993-20.7,4.72-30.225,1.459a11.1,11.1,0,0,1-1.463-.676c.085-1.423.169-2.822.252-4.205s.129-2.759.176-4.108c.086-2.707.132-5.316.008-7.941a32,32,0,0,0-3.937-13.825,21.635,21.635,0,0,0-10.386-9.94,12.552,12.552,0,0,0-6.555-1.19,10.82,10.82,0,0,0-5.843,2.574,12.883,12.883,0,0,0-3.858,4.965,16.49,16.49,0,0,0-1.41,6.342,31,31,0,0,0,2.972,14.131,45.368,45.368,0,0,0,17.405,19.778l2.357,1.537a41.3,41.3,0,0,1-5.085,8.163,37.734,37.734,0,0,1-3.113,3.419,36.135,36.135,0,0,1-3.51,2.9q-.921.666-1.883,1.272c-.648.393-1.314.76-1.992,1.109a35.047,35.047,0,0,1-4.234,1.83,34.685,34.685,0,0,1-4.6,1.213,32.819,32.819,0,0,1-4.933.6c-1.7.083-3.377.052-5.047,0s-3.354-.17-5.02-.184c-4.084-.025-8.179-.225-12.214-.172a8.751,8.751,0,0,0-5.38,1.626,10.18,10.18,0,0,0-3.344,4.457,39.859,39.859,0,0,0-2.815,10.184,31.782,31.782,0,0,0,.354,10.355c.787,3.957,3.633,5.972,8.291,5.422a36.905,36.905,0,0,0,8.514-2.17c9.6-3.754,17.6-9.977,24.776-16.805l6.147-5.813c2.009-1.982,4.015-3.931,5.9-5.984a168.98,168.98,0,0,0,11.265-13.7,40.288,40.288,0,0,0,3.05-5.484,41.446,41.446,0,0,0,21.369,1.815C642.667,691.782,642.375,692.205,642.034,692.59Zm21.22-52.526a67.382,67.382,0,0,1-13.562-6.877,65.863,65.863,0,0,1-11.148-9.277,73.926,73.926,0,0,1-8.934-11.361,94.478,94.478,0,0,1-7.048-13.217,62.6,62.6,0,0,1-2.326-6,55.22,55.22,0,0,1-1.594-6.035,31.394,31.394,0,0,1-.622-4.768,23.046,23.046,0,0,1,.18-4.606c.694-4.623,3.283-7.368,8.02-8.574a22.184,22.184,0,0,1,9.88-.088,35.422,35.422,0,0,1,10.135,3.629,58.44,58.44,0,0,1,10.579,7.194,54.036,54.036,0,0,1,8.623,9.361,84.061,84.061,0,0,1,6.853,11.162,75.11,75.11,0,0,1,8,39.148c-.069,1.041-.212,2.085-.369,3.525a53.748,53.748,0,0,1-8.683-.948A50.727,50.727,0,0,1,663.254,640.064Zm22.532-87.83A21.1,21.1,0,0,1,684.063,551a14.567,14.567,0,0,1-3.269-3.64,11.051,11.051,0,0,1-1.578-4.067,11.2,11.2,0,0,1,2.166-8.41,20.208,20.208,0,0,1,5.719-5.567,23.324,23.324,0,0,1,7.6-3.152,31.46,31.46,0,0,1,17.319.823,32.956,32.956,0,0,1,10.611,5.333,28.072,28.072,0,0,1-5.435,14.2,23.6,23.6,0,0,1-4.682,4.607,22.433,22.433,0,0,1-5.4,2.986,24.292,24.292,0,0,1-11.41,1.528A22.474,22.474,0,0,1,685.786,552.234ZM603.6,655.467a21.035,21.035,0,0,1-1.195-8.321,7.6,7.6,0,0,1,.594-2.515,3.491,3.491,0,0,1,1.251-1.55c1.059-.7,2.564-.713,4.483-.027a16.953,16.953,0,0,1,8.586,7.207,26.751,26.751,0,0,1,3.08,6.649,34.518,34.518,0,0,1,1.342,7.234,43.76,43.76,0,0,1,.111,6.006,47.193,47.193,0,0,1-.8,6.385,43.261,43.261,0,0,1-10.842-9.091A35.6,35.6,0,0,1,603.6,655.467Z" fill="#ffffff"/><path d="M480.371,681.883a70.862,70.862,0,0,1,20.822.16,49.86,49.86,0,0,1,8.419,2.109,47.83,47.83,0,0,1,7.835,3.49,54.076,54.076,0,0,1,7.342,4.819,69.129,69.129,0,0,1,6.9,6.1c1.435,1.444,2.8,2.982,4.128,4.549s2.612,3.153,3.9,4.741c3.034,3.735,5.915,7.623,8.945,11.412,1.061,1.324,2.178,2.616,2.065,4.5-.129,2.182-1.252,3.026-3.482,2.45a19.417,19.417,0,0,1-3.4-1.351,50.32,50.32,0,0,0-28.028-4.842,53.275,53.275,0,0,0-9.515,2.592c-1.355.4-2.69.872-4.024,1.36s-2.666,1-4.034,1.377a28.76,28.76,0,0,1-6.295,1.133,22.664,22.664,0,0,1-5.909-.48,19.289,19.289,0,0,1-5.4-2.158,20.779,20.779,0,0,1-2.471-1.7,22.652,22.652,0,0,1-2.308-2.167,58.8,58.8,0,0,1-6.81-8.779,56.649,56.649,0,0,1-4.942-9.855,21.256,21.256,0,0,1-1.268-5.129c-.62-5.5,1.591-9.619,6.193-11.59a51.65,51.65,0,0,1,7.317-2.24A30.553,30.553,0,0,1,480.371,681.883Z" fill="#ffffff"/><path d="M510.894,766.461c-10.418,1.68-20.888,1.672-31.214,1.2-5.056-.218-10.1-.566-15.123-.834-4.028-.249-5.959-2.359-4.384-5.97a16.44,16.44,0,0,1,2.56-3.985,108.933,108.933,0,0,1,9.24-9.671c1.612-1.472,3.257-2.942,4.944-4.3q1.265-1.023,2.56-1.989c.864-.647,1.734-1.306,2.617-1.929a102.583,102.583,0,0,1,23.387-12.21c10.361-3.842,20.337-3.647,30.348.933,2.08.96,4.087,2.021,6.081,3.169s3.968,2.362,5.936,3.5c3.018,1.765,3.764,4.3,1.954,7.539a43.817,43.817,0,0,1-6.07,8.381C535.318,759.185,523.744,764.365,510.894,766.461Z" fill="#ffffff"/><path d="M506.473,665.1c-.839-4.74-1.705-9.63-2.57-14.52a11.251,11.251,0,0,1-.076-3.116,5.445,5.445,0,0,1,1.288-3.136,3.5,3.5,0,0,1,2.679-1.192,15.944,15.944,0,0,1,4,.569,135.125,135.125,0,0,1,26.723,10.831,34.133,34.133,0,0,1,6.257,4.24,29.989,29.989,0,0,1,4.916,5.353,34.134,34.134,0,0,1,5.724,14.092,59.67,59.67,0,0,1-.124,19.644c-.573,3.705-1.008,7.425-1.6,11.179a9.586,9.586,0,0,1-.288,1.6c-.6,1.784-1.908,2.31-3.514,1.358a10.717,10.717,0,0,1-2.644-2.269,31.572,31.572,0,0,1-3.311-4.509,42.443,42.443,0,0,0-10.259-11.855,58.332,58.332,0,0,0-6.278-4.383q-1.644-.993-3.346-1.887c-1.139-.61-2.3-1.208-3.474-1.769a15.342,15.342,0,0,0-1.406-.622,14.314,14.314,0,0,1-6.033-4.115,20.766,20.766,0,0,1-3.739-6.463C508.3,671.237,507.471,668.232,506.473,665.1Z" fill="#ffffff"/><path d="M692.59,257.966c1.252,1.091,2.486,2.132,3.8,3.065s2.653,1.792,4.013,2.6a88.421,88.421,0,0,0,8.416,4.351c5.486,2.578,9.154.551,9.192-5.533a22.6,22.6,0,0,0-6.565-15.947,28.774,28.774,0,0,0-19.311-9.07,73.734,73.734,0,0,0-8.807.312c-7.068-10.389-17.461-16.936-28.967-20.522-.109-1.108-.2-2.062-.3-3.015a66.858,66.858,0,0,0-9.67-28.1,84.984,84.984,0,0,0-22.1-23.639,75.655,75.655,0,0,0-68.509-9.976q-1.808.664-3.546,1.42-1.747.782-3.425,1.655a63.264,63.264,0,0,0-6.431,3.837A65.621,65.621,0,0,0,529.1,169.3a5.115,5.115,0,0,1-4.356,1.855c-1.143,0-2.276-.018-3.417.027s-2.276.1-3.408.165l-3.383.219-3.374.32c-1.527.153-3.042.3-4.556.491l-4.526.621-2.247.311-2.247.351c-1.5.232-2.986.455-4.472.66a55.438,55.438,0,0,1-7.574.69,36.55,36.55,0,0,1-7.6-.5,22.85,22.85,0,0,1-5.742-1.657,19.527,19.527,0,0,1-4.738-2.874,18.192,18.192,0,0,1-5.9-9.321c-2.48-9.113-.9-17.7,5.6-25.332a20.294,20.294,0,0,1,4.379-3.8,21.225,21.225,0,0,1,5.622-2.573,17.057,17.057,0,0,1,5.165-.73,14.146,14.146,0,0,1,4.746.943,12.614,12.614,0,0,1,3.943,2.408,12.391,12.391,0,0,1,2.774,3.783,14.5,14.5,0,0,1-.41,13.512,10.034,10.034,0,0,1-2.242,2.764c-1.522,1.368-2.633,1.341-4.633.537a7.566,7.566,0,0,0-3.136-.849,4.1,4.1,0,0,0-2.595,1.386c-.672.846.232,1.657,1,2.3a9.183,9.183,0,0,0,3.664,1.89,10.115,10.115,0,0,0,2.024.3,12.988,12.988,0,0,0,2.135-.045,13.657,13.657,0,0,0,6.223-2.147,14.127,14.127,0,0,0,4.274-4.45,18.108,18.108,0,0,0,1.358-17.583,16.883,16.883,0,0,0-7.356-8.032,20.181,20.181,0,0,0-2.639-1.282,23.907,23.907,0,0,0-2.883-.908,24.707,24.707,0,0,0-6.3-.742,32.277,32.277,0,0,0-8.17,1.117,31.6,31.6,0,0,0-7.207,3.047,40.971,40.971,0,0,0-8.835,6.926,30.108,30.108,0,0,0-5.492,8.167c-2.6,5.774-3.13,12.181-2,19.127a21.744,21.744,0,0,0,5.384,11.436,24.606,24.606,0,0,0,4.846,4.055,27.453,27.453,0,0,0,2.915,1.615c1.025.5,2.1.983,3.231,1.4a28.366,28.366,0,0,0,3.8,1.13,32.388,32.388,0,0,0,3.836.7c1.286.166,2.586.221,3.889.286s2.618.056,3.941.008c.82-.027,1.639-.084,2.455-.131s1.628-.1,2.441-.17c1.625-.135,3.253-.35,4.875-.554,3.24-.38,6.5-.965,9.767-1.431,1.494-.223,3-.467,4.506-.666l4.535-.561,2.285-.272,2.285-.217,4.6-.416a31.042,31.042,0,0,1,3.275.089c-.461.938-.749,1.564-1.067,2.176a37.773,37.773,0,0,0-4.559,18.722,34.266,34.266,0,0,0,1.383,8.838,30.793,30.793,0,0,0,3.374,7.672,27.163,27.163,0,0,0,5.09,6.16,24.5,24.5,0,0,0,3.125,2.452,30.889,30.889,0,0,0,3.508,1.957,18.945,18.945,0,0,0,11.734,1.385,19.372,19.372,0,0,0,5.668-2.074,20.189,20.189,0,0,0,4.986-3.832,25.174,25.174,0,0,0,5.645-9.267,28.7,28.7,0,0,0,1.459-12.149,27.82,27.82,0,0,0-3.795-11.359,32.422,32.422,0,0,0-21.006-14.643c-.735-.165-1.445-.459-2.194-.7a33.41,33.41,0,0,1,10.706-9.344,58.6,58.6,0,0,1,7.609-3.655,65.627,65.627,0,0,1,8.575-2.7,66.625,66.625,0,0,1,18.133-1.859,51.859,51.859,0,0,1,8.5,1.033,35.938,35.938,0,0,1,7.366,2.377l-3.042,1.59c-7.251,3.732-9.6,9.762-7.973,17.6a42.433,42.433,0,0,0,9.858,19.374,19.554,19.554,0,0,0,4,3.481c4.468,3.084,7.759,2.565,9.593-1.945a155.722,155.722,0,0,0,5.525-16.536,24.934,24.934,0,0,0,.941-7.044,23.691,23.691,0,0,0-1.34-7.4c-.045-.129.152-.285.235-.429a32.5,32.5,0,0,1,5.25,3.584,58.887,58.887,0,0,1,5.3,5.1c1.725,1.931,3.414,4.031,5.018,6.229,1.577,2.238,3.066,4.578,4.43,6.945,1.339,2.4,2.542,4.841,3.587,7.235a62.911,62.911,0,0,1,2.543,7.093,39.3,39.3,0,0,1,1.353,6.515,23.07,23.07,0,0,1,.06,5.514c-.362,0-.742.031-1.125,0-19.3-1.826-36.274,3.517-50.938,12.868a64.4,64.4,0,0,0-11.649,9.429,58.379,58.379,0,0,0-8.978,12.07,46.255,46.255,0,0,0-4.076,9.476,35.469,35.469,0,0,0-1.52,9.936c-.039,5.208,1.228,9.582,3.574,12.868a14.936,14.936,0,0,0,4.342,4.09,15.324,15.324,0,0,0,2.756,1.408,21.747,21.747,0,0,0,3.163.924,26.113,26.113,0,0,0,5.739.5,38.5,38.5,0,0,0,6.049-.583,73.383,73.383,0,0,0,24.528-8.522c10.437-5.9,19.306-12.919,26-21.655a66.152,66.152,0,0,0,13.02-31.685c.139-.989.247-1.972.384-3.127,10.273,3.581,18.841,9.811,23.643,19.837,4.993,10.444,4.72,20.7,1.459,30.225a11.1,11.1,0,0,1-.676,1.463l-4.205-.252c-1.385-.072-2.759-.129-4.108-.176-2.707-.085-5.316-.132-7.941-.008a32,32,0,0,0-13.825,3.937,21.635,21.635,0,0,0-9.94,10.386,12.552,12.552,0,0,0-1.19,6.555,10.82,10.82,0,0,0,2.574,5.843,12.9,12.9,0,0,0,4.965,3.859,16.508,16.508,0,0,0,6.342,1.409,31,31,0,0,0,14.131-2.972,45.362,45.362,0,0,0,19.778-17.4l1.537-2.357a41.3,41.3,0,0,1,8.163,5.085,37.734,37.734,0,0,1,3.419,3.113,36.135,36.135,0,0,1,2.9,3.51q.666.921,1.272,1.883c.393.648.759,1.314,1.109,1.992a35.047,35.047,0,0,1,1.83,4.234,34.685,34.685,0,0,1,1.213,4.6,32.819,32.819,0,0,1,.6,4.933c.083,1.7.052,3.377,0,5.047s-.17,3.354-.184,5.02c-.025,4.084-.225,8.179-.172,12.214a8.744,8.744,0,0,0,1.626,5.38,10.18,10.18,0,0,0,4.457,3.344,39.859,39.859,0,0,0,10.184,2.815,31.782,31.782,0,0,0,10.355-.354c3.957-.787,5.972-3.633,5.422-8.291a36.905,36.905,0,0,0-2.17-8.514c-3.754-9.6-9.977-17.6-16.805-24.776q-2.906-3.072-5.814-6.147c-1.981-2.009-3.93-4.015-5.983-5.9a168.98,168.98,0,0,0-13.7-11.265,40.288,40.288,0,0,0-5.484-3.05,41.446,41.446,0,0,0,1.815-21.369C691.782,257.333,692.205,257.625,692.59,257.966Zm-52.526-21.22a67.434,67.434,0,0,1-6.877,13.562,65.91,65.91,0,0,1-9.277,11.148,73.926,73.926,0,0,1-11.361,8.934,94.588,94.588,0,0,1-13.217,7.049,62.859,62.859,0,0,1-6,2.325,55.22,55.22,0,0,1-6.035,1.594,31.411,31.411,0,0,1-4.768.622,23.046,23.046,0,0,1-4.606-.18c-4.623-.694-7.368-3.283-8.574-8.02a22.2,22.2,0,0,1-.089-9.88,35.455,35.455,0,0,1,3.63-10.135,58.44,58.44,0,0,1,7.194-10.579,54.036,54.036,0,0,1,9.361-8.623,84.061,84.061,0,0,1,11.162-6.853,75.11,75.11,0,0,1,39.148-8c1.041.07,2.085.212,3.525.369a53.634,53.634,0,0,1-.949,8.683A50.618,50.618,0,0,1,640.064,236.746Zm-87.83-22.532A21.1,21.1,0,0,1,551,215.937a14.548,14.548,0,0,1-3.64,3.269,11.034,11.034,0,0,1-4.067,1.578,11.2,11.2,0,0,1-8.41-2.166,20.208,20.208,0,0,1-5.567-5.719,23.324,23.324,0,0,1-3.152-7.6,31.46,31.46,0,0,1,.823-17.319,32.956,32.956,0,0,1,5.333-10.611,28.072,28.072,0,0,1,14.2,5.435,23.6,23.6,0,0,1,4.607,4.682,22.4,22.4,0,0,1,2.985,5.4,24.28,24.28,0,0,1,1.529,11.41A22.474,22.474,0,0,1,552.234,214.214ZM655.467,296.4a21.035,21.035,0,0,1-8.321,1.195,7.6,7.6,0,0,1-2.515-.594,3.485,3.485,0,0,1-1.55-1.251c-.7-1.059-.713-2.564-.027-4.483a16.953,16.953,0,0,1,7.207-8.586,26.751,26.751,0,0,1,6.649-3.08,34.518,34.518,0,0,1,7.234-1.342,43.76,43.76,0,0,1,6.006-.111,47.193,47.193,0,0,1,6.385.8,43.261,43.261,0,0,1-9.091,10.842A35.6,35.6,0,0,1,655.467,296.4Z" fill="#ffffff"/><path d="M681.883,419.629a70.862,70.862,0,0,1,.16-20.822,49.884,49.884,0,0,1,2.109-8.419,47.83,47.83,0,0,1,3.49-7.835,54.076,54.076,0,0,1,4.819-7.342,69.129,69.129,0,0,1,6.1-6.9c1.444-1.435,2.982-2.8,4.549-4.128s3.152-2.612,4.741-3.9c3.735-3.034,7.623-5.915,11.412-8.945,1.324-1.061,2.616-2.178,4.5-2.065,2.182.129,3.026,1.252,2.45,3.482a19.417,19.417,0,0,1-1.351,3.4,50.32,50.32,0,0,0-4.842,28.028,53.275,53.275,0,0,0,2.592,9.515c.4,1.355.872,2.69,1.36,4.024s1,2.666,1.377,4.034a28.76,28.76,0,0,1,1.133,6.295,22.664,22.664,0,0,1-.48,5.909,19.289,19.289,0,0,1-2.158,5.4,20.779,20.779,0,0,1-1.7,2.471,22.652,22.652,0,0,1-2.167,2.308,58.8,58.8,0,0,1-8.779,6.81,56.649,56.649,0,0,1-9.855,4.942,21.256,21.256,0,0,1-5.129,1.268c-5.5.62-9.619-1.591-11.59-6.193a51.65,51.65,0,0,1-2.24-7.317A30.532,30.532,0,0,1,681.883,419.629Z" fill="#ffffff"/><path d="M766.461,389.106c1.68,10.418,1.672,20.888,1.2,31.214-.218,5.056-.566,10.1-.834,15.123-.249,4.028-2.359,5.959-5.97,4.384a16.44,16.44,0,0,1-3.985-2.56,108.8,108.8,0,0,1-9.671-9.24c-1.472-1.612-2.942-3.257-4.3-4.944q-1.023-1.265-1.989-2.56c-.647-.864-1.306-1.734-1.929-2.617a102.583,102.583,0,0,1-12.21-23.387c-3.842-10.361-3.647-20.337.933-30.348.96-2.08,2.02-4.087,3.169-6.081s2.362-3.968,3.5-5.936c1.765-3.018,4.3-3.764,7.539-1.954a43.817,43.817,0,0,1,8.381,6.07C759.185,364.682,764.365,376.256,766.461,389.106Z" fill="#ffffff"/><path d="M665.1,393.527l-14.52,2.57a11.251,11.251,0,0,1-3.116.076,5.442,5.442,0,0,1-3.136-1.288,3.5,3.5,0,0,1-1.192-2.679,15.944,15.944,0,0,1,.569-4,135.125,135.125,0,0,1,10.831-26.723,34.133,34.133,0,0,1,4.24-6.257,30.027,30.027,0,0,1,5.353-4.916,34.134,34.134,0,0,1,14.092-5.724,59.67,59.67,0,0,1,19.644.124c3.705.573,7.425,1.008,11.179,1.6a9.586,9.586,0,0,1,1.6.288c1.784.6,2.31,1.908,1.358,3.514a10.717,10.717,0,0,1-2.269,2.644,31.656,31.656,0,0,1-4.509,3.312,42.424,42.424,0,0,0-11.855,10.258,58.245,58.245,0,0,0-4.383,6.279q-.993,1.642-1.887,3.345c-.61,1.139-1.208,2.3-1.769,3.474a15.342,15.342,0,0,0-.622,1.406,14.314,14.314,0,0,1-4.115,6.033,20.747,20.747,0,0,1-6.463,3.739C671.237,391.7,668.232,392.529,665.1,393.527Z" fill="#ffffff"/></svg>
