<?xml version="1.0" encoding="utf-8"?>
<!-- Generator: Adobe Illustrator 23.0.3, SVG Export Plug-In . SVG Version: 6.00 Build 0)  -->
<svg version="1.1" id="Layer_1" xmlns="http://www.w3.org/2000/svg" xmlns:xlink="http://www.w3.org/1999/xlink" x="0px" y="0px"
	 viewBox="0 0 595.28 595.28" style="enable-background:new 0 0 595.28 595.28;" xml:space="preserve">
<style type="text/css">
	.st0{fill:#ffffff;}
	.st1{fill:#ffffff;}
	.st2{fill:#ffffff;}
	.st3{fill:#ffffff;}
</style>
<g>
	<path class="st3" d="M508.76,302.67l0.77-18.95l18.4,24.97c7.5,3.36,37.02,17.88,37.02,17.88s-33.44-57.44-54.16-62.87
		c-9.73-2.55-30-2.45-48.78-1.63c6.27-4.47,11.92-9.04,14.85-12.77c8.98-11.42,11.15-22.02,11.15-22.02l-26.6,4.8l28.18-16.96
		l10.27-43c0,0-44.18,23.94-53.75,33.81c-4.75,4.9-11.82,19.22-17.73,32.4c-1.71-13.3-5.71-28.77-14.67-40.48
		c-5.05-6.61-32.05-16.02-41.58-20.62c0,0-26.54-33.6-46.74-42.04c-7.1-2.96-26.52,3.49-48.72,13.1L271,127l31.47-3.5L292,105l41,4
		c9.11-3.75,41-29,41-29s-77.17-12.54-99,1c-10.25,6.36-31.64,32.63-46.42,49.63C230,111,223,86,223,86l-20.98,20.39l8.52-38.51
		l-28.91-44.42c0,0-15.65,58.18-14.97,74.64c0.34,8.17,6.95,26.14,13.53,42.16c-12.98-9.49-29.73-18.79-47.3-20.67
		c-38.2-4.08-102.55,46.72-102.55,46.72l43.18,5.08l29.64-16.75l-9.74,20.74c0,0,40.97,0.97,70.76,9.99
		c-22.33,4.37-55.51,13.03-81.18,28.95c-42.61,26.43-37.63,99.25-37.63,99.25l35.17-35.85l9.44-37.75l12.18,25.29l16.44-42.41
		l9.29,23.45l44.25-19.35c-7.52,13.52-13.31,32.57-5.06,53.54c15.97,40.57,45.13,55.97,45.13,55.97
		c-8.05-32.24-10.05-61.35-10.05-61.35l-16.96-21.46l16.49-0.07c2.24-9.1,6.79-18.18,11.52-25.89
		c26.86,51.99,81.85,178.21,63.21,310.51c-38.5,3.29-96.31,13.83-136.92,33.6h330.6c-27.94-13.59-68.56-20.61-104.07-27.02
		c-4.28-106.14,22.13-190.29,40.26-234.67c7,14.39,15.08,30.57,20.04,39.05l19.32-2.92l-16.73,14.37c0,0,13.38,30.44,14.23,62.98
		c0,0,20.98-38.2,21.64-59.77c0.38-12.28-6.09-30.22-11.74-43.42l27.81,18.47l12.52-2.11l-3.51,16.44l35.17,36.35
		c0,0-3.66-49.24-10.16-66.31c-2.29-6-17.34-14.04-35.91-21.95l9.48-19.33L508.76,302.67z M319.42,165.05l11.4,16.62l44.64,18.32
		l-18.14,6.02c0,0,17.76,15.53,27.83,40.21c-8.13-5.84-43-29-43-29s-54.27-18.58-80.91-28.18l49.67-11.37L319.42,165.05z
		 M324.3,520.53c-7.53-57.48-29.85-184.97-88.82-295.86c13.51,2.26,27.35,4.39,35.51,5.15l8.81-17.25l1.91,21.79
		c0,0,7.01,1.48,17.2,4.9c-17.25,9.07-29.61,22.51-29.61,22.51l35.76,0.59l20.85-11.78c0.71,0.37,1.43,0.74,2.15,1.13l-5.96,15.72
		l29.96-12.31l-7.55,16.3l23.57,9.94c-13.8,4.73-44.94,18.76-48.91,49.88c-5.13,40.16,11,63,11,63c5-28,21-56,21-56l0.35-21.61
		l13.45,7.31c7.42-8.08,17.84-14.49,26.51-18.93C353.18,380.28,332.14,478.21,324.3,520.53z"/>
	<path class="st2" d="M416.22,355.69l-1.89,1.62l3.58,8.14c0.12,0.27,12.44,28.8,13.22,58.47l0.69,26.16
		c-16.14,7.91-33.43,13.81-51.57,17.39c5.15-52.45,16.86-96.17,27.57-127.32c3.32,6.45,6.03,11.48,8.13,15.07L416.22,355.69z
		 M476.47,357.05c0.27,2.55,0.36,4.93,0.3,7.15c-0.73,23.77-20.83,61.01-23.12,65.18l-6.94,12.64
		c23.41-13.92,43.9-32.23,60.31-53.82l-25.78-26.64l-4.45-4.6L476.47,357.05z M267.44,458.94c-4.85-83.62-33.21-158.61-53.91-203.25
		c-0.07,0.26-0.13,0.51-0.2,0.77l-2.24,9.1l-1.21,0l1.68,2.12l2.3,2.91l0.26,3.7c0.02,0.28,2.04,28.52,9.72,59.27l6.51,26.06
		l-23.76-12.55c-1.35-0.71-33.29-17.98-50.69-62.19c-4.58-11.63-5.92-23.76-4.06-35.97l-19.16,8.38l-4.17,1.82
		c0,0.55-0.02,1.1-0.02,1.65C128.5,351.94,186.4,429.58,267.44,458.94z M526.95,321.45c2.05,6.31,3.78,15.03,5.21,24.1
		c2.61-5.94,4.96-12.02,7.03-18.23C534.66,325.14,530.24,323.01,526.95,321.45z M511.55,174.91l-8.96,37.54l0.76-0.14l-3.57,17.38
		c-0.23,1.12-2.13,9.63-8.53,19.96c9.94,0.27,17.37,1.07,22.58,2.44c6.58,1.72,17.16,6.77,35.07,29.5
		c0.67-6.85,1.02-13.78,1.02-20.81c0-41.12-11.79-79.48-32.16-111.91L511.55,174.91z M326.26,192.77l-3.31-1.36l-2.03-2.95
		l-1.41-2.06l-1.29,1.92l-4.62,1.06l-9.25,2.12c11.31,3.93,22.18,7.68,29.98,10.36l-0.7-0.61l7.33-2.44L326.26,192.77z
		 M234.56,82.76c0.16,0.58,2.21,7.98,3.91,17.98C251.3,86,261.31,75.37,268.67,70.8c8.78-5.44,23.16-8.09,43.98-8.09
		c29.43,0,61.9,5.22,63.27,5.44l26.85,4.36l-21.32,16.89c-7.79,6.17-33.97,25.89-43.87,29.96l-2.76,1.13l-2.97-0.29l-18.03-1.03
		l2.04,3.6c2.03-0.25,5.21,0.01,6.58,0.01c3.5,0,7.79,1.53,10.45,2.64c19.88,8.3,39.87,33.57,46.83,42.07
		c2.24,0.98,5.11,2.17,8.1,3.4c18.01,7.44,30.21,12.82,35.44,19.66c3.3,4.31,6.16,9.17,8.58,14.56c2.51-3.99,4.31-6.13,5.67-7.54
		c10.32-10.65,49-31.86,56.64-36l23.57-12.77c-37.28-59.31-103.29-98.74-178.51-98.74c-38.58,0-74.73,10.38-105.84,28.48
		L234.56,82.76z M310.79,389.59c6.25,23.82,11.22,46.31,15.15,66.54c2.66-10.83,5.67-22.36,9.02-34.28l-14.62-20.7
		c-0.77-1.09-18.76-27.17-13.1-71.44c2.93-22.93,17.45-38.01,31.9-47.53l-10.57-4.45l-1.94,0.79l-25.59,10.51l5.55-14.65l-1.75-0.03
		l-32.88-0.54C286.89,309.32,299.88,348.05,310.79,389.59z M270.31,241.81l-0.44-0.04c-3.34-0.31-7.71-0.85-13.08-1.61
		c1.85,3.83,3.68,7.7,5.49,11.61c1.7-1.7,4.53-4.42,8.25-7.56L270.31,241.81z"/>
</g>
</svg>
