<svg version="1.1" id="Layer_1" xmlns="http://www.w3.org/2000/svg" x="0" y="0" viewBox="0 0 595.28 595.28" xml:space="preserve"><style></style><g fill="#fff"><path d="M508.76 302.67l.77-18.95 18.4 24.97c7.5 3.36 37.02 17.88 37.02 17.88s-33.44-57.44-54.16-62.87c-9.73-2.55-30-2.45-48.78-1.63 6.27-4.47 11.92-9.04 14.85-12.77 8.98-11.42 11.15-22.02 11.15-22.02l-26.6 4.8 28.18-16.96 10.27-43s-44.18 23.94-53.75 33.81c-4.75 4.9-11.82 19.22-17.73 32.4-1.71-13.3-5.71-28.77-14.67-40.48-5.05-6.61-32.05-16.02-41.58-20.62 0 0-26.54-33.6-46.74-42.04-7.1-2.96-26.52 3.49-48.72 13.1L271 127l31.47-3.5L292 105l41 4c9.11-3.75 41-29 41-29s-77.17-12.54-99 1c-10.25 6.36-31.64 32.63-46.42 49.63C230 111 223 86 223 86l-20.98 20.39 8.52-38.51-28.91-44.42s-15.65 58.18-14.97 74.64c.34 8.17 6.95 26.14 13.53 42.16-12.98-9.49-29.73-18.79-47.3-20.67-38.2-4.08-102.55 46.72-102.55 46.72l43.18 5.08 29.64-16.75-9.74 20.74s40.97.97 70.76 9.99c-22.33 4.37-55.51 13.03-81.18 28.95-42.61 26.43-37.63 99.25-37.63 99.25l35.17-35.85 9.44-37.75 12.18 25.29 16.44-42.41 9.29 23.45 44.25-19.35c-7.52 13.52-13.31 32.57-5.06 53.54 15.97 40.57 45.13 55.97 45.13 55.97-8.05-32.24-10.05-61.35-10.05-61.35l-16.96-21.46 16.49-.07c2.24-9.1 6.79-18.18 11.52-25.89 26.86 51.99 81.85 178.21 63.21 310.51-38.5 3.29-96.31 13.83-136.92 33.6h330.6c-27.94-13.59-68.56-20.61-104.07-27.02-4.28-106.14 22.13-190.29 40.26-234.67 7 14.39 15.08 30.57 20.04 39.05l19.32-2.92-16.73 14.37s13.38 30.44 14.23 62.98c0 0 20.98-38.2 21.64-59.77.38-12.28-6.09-30.22-11.74-43.42l27.81 18.47 12.52-2.11-3.51 16.44 35.17 36.35s-3.66-49.24-10.16-66.31c-2.29-6-17.34-14.04-35.91-21.95l9.48-19.33 20.31 20.71zM319.42 165.05l11.4 16.62 44.64 18.32-18.14 6.02s17.76 15.53 27.83 40.21c-8.13-5.84-43-29-43-29s-54.27-18.58-80.91-28.18l49.67-11.37 8.51-12.62zm4.88 355.48c-7.53-57.48-29.85-184.97-88.82-295.86 13.51 2.26 27.35 4.39 35.51 5.15l8.81-17.25 1.91 21.79s7.01 1.48 17.2 4.9c-17.25 9.07-29.61 22.51-29.61 22.51l35.76.59 20.85-11.78c.71.37 1.43.74 2.15 1.13l-5.96 15.72 29.96-12.31-7.55 16.3 23.57 9.94c-13.8 4.73-44.94 18.76-48.91 49.88-5.13 40.16 11 63 11 63 5-28 21-56 21-56l.35-21.61 13.45 7.31c7.42-8.08 17.84-14.49 26.51-18.93-38.3 75.27-59.34 173.2-67.18 215.52z"/><path d="M416.22 355.69l-1.89 1.62 3.58 8.14c.12.27 12.44 28.8 13.22 58.47l.69 26.16a209.078 209.078 0 01-51.57 17.39c5.15-52.45 16.86-96.17 27.57-127.32 3.32 6.45 6.03 11.48 8.13 15.07l.27.47zm60.25 1.36c.27 2.55.36 4.93.3 7.15-.73 23.77-20.83 61.01-23.12 65.18l-6.94 12.64a211.7 211.7 0 0060.31-53.82l-25.78-26.64-4.45-4.6-.32.09zM267.44 458.94c-4.85-83.62-33.21-158.61-53.91-203.25-.07.26-.13.51-.2.77l-2.24 9.1h-1.21l1.68 2.12 2.3 2.91.26 3.7c.02.28 2.04 28.52 9.72 59.27l6.51 26.06-23.76-12.55c-1.35-.71-33.29-17.98-50.69-62.19-4.58-11.63-5.92-23.76-4.06-35.97l-19.16 8.38-4.17 1.82c0 .55-.02 1.1-.02 1.65.01 91.18 57.91 168.82 138.95 198.18zm259.51-137.49c2.05 6.31 3.78 15.03 5.21 24.1a211.85 211.85 0 007.03-18.23c-4.53-2.18-8.95-4.31-12.24-5.87zm-15.4-146.54l-8.96 37.54.76-.14-3.57 17.38c-.23 1.12-2.13 9.63-8.53 19.96 9.94.27 17.37 1.07 22.58 2.44 6.58 1.72 17.16 6.77 35.07 29.5.67-6.85 1.02-13.78 1.02-20.81 0-41.12-11.79-79.48-32.16-111.91l-6.21 26.04zm-185.29 17.86l-3.31-1.36-2.03-2.95-1.41-2.06-1.29 1.92-4.62 1.06-9.25 2.12c11.31 3.93 22.18 7.68 29.98 10.36l-.7-.61 7.33-2.44-14.7-6.04zm-91.7-110.01c.16.58 2.21 7.98 3.91 17.98C251.3 86 261.31 75.37 268.67 70.8c8.78-5.44 23.16-8.09 43.98-8.09 29.43 0 61.9 5.22 63.27 5.44l26.85 4.36-21.32 16.89c-7.79 6.17-33.97 25.89-43.87 29.96l-2.76 1.13-2.97-.29-18.03-1.03 2.04 3.6c2.03-.25 5.21.01 6.58.01 3.5 0 7.79 1.53 10.45 2.64 19.88 8.3 39.87 33.57 46.83 42.07 2.24.98 5.11 2.17 8.1 3.4 18.01 7.44 30.21 12.82 35.44 19.66 3.3 4.31 6.16 9.17 8.58 14.56 2.51-3.99 4.31-6.13 5.67-7.54 10.32-10.65 49-31.86 56.64-36l23.57-12.77c-37.28-59.31-103.29-98.74-178.51-98.74-38.58 0-74.73 10.38-105.84 28.48l1.19 4.22zm76.23 306.83c6.25 23.82 11.22 46.31 15.15 66.54 2.66-10.83 5.67-22.36 9.02-34.28l-14.62-20.7c-.77-1.09-18.76-27.17-13.1-71.44 2.93-22.93 17.45-38.01 31.9-47.53l-10.57-4.45-1.94.79-25.59 10.51 5.55-14.65-1.75-.03-32.88-.54c14.93 35.51 27.92 74.24 38.83 115.78zm-40.48-147.78l-.44-.04c-3.34-.31-7.71-.85-13.08-1.61 1.85 3.83 3.68 7.7 5.49 11.61 1.7-1.7 4.53-4.42 8.25-7.56l-.22-2.4z"/></g></svg>
