<svg version="1.1" id="Calque_1" xmlns="http://www.w3.org/2000/svg" x="0" y="0" viewBox="0 0 432 432" xml:space="preserve"><style>path{fill:#fff}</style><path class="st60" d="M226.4 107.6c0-.6 0-1.1-.1-1.7 0-.1-.1-.2-.1-.3-.3-.4-.6-.7-1-1.1-.1-.1-.2-.2-.2-.3-.1-.1-.1-.2 0-.4.1-.1.2-.1.3-.1.1.1.3.2.4.2l.6.6v-.2c0-.4 0-.8.1-1.2 0-.2.1-.4.2-.6.2-.4.6-.4.8 0 .2.4.3.8.4 1.3 0 .3.1.6.1.9l.3-.3c.2-.3.5-.5.7-.8.1-.1.2-.2.3-.2.1-.1.2 0 .3.1.1.1.1.2.1.3 0 .1-.1.2-.2.3-.4.5-.9 1-1.3 1.5-.1.1-.2.2-.1.3 0 .7.1 1.3.1 2v.2l.3-.3c.6-.6 1.2-1.3 1.7-1.9l.2-.2c.2-.1.3-.1.5 0 .1.1.1.3 0 .5 0 .1-.1.1-.1.2-.7.9-1.5 1.8-2.4 2.6-.1.1-.2.2-.2.4.1 1.4.1 2.8.2 4.1v.2c.1-.1.1-.2.2-.2 1.3-2.2 2.7-4.5 3.8-6.8.2-.5.5-.9.8-1.3.3-.4.6-.7 1.1-.8 1.1-.3 2.3-.6 3.4-.9.3-.1.6-.1 1-.1.2 0 .3.1.4.3.2 1.1.1 2.1 0 3.2-.1.7-.2 1.3-.2 2 0 .4-.2.8-.6 1.1l-.9.6c-2.1 1.4-4.3 2.9-6.4 4.3-.4.2-.7.5-1.1.7-.2.1-.4.3-.5.5h.3c2.9-.1 5.9-.2 8.8-.3.2 0 .3-.1.4-.2.4-.6.9-1.1 1.3-1.7l.3-.3c.1-.1.2-.1.4 0 .1.1.2.2.2.3 0 .1-.1.3-.2.4-.2.3-.5.6-.7.9-.1.2-.2.3-.4.5h1.2c.1 0 .2-.1.2-.2l.9-.9c.1-.1.3-.2.4-.3.1-.1.3-.1.4 0 .1.1.1.3 0 .4-.1.2-.3.3-.4.5-.1.2-.3.3-.5.5h1.8c.4 0 .8.5.7.9 0 .2-.2.4-.4.5-.4.1-.7.2-1.1.2h-.8c.2.2.3.4.5.5.2.2.4.4.6.5.1.1.2.2.1.4s-.3.3-.5.2c-.3-.2-.6-.3-.8-.5-.4-.3-.7-.6-1-.9-.1-.1-.2-.2-.4-.2h-.9c.1.1.2.2.2.3.4.4.8.8 1.2 1.3l.4.4c.1.2.1.3 0 .5-.1.1-.3.1-.4 0-.2-.1-.3-.2-.4-.3l-1.9-1.9c-.1-.1-.2-.2-.4-.2-2.6.1-5.2.2-7.9.3h-.3c.1.1.2.1.2.1 2.2 1.1 4.5 2.2 6.8 3.1.7.3 1.5.5 2.2.8.4.1.7.3 1 .4.3.1.5.4.5.7.2 1.3.3 2.7.3 4.1v.3c.1.6-.3 1-.8 1-.3 0-.5-.1-.8-.1-.4-.1-.8-.1-1.2-.1-.9-.1-1.8-.3-2.7-.4-.4-.1-.7-.2-.9-.5-.5-.6-1.1-1.3-1.6-1.9-1-1.3-1.9-2.5-2.8-3.8-.5-.7-1-1.4-1.6-2.1l-.2-.2c-.1.1-.1.2-.1.3.1 1.4.1 2.8.2 4.2v.9c0 .2.1.3.2.4 1.1.7 2.1 1.6 3.2 2.5l.4.4c.1.2.1.3 0 .5-.1.1-.3.2-.5.1s-.3-.2-.5-.3c-.8-.6-1.6-1.3-2.4-1.9-.1-.1-.2-.1-.4-.3v.6c0 .3 0 .6.1.8.1.2.4.4.6.6.4.4.8.9 1.3 1.3.1.1.2.2.2.3.1.2.1.4 0 .5-.1.1-.3.1-.5 0l-.3-.3-.9-.9-.2-.2V130.5c0 .2 0 .3-.1.5-.1.4-.4.6-.8.6-.3 0-.7-.2-.8-.5-.1-.2-.1-.4-.1-.5 0-.5 0-1-.1-1.4v-.4c-.1.1-.2.1-.2.2-.3.4-.7.7-1 1.1-.1.1-.2.2-.3.2-.1.1-.2.1-.3 0-.1-.1-.1-.2 0-.3.1-.2.2-.4.4-.5l1.2-1.5c.2-.2.2-.4.2-.6v-.7c-.1.1-.2.1-.3.2-.7.6-1.4 1.1-2.2 1.7-.2.1-.3.2-.5.3-.1.1-.3.1-.4-.1-.1-.1-.1-.3 0-.4l.3-.3c.3-.3.6-.5.9-.8.6-.5 1.2-1.1 1.8-1.6.1-.1.2-.2.2-.4-.1-1.8-.1-3.6-.2-5.4v-.3c-.1.1-.1.2-.1.2-.4.7-.7 1.4-1.1 2.1-.7 1.4-1.4 2.8-2.2 4.2-.6 1.1-1.2 2.1-1.7 3.2-.2.4-.5.6-.9.6-.8.1-1.6.3-2.4.4-.3 0-.5.1-.8.1-.2 0-.4.1-.6.1-.6.2-1.1-.1-1.2-.7v-1.1l.3-3.3c0-.3.2-.5.4-.7l.2-.2c2.1-1.6 4.2-3.3 6.2-5 .4-.3.8-.7 1.2-1l.2-.2h-.3c-1.9.1-3.7.1-5.6.2-.2 0-.3.1-.4.2-.6.8-1.2 1.5-1.8 2.2l-.3.3c-.1.1-.2 0-.4 0-.1-.1-.2-.2-.1-.4s.1-.3.2-.4l1.2-1.5.3-.3h-2c-.2 0-.3.1-.4.2l-.6.9c-.1.2-.2.3-.4.5s-.3.2-.5.1c-.1-.1-.2-.3 0-.5l.6-.9c0-.1.1-.1.1-.2h-.3c-.5 0-1-.1-1.4-.1-.2 0-.4-.1-.6-.1-.2-.1-.4-.1-.4-.4 0-.2.2-.3.4-.4.4-.1.7-.2 1.1-.3.3-.1.5-.1.8-.1l-.2-.2c-.2-.2-.4-.4-.6-.5l-.2-.2c-.1-.2-.1-.4 0-.5.1-.1.3-.1.5 0 .3.3.7.5 1 .8.4.4.7.5 1.3.5.4-.1.9-.1 1.3-.1h.2c-.1-.1-.2-.2-.3-.2-.5-.5-1.1-.9-1.6-1.4l-.3-.3c-.1-.1-.1-.3 0-.4.1-.1.2-.1.3 0 .2.1.4.3.6.4.8.6 1.5 1.2 2.3 1.8.1.1.2.1.4.1 2.3-.1 4.6-.2 6.9-.2h.3c-.1-.1-.2-.1-.3-.1-2-.8-4-1.5-5.9-2.4-.8-.3-1.6-.7-2.4-1.1-.3-.2-.6-.4-.7-.8-.6-1.6-1.1-3.1-1.6-4.7-.1-.2-.1-.4-.1-.6-.1-.3 0-.6.4-.6.4-.1.7-.1 1.1 0 .7.1 1.3.3 2 .5 1.1.3 2.1.7 3.1 1 .3.1.6.3.8.6.3.4.6.9.9 1.4 1 1.5 1.9 3 2.9 4.4.2.3.3.5.5.8.1.2.2.3.4.4v-.2c-.1-1.8-.2-3.7-.2-5.5 0-.2-.1-.3-.2-.4-.6-.6-1.2-1.3-1.8-1.9l-.2-.2c-.2-.2-.2-.4-.1-.6.1-.1.3-.1.6 0 .2.1.3.3.5.4l.9.9.2.2c.2-.8.3-.8.3-.8zm14 18.8v-.1c-.1-.9-.2-1.8-.2-2.7 0-.5-.3-.7-.7-.8-.7-.2-1.4-.4-2.1-.7-1.3-.5-2.7-1.1-4-1.7-.1 0-.2-.1-.3-.1v.1c2.4 1.9 4.9 4 7.3 6zm-8.8-13.1c.1 0 .1 0 0 0h.2c1.7-1.1 3.4-2.3 5.1-3.4.2-.2.5-.3.7-.5.2-.1.3-.3.3-.6.1-1 .2-2 .3-3.1v-.5c-2.1 2.8-4.3 5.4-6.6 8.1zm-15.9-5.3c0 .2.1.3.1.4.2.7.5 1.4.7 2.1.1.4.3.7.4 1.1.1.2.2.3.4.4.8.4 1.5.7 2.3 1.1 1.2.5 2.3.9 3.5 1.4h.2c-2.5-2.2-5-4.4-7.6-6.5zm15.2 12.8c0 .1 0 .2.1.2 1 1.5 2.2 3 3.3 4.5.3.4.7.8 1 1.3.1.2.3.3.5.3.9.1 1.8.3 2.7.4h.3v-.1c-2.6-2.2-5.2-4.4-7.9-6.6zm-14.3 7.3c2.5-2.9 5-5.8 7.5-8.8-.1 0-.2.1-.3.1-.8.7-1.7 1.5-2.6 2.2-1.4 1.1-2.8 2.1-4.1 3.2-.1.1-.3.2-.3.4-.1.8-.2 1.7-.2 2.5v.4zm1.5 1.1h.2c.8-.1 1.6-.3 2.4-.4.2 0 .2-.1.3-.2.6-1.1 1.1-2.2 1.7-3.2.6-1.1 1.1-2.2 1.6-3.3 0 0 0-.1.1-.1-2.1 2.3-4.2 4.7-6.3 7.2zm12.3-17.2s.1 0 0 0c2.3-2.5 4.4-5.1 6.7-7.5-.9.2-1.7.5-2.5.7-.4.1-.7.4-.9.7-.3.6-.6 1.1-.9 1.7-.7 1.4-1.5 2.8-2.3 4.2 0 0 0 .1-.1.2zm-13.5-5.2c0 .1-.1.1 0 0l7.2 6c0-.2-.1-.3-.2-.4-.6-1-1.2-1.9-1.8-2.9-.2-.3-.5-.7-.7-1-.1-.2-.3-.3-.5-.4-1.3-.4-2.5-.8-3.8-1.2-.1 0-.2 0-.2-.1zM337.8 235.7c.5-.1 1-.3 1.6-.4.1 0 .2-.1.2-.2.3-.4.5-.8.8-1.2.1-.1.1-.2.2-.3.1-.1.2-.1.3-.1.1.1.2.2.2.3 0 .1-.1.3-.2.4-.1.2-.3.4-.4.7h.2c.4-.1.8-.2 1.2-.2h.6c.4.1.5.5.2.8-.3.3-.7.5-1.1.7-.3.1-.5.2-.8.3.1.1.2.1.3.2.3.2.6.3.9.5l.3.3c.1.1.1.2 0 .3-.1.1-.2.2-.3.1-.1 0-.2-.1-.3-.1-.6-.3-1.2-.6-1.7-.9-.1-.1-.2-.1-.3-.1l-1.8.6s-.1 0-.1.1c.1.1.2.1.3.2.7.4 1.5.8 2.2 1.2.1 0 .1.1.2.1.2.1.2.3.1.4-.1.1-.2.2-.4.1-.1 0-.1-.1-.2-.1-1.1-.5-2.1-1-3.1-1.6-.1-.1-.3-.1-.4-.1l-3.9 1.2c-.1 0-.1 0-.2.1.1 0 .2.1.3.1 2.5.7 4.9 1.5 7.4 2 .5.1 1 .3 1.5.4.5.1.8.4 1.1.8.6 1 1.1 2 1.7 3 .2.3.2.6.4.9.1.2 0 .3-.2.4-1 .4-2 .6-3 .8-.6.1-1.3.2-2 .3-.4.1-.8 0-1.1-.3-.3-.2-.6-.5-.8-.7-1.9-1.7-3.7-3.4-5.6-5.1l-.9-.9c-.2-.2-.4-.3-.6-.4v.3c.8 2.8 1.6 5.5 2.4 8.3 0 .2.1.3.3.3.6.3 1.3.6 1.9.9.1.1.2.1.3.2.1.1.2.2.1.3 0 .1-.2.2-.3.2-.1 0-.3 0-.4-.1-.4-.1-.7-.3-1-.4l-.6-.3c.1.4.2.8.3 1.1 0 .1.1.1.2.2.4.2.7.4 1.1.6.1.1.3.2.4.3.1.1.2.2.1.4-.1.1-.2.2-.4.1l-.6-.3c-.2-.1-.3-.2-.6-.3 0 .2 0 .2.1.3.1.5.3.9.4 1.4.1.4-.3.9-.7.9-.2 0-.4-.1-.5-.3-.2-.3-.4-.6-.5-1-.1-.2-.1-.5-.2-.8-.2.2-.3.4-.4.6-.1.2-.2.4-.4.7-.1.1-.2.2-.3.2-.2 0-.4-.2-.3-.4l.3-.9.6-1.2c.1-.1.1-.3.1-.4-.1-.3-.2-.5-.3-.9-.1.1-.2.2-.2.3l-.9 1.5c-.1.2-.2.3-.3.4-.1.2-.3.2-.4.1-.1-.1-.2-.2-.1-.4 0-.2.1-.3.2-.5.5-.8.9-1.5 1.4-2.2.1-.1.1-.2.1-.4-.7-2.5-1.4-5-2.1-7.4 0-.1-.1-.1-.1-.2 0 .1-.1.2-.1.2-.6 2.4-1 4.8-1.3 7.2-.1.8-.1 1.5-.2 2.3 0 .4-.1.7-.1 1.1-.1.3-.2.5-.6.7-1.2.5-2.5 1-3.8 1.3-.1 0-.2.1-.3.1-.5.2-1 0-1.1-.6-.1-.2-.1-.5-.1-.8 0-.4-.1-.8-.1-1.2-.1-.9-.2-1.8-.2-2.7 0-.4.1-.7.3-1 .5-.7 1-1.3 1.5-2 1-1.2 2-2.4 2.9-3.6.5-.7 1.1-1.3 1.6-2l.2-.2c-.1-.1-.2 0-.3 0-1.3.4-2.6.8-4 1.2l-.9.3c-.2 0-.3.1-.3.3-.4 1.2-1 2.4-1.6 3.6-.1.1-.2.3-.3.4-.1.2-.3.2-.5.1s-.2-.2-.2-.4c.1-.2.1-.3.2-.5l1.2-2.7c0-.1.1-.2.2-.4-.2.1-.4.1-.6.2-.3.1-.6.1-.8.3-.2.2-.3.5-.4.7l-.9 1.5c-.1.1-.1.2-.2.3-.2.2-.3.2-.5.1s-.2-.3-.1-.5c.1-.1.1-.3.2-.4.2-.4.4-.7.7-1.1 0-.1.1-.2.1-.3-.1 0-.2.1-.3.1l-1.2.3c-.2 0-.3.1-.5.1-.4 0-.7-.3-.7-.6-.1-.3 0-.7.3-.9.1-.1.3-.2.5-.2.4-.1.9-.3 1.4-.4.1 0 .2-.1.4-.1-.1-.1-.2-.1-.2-.2-.4-.2-.9-.5-1.3-.7-.1-.1-.2-.1-.3-.2-.1-.1-.1-.2-.1-.3.1-.1.2-.1.3-.1.2.1.4.1.6.2.6.3 1.1.5 1.7.8.2.1.4.1.6 0 .2-.1.4-.1.6-.2-.1-.1-.2-.2-.3-.2-.7-.6-1.4-1.1-2.1-1.7-.2-.1-.3-.3-.4-.4-.1-.1-.1-.2 0-.4.1-.1.2-.1.4-.1.1.1.2.1.3.2.3.2.6.5 1 .7.6.5 1.3.9 1.9 1.4.1.1.3.1.5.1l5.1-1.5c.1 0 .1 0 .3-.1-.1 0-.2-.1-.3-.1-.7-.2-1.5-.4-2.2-.5-1.5-.4-3-.7-4.5-1.1-1.2-.3-2.3-.6-3.5-.9-.4-.1-.7-.3-.8-.7l-.9-2.1c-.1-.2-.2-.5-.3-.7-.1-.2-.2-.4-.3-.5-.3-.5-.1-1.1.4-1.3.3-.1.7-.2 1-.3 1.1-.2 2.1-.3 3.2-.5.3 0 .5 0 .8.2.1.1.2.1.2.2 2 1.7 4.1 3.2 6.2 4.7l1.2.9c.1 0 .1.1.2.2v-.3c-.5-1.8-1-3.5-1.5-5.3 0-.2-.1-.3-.3-.3-.9-.4-1.7-.8-2.6-1.2l-.3-.3c-.1-.1-.1-.2-.1-.3.1-.1.2-.2.3-.2.2 0 .3.1.5.1.6.3 1.2.5 1.7.8.1.1.2.1.4.2v-.2c-.1-.6-.3-1.1-.4-1.7 0-.2-.1-.3-.3-.3-.3-.1-.7-.3-1-.4-.2-.1-.4-.2-.5-.3-.2-.1-.3-.3-.2-.4.1-.1.2-.2.4-.2.3.1.7.2 1 .3.1 0 .2 0 .3.1v-.3c-.1-.5-.2-.9-.2-1.4v-.6c0-.2 0-.4.3-.5.2-.1.4.1.5.3.2.3.4.7.5 1 .1.2.2.5.3.8.1-.1.1-.1.1-.2.1-.2.2-.5.4-.7 0-.1.1-.1.1-.2.1-.2.3-.2.5-.1s.2.2.1.5c-.2.4-.3.8-.6 1.2-.3.4-.3.8-.1 1.3.2.4.3.8.4 1.2 0 0 0 .1.1.2.1-.1.1-.2.2-.3.3-.6.6-1.2.9-1.9l.3-.3c.1-.1.2-.2.4-.1.1.1.1.2.1.3l-.3.6c-.4.9-.8 1.7-1.1 2.6-.1.1-.1.3 0 .4.6 2.2 1.3 4.4 1.9 6.5 0 .1 0 .1.1.2 0-.1.1-.2.1-.3.3-2.1.5-4.1.8-6.2.1-.9.3-1.7.5-2.5.1-.4.3-.6.6-.9 1.3-.9 2.7-1.8 4.1-2.6.2-.1.3-.2.5-.3.3-.2.5-.1.7.2.2.3.3.7.3 1v2c0 1.1-.1 2.1-.2 3.2 0 .3-.1.6-.4.9-.4.4-.7.8-1.1 1.2-1.2 1.3-2.4 2.5-3.5 3.8-.2.2-.4.4-.6.7-.1.1-.2.3-.3.5h.2c1.7-.5 3.5-1 5.2-1.5.2 0 .3-.1.3-.3.5-.7.9-1.5 1.4-2.2 0-.1.1-.1.1-.2.2-.3.4-.3.5-.2.2.1.2.3.1.6l-.3.6c-.2.4-.4.7-.6 1.1-.6.2-.7.2-.7.4 0-.1 0 0 0 0zm-14.5 17.9h.1c.9-.3 1.7-.6 2.6-.9.5-.1.6-.4.6-.9 0-.7.1-1.5.2-2.2l.6-4.2v-.3h-.1c-1.3 2.8-2.6 5.6-4 8.5zm10.4-11.6c0 .1 0 .1 0 0 0 .1 0 .1.1.1 1.5 1.4 3 2.7 4.5 4.1.2.2.4.4.6.5.2.2.4.2.6.2 1-.2 2-.3 3-.4.1 0 .3-.1.5-.1-3.3-1.3-6.3-2.9-9.3-4.4zm1.2-16.4c-.1.1-.2.1-.3.2l-1.8 1.2c-.3.2-.6.4-1 .7-.2.1-.3.3-.3.5-.2.8-.3 1.6-.5 2.5-.2 1.2-.3 2.5-.5 3.7v.2c1.6-3.1 3-6 4.4-9zm-8.5 17.6c0-.1 0-.1 0 0-.1 0-.1.1-.2.1-1.2 1.4-2.3 2.8-3.5 4.2-.3.4-.6.9-1 1.3-.1.2-.2.4-.2.6l.3 2.7c0 .1 0 .2.1.3h.1c1.5-3.1 2.9-6.2 4.4-9.2zM316 231.3c3.4 1.7 6.8 3.3 10.1 5 0-.1-.1-.2-.2-.2-.9-.6-1.8-1.2-2.7-1.9-1.4-1-2.7-2.1-4-3.2-.1-.1-.3-.2-.5-.2-.8.1-1.6.2-2.5.4 0 .1-.1.1-.2.1zm-.7 1.6c0 .1 0 .2.1.2.3.7.7 1.5 1 2.2.1.1.2.2.3.2 1.2.3 2.3.6 3.5.8 1.2.3 2.4.5 3.5.8h.1c-2.8-1.3-5.6-2.7-8.5-4.2zm19.3 7.7c2.9 1.5 5.9 3 8.8 4.6-.4-.8-.8-1.5-1.3-2.2-.2-.4-.5-.6-.9-.7-.6-.1-1.2-.3-1.8-.4-1.5-.3-3-.7-4.5-1.2-.1-.1-.2-.1-.3-.1zm1.7-14.1s0-.1 0 0c-1.3 2.8-2.7 5.5-4 8.3l.3-.3c.8-.8 1.6-1.6 2.3-2.5.3-.3.5-.6.8-.9.2-.2.2-.4.2-.6l.3-3.9c.1 0 .1-.1.1-.1zM106.1 231.2c-.2-.9-.5-1.8-.7-2.7 0-.1-.2-.3-.3-.4-.7-.5-1.4-1-2-1.5-.2-.1-.3-.3-.5-.4-.2-.2-.2-.4-.1-.6.1-.2.3-.3.5-.3.2.1.5.2.7.3.4.2.8.5 1.2.7v-.4l-.3-2.1c0-.4 0-.8.1-1.1.2-.7.8-.9 1.3-.4.6.5.8 1.2 1.1 1.9.2.4.3.9.5 1.4.1-.2.2-.4.3-.5.3-.5.6-1.1.9-1.6.1-.2.3-.4.5-.5.2-.2.4-.2.6 0 .2.1.3.3.2.5 0 .2-.1.4-.2.6-.5 1-1.1 2-1.6 3-.1.2-.2.4-.1.6.3 1.1.6 2.1 1 3.2 0 .1.1.1.1.3.1-.2.2-.4.3-.5.7-1.3 1.4-2.5 2.2-3.8.1-.1.1-.2.2-.4.2-.3.5-.4.7-.2.2.1.3.4.2.7 0 .1-.1.2-.1.3-.8 1.8-1.8 3.6-2.9 5.3-.2.2-.2.5-.1.7.6 2.3 1.2 4.5 1.9 6.8 0 .1.1.2.1.4.1-.2.1-.3.2-.4 1.4-4.2 2.7-8.5 3.7-12.8.2-.8.5-1.7.7-2.5.3-.8.7-1.4 1.5-1.8 1.8-.9 3.5-1.9 5.3-2.8.5-.3 1-.4 1.5-.6.3-.1.6 0 .7.4.7 1.7 1 3.5 1.2 5.3.1 1.1.3 2.3.4 3.4.1.8-.1 1.4-.6 2-.4.5-.8.9-1.2 1.4l-9 9.6c-.5.5-1 1.1-1.6 1.6-.3.3-.5.6-.6 1.1.2 0 .3 0 .4-.1 4.8-1.3 9.7-2.5 14.5-3.8.3-.1.5-.2.6-.5.5-1.1 1-2.2 1.6-3.3l.3-.6c.1-.2.3-.3.6-.2.2.1.4.3.4.5s0 .5-.1.7c-.2.6-.5 1.2-.8 1.8-.1.3-.3.6-.5 1.1.7-.2 1.3-.3 1.9-.5.1 0 .2-.2.3-.4.4-.6.8-1.2 1.2-1.9.2-.3.4-.5.6-.7.2-.2.4-.3.6-.1.2.1.3.4.2.7-.1.3-.3.6-.5.9-.2.3-.4.6-.6 1 .3-.1.4-.1.6-.1l2.4-.6c.7-.2 1.5.5 1.6 1.2 0 .4-.2.7-.5.9-.5.3-1.1.6-1.7.8-.4.1-.9.2-1.4.4.4.4.7.5 1.1.7.4.2.8.4 1.2.7.2.1.4.3.4.5 0 .4-.3.7-.8.6l-1.5-.6c-.7-.3-1.4-.7-2.1-1.1-.2-.1-.5-.2-.8-.1-.5.1-.9.3-1.5.4.2.2.3.3.5.4.8.5 1.7 1.1 2.5 1.6.3.2.5.4.8.6.3.2.3.5.2.8-.1.2-.4.3-.7.2-.3-.1-.6-.2-.8-.4-1.3-.8-2.6-1.7-3.8-2.5-.2-.2-.4-.2-.7-.1-4.3 1.2-8.6 2.3-13 3.5-.1 0-.2.1-.4.2.2.1.3.1.4.1 4.1 1 8.2 1.9 12.4 2.5 1.3.2 2.6.3 3.9.5.6.1 1.3.2 1.9.3.6.1.9.4 1.2 1 .9 2.1 1.6 4.4 2.1 6.6 0 .2.1.4.2.5.4.9-.1 1.8-1 2-.4.1-.9.1-1.3.1-.7.1-1.4.2-2.1.2-1.5.1-3.1.2-4.6.3-.6 0-1.2-.1-1.7-.5-1.1-.9-2.3-1.7-3.4-2.6-2.1-1.7-4.1-3.5-6.2-5.2-1.1-1-2.3-1.9-3.4-2.9-.1-.1-.3-.2-.4-.3-.1.2 0 .4 0 .5.6 2.3 1.3 4.6 1.9 6.9.1.5.3 1 .4 1.5.1.3.2.4.5.6 2.1.8 4.2 1.9 6.2 2.9.3.1.5.3.7.4.3.2.4.5.2.8-.1.3-.4.4-.8.3-.3-.1-.6-.3-.9-.4-1.6-.7-3.1-1.5-4.7-2.2-.2-.1-.4-.2-.7-.3.1.4.2.7.2 1 .1.5.2 1 .4 1.4.3.4.8.5 1.2.8.9.6 1.7 1.1 2.6 1.7.2.1.3.2.5.4.3.3.4.6.2.9-.2.3-.5.3-.9.2-.2-.1-.4-.2-.7-.4-.6-.4-1.3-.8-1.9-1.2-.1-.1-.3-.1-.5-.3.1.3.1.4.1.6.2.7.4 1.4.5 2.1.1.3.1.6.1.8 0 .6-.5 1.1-1 1.3-.6.2-1.2 0-1.5-.5-.2-.3-.3-.6-.4-.9-.2-.8-.4-1.6-.7-2.4-.1-.2-.1-.4-.2-.6-.1.2-.2.3-.3.4-.4.7-.8 1.5-1.2 2.2-.1.2-.2.4-.4.5-.2.2-.4.2-.6.1-.2-.1-.2-.3-.2-.5.1-.4.2-.7.4-1 .5-1 1-1.9 1.5-2.9.2-.4.2-.7.1-1.1-.1-.3-.2-.7-.3-1.1l-.4.4c-1 1.2-1.9 2.5-2.9 3.7-.2.3-.5.5-.7.7-.2.2-.4.2-.6 0-.2-.2-.2-.4-.1-.6.1-.2.2-.4.3-.5.4-.6.8-1.1 1.3-1.7l2.4-3.3c.2-.3.2-.5.1-.8-.8-3-1.6-5.9-2.4-8.9 0-.1-.1-.2-.2-.4-.1.2-.1.3-.1.5-.3 1.3-.7 2.5-1 3.8-.7 2.6-1.3 5.2-2 7.8-.5 2-1.1 4-1.6 6-.2.7-.6 1.1-1.3 1.4-1.3.5-2.5 1-3.7 1.6-.4.2-.9.3-1.3.5-.3.1-.6.3-.9.4-.9.5-1.9.2-2.2-.8-.2-.6-.3-1.2-.4-1.8-.3-1.8-.5-3.7-.7-5.6-.1-.5 0-.9.4-1.3.1-.1.2-.3.3-.4 2.9-3.4 5.7-7 8.4-10.7.5-.7 1.1-1.4 1.6-2.1.1-.1.2-.2.3-.4-.2 0-.3 0-.5.1-3.1.8-6.2 1.6-9.2 2.4-.3.1-.5.2-.6.5-.7 1.5-1.4 2.9-2.2 4.4-.1.2-.3.4-.5.6-.2.2-.4.2-.6.1-.2-.1-.4-.3-.3-.6 0-.3.1-.6.2-.8l1.5-3 .3-.6c-.2 0-.3 0-.4.1-1 .2-1.9.5-2.9.7-.3.1-.4.2-.5.4-.2.6-.5 1.2-.7 1.8-.1.3-.3.6-.5.9-.2.3-.5.4-.8.3-.2-.1-.4-.4-.3-.7.2-.6.4-1.1.6-1.7 0-.1.1-.3.2-.5h-.4c-.8.1-1.6.3-2.4.4h-1.1c-.3 0-.7-.1-.8-.5-.1-.4.2-.6.5-.8l1.8-.9c.4-.2.9-.3 1.3-.5-.1-.1-.2-.2-.3-.2-.4-.2-.8-.4-1.2-.7l-.3-.3c-.3-.3-.4-.6-.2-.9.2-.3.4-.3.8-.2.7.3 1.4.6 2 1 .7.5 1.4.6 2.3.3.7-.3 1.4-.4 2.1-.6.1 0 .2-.1.3-.1l-.6-.3c-1.1-.6-2.1-1.1-3.2-1.7-.2-.1-.4-.3-.6-.5-.2-.2-.3-.4-.1-.6.1-.2.4-.2.6-.1.4.2.7.4 1.1.5 1.5.7 2.9 1.4 4.4 2 .2.1.5.1.7.1l11.4-3c.1 0 .2-.1.4-.1-.2-.1-.4-.1-.5-.1-3.6-.5-7.1-1.1-10.7-1.6-1.5-.2-2.9-.6-4.4-1-.6-.1-1.1-.5-1.5-1.1-1.5-2.4-3.1-4.7-4.4-7.2-.2-.3-.3-.6-.5-.9-.3-.5-.2-.9.3-1.2.6-.3 1.2-.5 1.8-.5 1.2 0 2.3 0 3.5.1 1.9.1 3.7.3 5.6.4.6 0 1.1.2 1.5.6.7.6 1.3 1.3 2 1.9 2.1 2.1 4.3 4.2 6.4 6.3.4.4.8.7 1.1 1.1.2.2.5.4.9.5 0-.2 0-.3-.1-.4-.8-3-1.7-6-2.5-9.1-.1-.3-.2-.5-.5-.6-1.2-.8-2.5-1.7-3.7-2.5-.1-.1-.2-.2-.4-.2-.4-.3-.6-.6-.4-.9.2-.3.5-.3 1-.1.3.1.7.3 1 .5.6.4 1.2.8 1.8 1.1.1.1.2.2.4.3.3-.4.3-.4.4-.5zm30.5 25.9v-.2c-.5-1.5-1-3-1.4-4.5-.2-.9-.7-1.1-1.5-1.1-1.3-.1-2.6-.1-3.8-.3-2.4-.4-4.8-.8-7.2-1.3-.2 0-.3-.1-.5-.1v.1c4.7 2.5 9.5 4.9 14.4 7.4zm-19.7-18.5c.1 0 .1.1 0 0 .1 0 .2 0 .2-.1 2.4-2.5 4.8-5.1 7.2-7.6.3-.3.6-.7 1-1.1.3-.3.4-.6.3-1.1-.2-1.7-.4-3.5-.6-5.2 0-.2-.1-.5-.2-.8-2.4 5.6-5.2 10.7-7.9 15.9zM88.5 236l.3.6c.7 1.1 1.3 2.1 2 3.2.4.6.7 1.1 1.1 1.7.2.3.5.5.8.5 1.4.3 2.8.7 4.3.9 2.1.4 4.3.7 6.4 1h.3c-5.1-2.8-10.1-5.3-15.2-7.9zm30.1 15.3c0 .1 0 .1 0 0 0 .2.1.2.2.3 2.3 2.2 4.8 4.2 7.2 6.1.7.6 1.5 1.1 2.2 1.7.3.2.6.3 1 .3 1.5-.1 3.1-.2 4.6-.3.2 0 .3-.1.5-.1v-.1c-5.2-2.6-10.4-5.2-15.7-7.9zM97.8 269l9-17.4c-.2.1-.3.2-.4.3-1.1 1.5-2.2 3.1-3.4 4.6-1.8 2.3-3.7 4.6-5.6 6.9-.2.2-.3.5-.3.8.2 1.4.4 2.9.6 4.3 0 .2 0 .3.1.5zm2.7 1.2c.2 0 .3-.1.4-.1 1.3-.5 2.6-1.1 3.9-1.6.3-.1.4-.3.4-.5.5-2 1.1-4 1.6-6s1-4.1 1.5-6.1v-.2h-.1c-2.6 4.7-5.1 9.6-7.7 14.5zm13.9-33.2c.1 0 .1 0 0 0 2.8-5 5.4-10.1 8.3-15.1l-3.9 2.1c-.6.3-1 .9-1.2 1.6-.3 1-.6 2.1-.8 3.1-.6 2.6-1.3 5.2-2.2 7.8-.1.1-.1.3-.2.5zM90 233.6c0 .1 0 .1 0 0 4.7 2.4 9.5 4.8 14.2 7.1-.1-.2-.3-.4-.5-.6-1.4-1.4-2.8-2.8-4.2-4.1-.5-.5-1-1-1.5-1.4-.3-.3-.6-.4-1-.4-2.2-.2-4.5-.4-6.7-.6H90zM294.7 144.2c1.3-.6 2.7-1.3 4-1.9.5-.2 1-.5 1.6-.6 1.3-.4 2.1.3 1.8 1.6-.5 2.4-1 4.9-1.5 7.3 0 .2-.1.4-.1.6 2.1 1.6 3.8 3.5 5.7 5.3.4.4.8.8 1.2 1.3.7.7.8 1.4.3 2.2-.3.6-.7 1.1-1.1 1.7-1.2 1.5-2.3 3-3.5 4.5-.3.4-.7.8-1.1 1.1-.4.3-.4.6-.3 1.1l1.2 3.9c.2.8.5 1.6.7 2.4.3 1.3-.6 2.6-2.2 2.2-1-.3-2.1-.5-3.1-.8-.3-.1-.5 0-.7.1-2.4 1.7-4.8 3.3-7.3 4.9-.8.5-1.7.9-2.5 1.3-.9.5-1.8.4-2.7-.2-2.6-1.6-5.1-3.4-7.5-5.4l-3 .9c-.5.1-1 .3-1.5.4-1 .2-1.6-.3-1.6-1.3.1-.7.2-1.5.3-2.2.3-1.8.6-3.7.9-5.5.1-.4-.1-.7-.4-.9-2.1-1.7-3.7-3.7-5.5-5.6-.4-.4-.7-.9-1.1-1.4-.3-.5-.4-1 0-1.6.5-.6.9-1.3 1.5-2 1.1-1.3 2.2-2.5 3.3-3.7.5-.5 1-1 1.6-1.5-.2-.5-.5-1.1-.7-1.7-.7-1.7-1.4-3.5-2.1-5.2-.1-.3-.2-.5-.2-.8-.1-1.4.7-2.1 2.1-1.9 1.5.2 3.1.7 4.6 1.1.6.2 1.3.4 1.9.6.3.1.5.1.7-.1 1.6-1.4 3.2-2.7 4.8-4.1.4-.3.7-.6 1.1-1 .6-.6 1.2-.7 2-.4.3.1.7.3 1 .5 2.1 1.3 4.3 2.7 6.4 4 .4.2.7.5 1 .8zm-4.8 17c0 .1 0 .1-.1.2 2.5 2.5 5 5 7.6 7.5.7.7 1.4 1.3 2.1 2h.1l.1-.1c-1-3.2-2-6.4-3-9.7-2.4-.1-4.6 0-6.8.1zm-5.1-11.6c-1.7-.8-9.6-3.6-10.2-3.6 3.4 3.3 6.8 6.7 10.2 10.2v-6.6zm-1.3 11.9c0-.1-.1-.1-.1-.2-2.2.1-4.3.1-6.5.2-.6 3.1-1.4 9.1-1.3 9.6 2.6-3.3 5.2-6.5 7.9-9.6zm5.1 9.6c2.8.7 5.7 1.4 8.6 2.2-.1-.2-.2-.3-.3-.4-2.7-2.6-5.4-5.1-8-7.6-.1-.1-.3-.2-.5-.3.1 2.1.1 4.1.2 6.1zm-3.6-6c-.1 0-.1 0-.2-.1-2.6 3-5.2 5.9-7.7 9 .9-.1 7-2.4 8-3.1 0-1.9 0-3.9-.1-5.8zm3-9.3c.1 0 .1 0 .2.1.2-.2.3-.4.5-.6 1.1-1.3 2.3-2.5 3.3-3.8 1.3-1.5 2.6-3.1 3.9-4.7.1-.1.1-.3.2-.5-2.9 1.4-5.6 2.8-8.3 4.2.1 1.8.1 3.6.2 5.3zm-15-6.4c1.3 3 2.6 5.9 3.9 8.9 1.4.1 4.4 0 4.8-.2-2.8-3-5.5-6.1-8.7-8.7zm25.1.4h-.1c-2.3 2.7-4.6 5.5-7 8.3 1.9-.1 3.7-.1 5.4-.2.6-2.7 1.1-5.4 1.7-8.1zm-3.7 25.2c-2-.6-3.9-1.2-5.8-1.8.1 1.8.1 3.6.2 5.5 1.9-1.2 3.7-2.4 5.6-3.7zm-13.9 1c1.7 1.2 3.2 2.4 4.9 3.4.1-.9 0-4.7-.3-5.3-1.4.6-2.9 1.2-4.6 1.9zm11.6-30.5c-1.7-1-3.2-2.2-5-3.1.1 1.9.3 3.6.4 5.4 1.6-.7 3-1.5 4.6-2.3zm-22.9 15.9c1.4 1.4 2.8 2.7 4.2 4.1.3-1.4.5-2.7.7-4-1.6-.1-3.1-.1-4.9-.1zm15.7-19.1c-1.4 1.1-2.8 2.1-4.2 3.2 1.4.5 2.7 1 4.1 1.5 0-1.6.1-3 .1-4.7zm18.6 15.5c-1.2-1.3-2.4-2.5-3.6-3.8-.5 1.3-.7 2.6-.9 3.9 1.5 0 2.9-.1 4.5-.1zm-2.9 6.7c1-1.3 1.8-2.4 2.8-3.7-1.5 0-2.7.1-4 .1.4 1.2.8 2.3 1.2 3.6zm-25.8-6.1c-.5-1.1-.9-2.1-1.4-3.2-1.1 1.2-2 2.2-3.1 3.4 1.6-.1 3-.1 4.5-.2zM240.9 190c.8.3 1.6.6 2.3.9.3.1.6.3.9.4.7.4.7 1 0 1.4-1.2.7-2.4 1.5-3.6 2.2-.1.1-.2.1-.3.2.2 1.5 0 3 0 4.5v1c0 .6-.3.9-.8 1-.4.1-.8.1-1.1.2l-3.3.3h-.9c-.3 0-.4.1-.6.3-.4.7-.8 1.4-1.2 2-.2.4-.5.9-.8 1.2-.5.6-1.3.8-1.8-.1-.3-.5-.6-1.1-.9-1.6-.1-.1-.2-.2-.3-.2-1.6-.4-3.3-.7-4.9-1.1-.5-.1-1-.4-1.5-.5-.6-.2-.9-.6-1-1.2-.3-1.7-.6-3.4-.7-5.2l-1.5-.9c-.3-.2-.5-.3-.7-.5-.5-.3-.5-.8-.1-1.2.3-.3.7-.5 1-.7l2.7-1.8c.2-.1.3-.3.2-.5-.1-1.5.1-3 .2-4.5 0-.3.1-.7.2-1 .1-.3.3-.6.7-.6.5 0 .9-.1 1.4-.2.9 0 1.9-.1 2.8-.1.4 0 .8 0 1.3.1.1-.3.3-.6.4-1 .5-1 .9-1.9 1.4-2.9.1-.1.2-.3.3-.4.5-.6 1.1-.5 1.6.1.5.7.9 1.5 1.3 2.3.2.3.3.7.5 1 .1.1.2.2.3.2 1.2.1 2.4.3 3.6.4.3 0 .6.1.8.1.5 0 .8.2 1 .7.1.2.2.4.2.6.3 1.4.5 2.8.8 4.2.1.4.1.7.1.9zm-9 4.6s-.1 0 0 0c-.1 2.1-.2 4.1-.3 6.1v1.6h.1c.9-1.7 1.9-3.3 2.9-5l-2.7-2.7zm2.9-6.6c-.3-1-2.2-5.4-2.5-5.7-.1 2.7-.2 5.4-.3 8.2 1-.8 1.9-1.7 2.8-2.5zm-5.5 4v-.1c-.9-.9-1.7-1.8-2.6-2.6-1.5 1-4.3 2.9-4.5 3.2 2.4-.2 4.7-.3 7.1-.5zm-2 5.9c.8 1.5 1.6 2.9 2.4 4.5v-.3c0-2.1 0-4.2.1-6.3 0-.1 0-.2-.1-.3l-2.4 2.4zm1.1-3.8s-.1-.1 0 0c-2.3 0-4.5 0-6.8.2.4.4 3.7 2 4.4 2.2l2.4-2.4zm5-2.4s0 .1.1.1h.4c1 0 1.9 0 2.9-.1 1.2-.1 2.3-.1 3.5-.2.1 0 .2 0 .3-.1-1.7-.6-3.4-1.3-5-1.9l-2.2 2.2zm-3.1-8.7c-.7 1.7-1.5 3.4-2.2 5.1.5.6 1.7 1.8 2 1.9.1-2.3.3-4.7.2-7zm9.6 10.6c-2.1 0-4.1.1-6.2.2l2.2 2.2c1.3-.7 2.6-1.6 4-2.4zm-12 8.3c-.5-1.1-1-2.1-1.5-3.1l-2.2 2.2c1.2.3 2.4.6 3.7.9zm-5.8-5.4c.1 1.2.3 2.3.5 3.4.4-.3 2-1.9 2.1-2.2-.9-.4-1.7-.8-2.6-1.2zm17.2-7l-.6-3.3c-.7.8-1.4 1.5-2.1 2.3.9.3 1.8.6 2.7 1zm-15.5-3.5c0 1.2-.1 2.2-.1 3.4.7-.4 1.3-.8 2-1.3-.7-.6-1.3-1.3-1.9-2.1zm14.1-.8c-1-.2-2-.3-3-.5.3.8.6 1.5 1 2.3.6-.6 1.3-1.2 2-1.8zm.7 13.8c.1-1 .1-2 .2-3-.7.3-1.4.7-2 1.1.6.7 1.2 1.2 1.8 1.9zm-3.9 1.4c.9-.1 1.7-.2 2.6-.3l-1.6-1.6c-.3.6-.6 1.2-1 1.9zm-7.5-13.2c.3-.7.5-1.2.8-1.9h-2.6c.6.8 1.2 1.3 1.8 1.9zM170.2 110.1c.5-.3 1.1-.5 1.6-.8l.6-.3c.5-.2.8.1.7.6-.2 1-.4 2-.6 2.9v.2c.9.6 1.5 1.4 2.3 2.1l.5.5c.3.3.3.5.1.9-.1.2-.3.5-.4.7-.5.6-.9 1.2-1.4 1.8-.1.2-.3.3-.4.4-.1.1-.2.3-.1.4.2.5.3 1 .5 1.6.1.3.2.6.3 1 .1.5-.2 1.1-.9.9-.4-.1-.8-.2-1.3-.3-.1 0-.2 0-.3.1-1 .7-1.9 1.3-2.9 2-.3.2-.7.4-1 .5-.4.2-.7.2-1.1-.1-1-.6-2-1.3-3-2.1l-1.2.3c-.2.1-.4.1-.6.2-.4.1-.7-.1-.6-.5 0-.3.1-.6.1-.9.1-.7.2-1.5.4-2.2 0-.2 0-.3-.1-.4-.8-.7-1.5-1.5-2.2-2.2-.2-.2-.3-.4-.4-.6-.1-.2-.2-.4 0-.6.2-.3.4-.5.6-.8.4-.5.9-1 1.3-1.5l.6-.6c-.1-.2-.2-.4-.3-.7-.3-.7-.6-1.4-.8-2.1 0-.1-.1-.2-.1-.3-.1-.6.3-.8.8-.8.6.1 1.2.3 1.8.4.3.1.5.2.8.2.1 0 .2 0 .3-.1.6-.5 1.3-1.1 1.9-1.6l.4-.4c.2-.2.5-.3.8-.2.1 0 .3.1.4.2.9.5 1.7 1.1 2.6 1.6 0 .4.1.5.3.6zm-2 6.8c1 1.1 2 2.1 3 3 .3.3.6.5.8.8h.1l-1.2-3.9c-.9 0-1.8 0-2.7.1zm-2-4.6c-.7-.3-3.8-1.4-4.1-1.5l4.1 4.1v-2.6zm-.5 4.7s-.1-.1 0 0h-2.6c-.2 1.2-.6 3.6-.5 3.8 1-1.3 2-2.5 3.1-3.8zm2 3.8c1.1.3 2.3.6 3.4.9l-.1-.1c-1.1-1-2.1-2-3.2-3.1 0 0-.1-.1-.2-.1.1.8.1 1.6.1 2.4zm-1.4-2.4s-.1 0 0 0c-1.1 1.2-2.1 2.3-3.1 3.6.4 0 2.8-1 3.2-1.2-.1-.8-.1-1.6-.1-2.4zm1.2-3.7s0 .1 0 0c.1 0 .2-.1.3-.2.4-.5.9-1 1.3-1.5.5-.6 1-1.2 1.5-1.9 0 0 .1-.1.1-.2-1.1.6-2.2 1.1-3.3 1.7 0 .7.1 1.4.1 2.1zm-6-2.5c.5 1.2 1 2.4 1.6 3.6.6.1 1.7 0 1.9-.1-1.1-1.3-2.2-2.5-3.5-3.5zm10 .1c-1 1.1-1.9 2.2-2.8 3.3.8 0 1.5 0 2.2-.1.2-1 .4-2.1.6-3.2zm-1.4 10.1c-.8-.2-1.5-.5-2.3-.7 0 .7 0 1.4.1 2.2.7-.5 1.4-1 2.2-1.5zm-5.6.4c.7.5 1.3.9 2 1.4.1-.3 0-1.9-.1-2.1-.6.2-1.2.4-1.9.7zm4.6-12.2c-.7-.4-1.3-.9-2-1.3.1.8.1 1.4.2 2.2l1.8-.9zm-9.1 6.3c.6.6 1.1 1.1 1.7 1.6.1-.6.2-1.1.3-1.6-.7.1-1.3.1-2 0zm6.2-7.6c-.6.4-1.1.9-1.7 1.3.6.2 1.1.4 1.6.6.1-.6.1-1.2.1-1.9zm7.5 6.2c-.5-.5-.9-1-1.4-1.5-.2.5-.3 1-.4 1.6.6 0 1.1-.1 1.8-.1zm-1.2 2.7c.4-.5.7-1 1.1-1.5H172c.2.5.4 1 .5 1.5zm-10.3-2.4c-.2-.5-.4-.9-.6-1.3-.4.5-.8.9-1.2 1.4.7-.1 1.2-.1 1.8-.1zM107.9 136.7c0-.4.1-.6.1-.8.1-1.3.1-2.7.2-4 0-.3.1-.7.1-1 .2-.8.6-1.2 1.2-1.2.5 0 1 .4 1.2 1.1.2.6.3 1.2.4 1.8.2 1.1.3 2.1.5 3.4.2-.4.4-.6.5-.8.5-.8.9-1.5 1.5-2.3.2-.4.5-.7.9-1 .4-.4.9-.4 1.4-.1.5.2.7.8.6 1.3-.1.5-.3.9-.5 1.4-1.2 2-2.4 3.9-3.6 5.8-.2.3-.3.7-.3 1.1.1 2.7.3 5.4.4 8.2 0 .2 0 .3.1.5.2-.1.3-.2.4-.3.7-.8 1.4-1.6 2.1-2.3.2-.2.3-.5.3-.8-.1-1-.1-2.1-.2-3.2v-.4c.1-.5.4-.9.9-1.1.5-.1 1 .1 1.3.5.2.3.3.6.3.8.1.2.1.4.2.8l.6-.6c.8-1 1.7-2 2.5-3 .2-.2.3-.4.5-.6.4-.4 1-.5 1.5-.2.5.2.9.7.8 1.3 0 .5-.2 1-.5 1.4l-1.5 2.1c-.4.6-.8 1.2-1.3 1.9.5.1.9.2 1.4.4.3.1.6.2.9.4.7.6.6 1.5-.2 1.9-.3.2-.7.3-1.1.2-.8 0-1.6-.1-2.5-.2-.3 0-.6-.1-.8.2-.9 1.2-1.9 2.3-2.9 3.4 0 .1-.1.1-.1.3.8 0 1.5 0 2.2-.1 3.3-.1 6.6-.3 9.9-.4.6 0 1.1-.2 1.4-.7l1.2-1.5c.4-.4.8-.7 1.2-1 .6-.4 1.3-.3 1.7.2.4.4.5 1 .2 1.6-.2.4-.4.7-.7 1.1.2 0 .4.1.5.1h1.5c1 .1 1.7.9 1.7 1.9 0 .9-.6 1.8-1.5 2-.4.1-.8.1-1.3.2.2.3.4.4.6.6.4.6.9 1.1 1.2 1.8.3.5.3 1.1-.2 1.5-.4.4-.9.5-1.5.3-.9-.3-1.7-.8-2.4-1.4-.9-.8-1.8-1.5-2.7-2.3-.3-.3-.6-.4-1-.4-3.5.1-6.9.2-10.4.4-.2 0-.4 0-.8.1.8.7 1.4 1.3 2.1 2 .4.4.8 1 1.3 1.1.5.2 1.2 0 1.7 0 .6 0 1.3 0 1.9.1.3 0 .6.2.8.4.8.5.8 1.5 0 2-.3.2-.7.3-1.1.5.2.2.5.3.6.5.3.3.6.5.8.8.4.6.3 1.4-.1 1.9-.5.6-1.3.8-2 .5-.5-.3-1-.6-1.5-1s-1-.8-1.6-1.3c-.1.4-.1.8-.2 1.1l-.3 1.2c-.2.3-.5.5-.9.5s-.7-.2-.8-.6c-.1-.2-.2-.5-.2-.7-.1-1.1-.1-2.2-.2-3.3 0-.2 0-.5-.2-.6-1-.9-2.1-1.9-3.1-2.8h-.2v.4c.1 3.7.3 7.3.4 11 0 .4.2.6.4.8 1 .9 2 1.8 3 2.8.6.6 1.1 1.3 1.6 2 .1.1.2.3.3.5.3.6.2 1.2-.2 1.6-.4.4-1 .5-1.6.2-.7-.4-1.3-.9-1.9-1.3-.4-.3-.8-.7-1.3-1.1 0 .3-.1.4-.1.6 0 .7.1 1.4 0 2.2 0 1.1-.9 1.9-2 1.9-.9-.1-1.6-.7-1.7-1.7-.1-.8-.1-1.5-.2-2.3v-.9c-.2.3-.4.4-.5.5-.7.7-1.3 1.4-2 2-.3.3-.8.4-1.3.5-.8.1-1.4-.6-1.2-1.4.1-.4.3-.8.5-1.1l3.9-5.4c.2-.2.3-.5.3-.8-.2-3.1-.3-6.2-.5-9.2 0-.2-.1-.4-.1-.8-.4.4-.7.8-1 1.1-.6.6-1.1 1.3-1.7 1.9-.4.4-.5.8-.4 1.4.1.7.1 1.4.2 2.1v.6c-.1.5-.4.9-.9 1-.5.1-1-.1-1.2-.6-.2-.3-.4-.7-.6-1.2-.2.2-.4.3-.5.5-.5.6-1 1.2-1.5 1.7-.7.7-1.7.7-2.4.2-.7-.6-.8-1.6-.2-2.4.4-.6.9-1 1.4-1.6.2-.2.3-.4.5-.7-.4-.1-.7-.1-1-.2-.3-.1-.5-.1-.7-.2-.5-.2-.8-.6-.8-1.2s.3-1 .8-1.2c.4-.2.9-.3 1.3-.3.9-.1 1.7 0 2.6 0 .3 0 .5-.1.7-.3.8-1 1.7-1.9 2.5-2.9 0-.1.1-.1.1-.3h-.5l-9.6.3c-.4 0-.7.2-.9.6-.8 1.2-1.6 2.3-2.4 3.5-.2.3-.5.6-.8.8-.5.4-1.1.3-1.6 0s-.7-.9-.4-1.5c.3-.8.7-1.5 1.1-2.2.2-.3.3-.6.6-.9-.4-.2-.8-.1-1.1-.2-1-.1-1.9-.3-2.9-.4-.2 0-.3-.1-.5-.2-.5-.2-.8-.5-.8-1s.3-.8.7-1c.2-.1.5-.2.7-.3.6-.2 1.2-.3 1.8-.4.2 0 .4-.1.6-.2-.2-.2-.3-.4-.4-.6-.2-.2-.3-.5-.4-.7-.3-.7-.3-1.3.1-1.7.4-.5 1.1-.6 1.8-.2.4.2.8.5 1.2.9.6.6 1.2 1.2 1.9 1.7.2.2.5.3.8.3 3.6-.2 7.3-.3 10.9-.5.1 0 .2 0 .4-.1-.2-.4-.6-.6-.9-.9-.5-.4-.9-.9-1.5-1.1-.5-.2-1.2.1-1.7.1h-2.2c-.2 0-.5-.1-.7-.1-.8-.3-1-1.3-.3-1.8.3-.2.8-.3 1.2-.5.2-.1.4-.1.7-.2l-.5-.5c-1.1-1-2.2-2.1-3.3-3.1-.4-.4-.7-.8-.9-1.2-.5-1.1.2-2.2 1.5-2 .4 0 .8.2 1.1.4.6.4 1.3.9 1.9 1.4.6.5 1.3 1 2 1.7.1-.3.1-.6.1-.8.1-.3.1-.6.2-.8.2-.5.5-.8 1.1-.8.5 0 .9.2 1 .7.2.5.3 1.1.4 1.6.1.6.1 1.3.1 1.9 0 .2.1.5.2.6.8.7 1.6 1.4 2.4 2 .1.1.2.2.4.3v-.7c-.1-2.5-.2-4.9-.3-7.4 0-.4-.2-.7-.4-.9-1-1-1.9-2.1-2.8-3.2-.4-.4-.7-.8-1-1.3-.2-.3-.3-.6-.4-1-.2-1 .7-1.8 1.7-1.5.7.2 1.2.7 1.6 1.1.3.1.7.5 1.1 1zM126 138.5c-1 .2-1.6-.3-2.1-1.1-.5-.9-.4-1.7.2-2.5 1-1.3 2.8-1.4 4-.3.8.8.9 1.8.3 2.7-.5.9-1.4 1.3-2.4 1.2zM92.5 137.9c.6 0 1.1.1 1.6.4.9.6 1.4 1.5 1.1 2.5-.3 1.1-1.2 1.8-2.3 1.8-1.2 0-2.3-.9-2.6-2-.4-1.4.5-2.6 2.2-2.7z"/><path class="st60" d="M97.7 171.3c0 1.3-1.1 2.5-2.4 2.5-1.3 0-2.5-1.1-2.5-2.4 0-1.3 1-2.3 2.3-2.3 1.4 0 2.5.9 2.6 2.2zM129.1 169.1c0 1.1-.9 2.1-2 2.2-1.1 0-2.3-1-2.3-2.2 0-1.2.8-2.2 1.9-2.2 1.3 0 2.3 1 2.4 2.2z"/><g><path class="st60" d="M178.6 179.1c.2 0 .3.1.4.1.7.1 1.3.2 2 .3.2 0 .3.1.5.1.4.1.6.4.6.6 0 .3-.2.5-.6.6-.3.1-.6.1-.9.1-.5 0-1.1.1-1.7.1.2.1.3.2.4.3.4.3.7.5 1.1.8.2.1.3.3.5.5s.2.5 0 .7c-.1.2-.4.3-.7.2-.2-.1-.5-.2-.7-.3-.9-.7-1.9-1.4-2.8-2.1-.2-.1-.3-.2-.5-.2-1.4 0-2.8-.1-4.1-.2h-.3c.1.1.1.2.1.2.4.4.7.8 1.1 1.2.1.1.2.2.4.2h1.8c.3.1.5.3.5.5s-.1.5-.3.6c-.1.1-.3.1-.4.1-.1 0-.2 0-.4.1l.3.3 1.4 1.4.3.3c.2.2.2.5 0 .8-.1.3-.4.4-.7.3-.2 0-.5-.1-.7-.3-.4-.3-.7-.6-1-.9-.3-.2-.6-.5-.9-.7-.1.3-.2.5-.2.7-.1.2-.1.3-.3.4-.3.3-.8.2-1-.2-.1-.2-.1-.4-.1-.6 0-.4.1-.8.2-1.2 0-.2.1-.3-.1-.4l-1.6-1.6s-.1 0-.1-.1c0 .4-.1.8-.1 1.1-.1 1.7-.1 3.3-.2 5 0 .3 0 .6.3.8.2.2.5.4.7.7.2.2.3.4.5.7.2.3.1.7-.2.9-.2.2-.5.2-.8 0-.2-.1-.3-.2-.5-.4 0 .1-.1.2-.1.3 0 .3 0 .5-.1.8-.1.5-.5.8-1 .8s-.9-.4-.9-.9c0-.2 0-.4-.1-.7l-.3.3c-.3.2-.6.4-.9.5-.3.1-.5.1-.8-.1-.2-.2-.2-.5-.1-.8.2-.4.5-.8.8-1.2.4-.4.8-.9 1.3-1.3.2-.1.2-.3.2-.5.1-1.8.2-3.5.3-5.3v-.4c-.4.4-.7.7-1.1 1-.2.2-.5.4-.6.6-.1.2-.1.6-.1.9 0 .3-.1.6-.1 1 0 .1-.1.3-.2.4-.3.4-.8.3-1-.1-.1-.2-.1-.4-.2-.6l-.3.3c-.1.1-.3.3-.5.4-.3.2-.7.1-1-.2-.3-.3-.4-.7-.2-1 .2-.3.4-.5.6-.7l.7-.7c-.2-.1-.4-.1-.5-.1-.2-.1-.4-.1-.6-.2-.2-.1-.3-.3-.2-.5 0-.2.1-.3.3-.4.1 0 .3-.1.4-.1h1.7c.1 0 .2 0 .3-.1l1.5-1.5v-.1h-.2c-1.9-.1-3.7-.2-5.6-.3-.2 0-.3.1-.4.2-.5.5-1 .9-1.5 1.4-.3.3-.7.5-1.1.7-.1 0-.2.1-.2.1-.3.1-.6.1-.8-.2-.2-.2-.2-.5 0-.8.2-.3.5-.6.8-.9l.6-.6c-.1 0-.2-.1-.3-.1-.4 0-.7 0-1.1-.1-.6-.1-.9-.5-.8-1.1.1-.4.4-.8.9-.8h1.7c-.1-.1-.2-.2-.2-.3-.3-.4-.6-.7-.9-1.1-.1-.2-.2-.4-.2-.7 0-.4.4-.7.8-.5.2.1.4.2.5.3.9.7 1.7 1.5 2.6 2.2.1.1.2.2.4.2 1.6.1 3.1.1 4.7.2h.4c-.2-.2-.4-.4-.5-.6l-.9-.9c-.2-.2-.4-.3-.7-.3H163.6c-.3-.1-.4-.2-.5-.5 0-.3.1-.5.4-.6.2-.1.4-.1.6-.2-.1-.1-.1-.2-.2-.3-.3-.3-.6-.6-.8-.9-.3-.4-.3-.9 0-1.2.3-.3.8-.3 1.2 0 .3.2.5.5.7.8l.3.3c0-.2.1-.3.1-.5 0-.1.1-.3.1-.4.1-.3.3-.4.6-.4s.5.2.6.5c.1.2.1.5.1.7 0 .4-.1.9-.1 1.3 0 .2 0 .3.1.4l1.4 1.4s.1 0 .1.1v-.3c.1-1.6.2-3.3.3-4.9 0-.2-.1-.3-.2-.5-.6-.4-1.1-.9-1.6-1.4-.1-.1-.3-.3-.4-.5-.2-.3-.1-.6.1-.8.2-.2.5-.3.8-.2.4.2.7.4 1.1.7.1.1.3.2.4.3.1-.2.1-.4.1-.6.1-.5.2-1 .3-1.4 0-.1.1-.2.1-.3.1-.2.3-.4.5-.4.3 0 .4.2.5.4 0 .1.1.2.1.4.1.3.1.6.1.9 0 .1 0 .2.1.3.1-.1.2-.1.3-.2.1-.1.3-.1.4-.2.4-.1.7-.1.9.1.2.2.2.6 0 .9-.1.2-.3.4-.5.6-.3.3-.6.6-1 .9-.1.1-.2.2-.2.4-.1 1.9-.1 3.7-.2 5.6v.2c.2-.1.3-.3.5-.4.2-.2.5-.4.6-.7.1-.3 0-.6 0-.9 0-.4 0-.7.1-1.1 0-.1 0-.2.1-.3.2-.4.7-.4.9 0 .1.2.1.4.2.6 0 .1 0 .2.1.3.1-.1.2-.1.3-.2.6-.5 1.1-1 1.7-1.5.2-.2.4-.3.7-.4.6-.2 1.1.2 1 .8 0 .2-.1.4-.2.5-.2.3-.5.6-.8.9l-.9.9c.2 0 .3.1.4.1.1 0 .3.1.4.1.2.1.4.3.3.6 0 .2-.2.4-.4.5-.3.1-.6.1-.8.1h-1c-.1 0-.3 0-.3.1l-1.1 1.1-.2.2c.1 0 .2 0 .3.1 1.3.1 2.5.1 3.8.2.2 0 .3-.1.5-.2.6-.4 1.1-.9 1.7-1.3.2-.2.5-.3.7-.4.2-.1.3-.1.5-.2.5-.1.9.4.7.9-.1.3-.4.6-.6.8-.5.7-.7.8-.9 1zM176.8 188.2c0-.5.2-.8.7-1 .5-.2.9-.1 1.3.2.6.6.6 1.5 0 2-.4.4-1 .4-1.4 0-.5-.2-.6-.7-.6-1.2zM178.6 171.3c0 .3-.1.6-.3.8-.3.4-.8.6-1.3.5-.5-.2-.9-.7-.8-1.2 0-.6.5-1.1 1.1-1.2.8-.3 1.4.3 1.3 1.1z"/><path class="st60" d="M161.5 172.4c-.7 0-1.2-.6-1.2-1.4 0-.7.7-1.2 1.3-1.2.6 0 1.1.6 1.1 1.3 0 .8-.5 1.4-1.2 1.3zM161.2 188.4c-.6 0-1-.5-1-1.1 0-.6.6-1.1 1.2-1.1s1.1.5 1.1 1.1c-.1.7-.6 1.2-1.3 1.1z"/></g><g><path class="st60" d="M258.6 255c-.3-.4-.4-.7-.6-1-1-1.5-2.1-3.1-3.1-4.6-.3-.4-.5-.8-.7-1.2-.5-1-.4-1.9.3-2.4.6-.5 1.4-.4 2.3.2.7.5 1.3 1.1 1.9 1.7 1.1 1 2.1 2.1 3.4 3.4 0-.6 0-1-.1-1.3-.1-1.3-.2-2.5-.3-3.8 0-.6 0-1.2.1-1.8.1-.7.7-1.2 1.4-1.3.7-.1 1.5.2 1.8 1 .3.6.5 1.3.5 2 .3 3.2.6 6.4.9 9.5 0 .6.2 1 .5 1.5 2.4 2.9 4.9 5.8 7.3 8.8.1.2.3.3.5.6.1-.3.2-.5.2-.6.1-1.5.3-2.9.4-4.4 0-.5-.1-.8-.4-1.1-1-1.1-1.9-2.2-2.9-3.4-.1-.1-.2-.3-.3-.4-.4-.6-.3-1.4.1-1.9s1.2-.7 1.9-.5c.4.1.7.4 1.1.7.3.2.5.4.8.7.1-.5.1-.8.1-1.2.1-1.8.2-3.7.3-5.5 0-.4 0-.7.1-1.1.2-.8.7-1.3 1.5-1.5.8-.2 1.6.1 2 .8.3.6.6 1.2.6 1.9.1 1.2 0 2.4.1 3.7 0 1 .1 2.1.1 3.2.7-.3 1.2-.5 1.8-.7.4-.1.9-.3 1.4-.3 1.2 0 1.9 1.2 1.3 2.3-.2.5-.6.9-1 1.2-.9.7-1.9 1.2-2.9 1.8-.4.2-.7.4-.7.9-.1 2.1-.2 4.2-.4 6.2 0 .1 0 .2.1.4.9-.6 1.7-1.3 2.5-1.9 3.5-2.9 7.1-5.9 10.6-8.8.7-.5 1-1.1 1-2 0-.9 0-1.8.1-2.7.1-.7.3-1.5.5-2.2.3-.9 1.2-1.4 2.1-1.2.8.1 1.4.7 1.6 1.6.1.6.1 1.1.2 1.8.2-.1.5-.2.6-.3.6-.4 1.1-.9 1.7-1.3 1.2-.7 2.7-.4 3.5.6.8 1 .8 2.5-.1 3.5-.4.4-.8.8-1.2 1.3.5.1.8.1 1.2.2 1 .3 1.9.6 2.8.9.7.3 1.2 1 1.1 1.8-.1.8-.6 1.3-1.4 1.6-1.2.4-2.5.6-3.8.5-1.6-.1-3.3-.1-4.9-.2-.6 0-1 .1-1.5.5-3.8 3.1-7.5 6.1-11.3 9.1l-.8.8c1.5.2 2.7.3 3.9.4.8.1 1.7.4 2.4.2s1.3-1 2-1.5 1.5-1 2.2-1.5c.4-.2.8-.3 1.2-.3 1.3-.1 2.1 1 1.7 2.2-.2.5-.5.9-.8 1.6.4 0 .8 0 1.2.1.5.1 1.1.1 1.6.3.9.3 1.5 1.3 1.5 2.3 0 1-.7 2-1.8 2.2-.8.2-1.7.2-2.6.2-.9 0-1.8-.1-2.9-.2.3.6.5.9.7 1.3.2.5.5 1.1.6 1.6.1.5-.1 1-.5 1.3-.5.3-1 .3-1.4.1-.3-.2-.6-.4-.8-.6-1-1.2-2-2.3-3-3.5-.2-.2-.5-.5-.7-.5-1.9-.2-3.9-.3-5.8-.5-.1 0-.1.1-.2.2.1.2.2.3.3.5 3.2 4 6.5 8 9.7 11.9.3.4.7.5 1.2.6 1.9.2 3.8.3 5.7.6 1.2.2 2.3.5 3.4.8.2.1.5.2.7.3.8.5 1.2 1.1 1.1 1.9-.1.8-.7 1.4-1.7 1.5-1.1.1-2.1.1-3.2.1-.7 0-1.5-.1-2.4-.2.2.3.3.5.4.7.6.8 1.3 1.5 1.9 2.4.9 1.3.6 2.9-.7 3.8-1 .7-2.4.5-3.3-.5l-2.1-2.4c-.2-.3-.4-.6-.8-1-.1.5-.1.7-.1 1-.2 1.3-.3 2.6-.6 3.9-.1.6-.6 1.2-1 1.6-.8.7-2.1.4-2.5-.6-.2-.5-.3-1.1-.3-1.7-.1-3.1-.1-6.2-.1-9.4 0-.4-.1-.8-.4-1.1-2.8-3.3-5.5-6.6-8.3-9.9l-.8-.8c-.1.8-.1 1.5-.2 2.1-.1 1.2-.1 2.4-.3 3.5-.1.8.2 1.3.7 1.9.7.7 1.4 1.5 2 2.2.2.2.4.5.5.7.3.7.3 1.3-.2 1.9-.5.6-1.2.7-1.9.4-.5-.2-1-.5-1.6-.8-.1.4-.1.6-.2.9-.1 1.1-.1 2.2-.3 3.2-.2 1.4-1.3 2.2-2.5 2.2-1.3-.1-2.3-1.1-2.3-2.5 0-1 .1-1.9.2-2.9v-1.2c-.5.3-.8.5-1.2.6-.3.2-.7.3-1 .4-.8.2-1.4 0-1.9-.6s-.5-1.4-.1-2c.3-.5.8-1 1.3-1.5.9-.8 1.9-1.5 2.9-2.2.3-.3.5-.5.6-1 .1-1.8.3-3.6.4-5.4 0-.1 0-.2-.1-.4-.2.2-.5.3-.6.4l-10.5 8.4c-.5.4-.6.8-.5 1.4.1 2 .2 3.9.2 5.9 0 .5-.1 1.1-.2 1.6-.3.9-.9 1.3-1.8 1.3-.8 0-1.5-.4-1.8-1.3-.3-1.1-.4-2.2-.6-3.4-.1-.5-.1-.9-.1-1.5-.6.1-1 .5-1.4.8-1.2.7-2.4 1.3-3.6 2-.2.1-.5.2-.7.3-.7.2-1.3.2-1.8-.4-.4-.5-.3-1.2 0-1.7.2-.3.3-.6.6-.9.5-.7 1.1-1.3 1.6-2 .2-.2.3-.4.5-.7-.4-.1-.7-.2-1-.3-.4-.1-.8-.3-1.1-.4-1-.5-1.4-1.2-1.3-2 .1-.9.8-1.5 1.8-1.7.7-.1 1.4-.1 2 0 1.2.1 2.4.2 3.5.4.5.1.8 0 1.2-.3 3.9-3.3 7.8-6.5 11.8-9.8.1-.1.2-.2.3-.4-.6-.3-1.2-.2-1.7-.2-.9-.1-1.8-.3-2.6 0-.7.2-1.2 1-1.9 1.6l-2.4 1.8c-.3.2-.6.3-.9.4-1.2.3-2.2-.6-1.8-1.8.2-.6.6-1 .9-1.6.1-.2.3-.4.6-.8-.4-.1-.6-.1-.9-.1-2.1-.2-4.2-.4-6.3-.7-.7-.1-1.4-.3-2.1-.6-1.6-.8-1.6-2.6-.1-3.5.4-.3 1-.4 1.5-.5 1.1-.1 2.1-.1 3.2 0 1.1 0 2.3.1 3.6.2-.2-.4-.4-.7-.5-1-.2-.4-.4-.7-.5-1.1-.2-.7-.1-1.3.5-1.7.5-.4 1.2-.5 1.7-.1.6.4 1.2 1 1.8 1.5.6.6 1.2 1.4 1.8 2 .2.2.5.5.8.5 1.5.1 2.9.2 4.4.2h.8c-.2-.3-.3-.6-.5-.8-2.2-2.7-4.4-5.3-6.5-8-.3-.4-.7-.6-1.3-.7-1.9-.4-3.9-.7-5.8-1.2-.7-.2-1.5-.4-2.2-.7-.5-.2-.9-.4-1.3-.8-1.1-1-.7-2.6.6-3.1.9-.3 1.8-.2 2.8-.1.9-.1 1.6 0 2.5.2zM280.4 241.8c-1 1-2.1 1-3.3.5-1.2-.6-1.9-1.6-1.9-3 0-2.2 2-3.9 4.2-3.7 1.5.2 2.5 1.3 2.6 2.8.1 1.5-.4 2.6-1.6 3.4zM242.4 269.3c.6-.5 1.3-.8 2.2-.9 1.5-.1 2.8.6 3.3 1.8.6 1.4.2 3-1.1 4s-3.4 1-4.6 0c-1.6-1.4-1.6-3.5.2-4.9z"/><path class="st60" d="M276.2 302.2c1.2 1.5.9 3.7-.6 4.9-1.4 1.1-3.6.8-4.8-.6-1.1-1.4-.8-3.3.6-4.5 1.6-1.3 3.7-1.2 4.8.2zM309.5 273.4c1 1.2.8 3.1-.4 4.1-1.2 1-3.4.8-4.4-.5-1.1-1.4-.9-3.2.3-4.1 1.4-1.1 3.4-.8 4.5.5z"/></g><g><path class="st61" d="M196.7 283.8c.2-.9.4-1.5.5-2.2.8-7.3.8-14.6-.8-21.9-1.5-7.3-4.3-14-9.1-19.8-3.1-3.9-6.8-7.2-10.8-10.2-5.2-3.9-10.5-7.7-16.4-10.7-5.2-2.6-10.6-4.9-16.3-6.2-4.4-1-8.8-1.9-13.2-2.9-6.7-1.6-13-4.1-18.7-7.8-1.8-1.1-3.5-2.3-5.2-3.6-1-.7-1.9-1.5-2.7-2.3-1.5-1.4-2.9-2.8-4.4-4.1l-.6-.6c-.2-.4-.2-.7.2-1 .3-.3.6-.3 1-.1.3.2.6.4.8.6 1.6 1.5 3.4 2.7 5.3 3.8 2.3 1.2 4.6 2.5 6.9 3.7 2.6 1.3 5.4 1.8 8.3 2.3 5 .8 10 1.6 14.9 2.9 2.3.6 4.7 1.3 7 2 .3.1.7.2 1.1.3-.2-.3-.3-.4-.4-.6-1.5-2.1-3.1-4.1-4.6-6.2-2.2-3.2-4.3-6.4-6.5-9.6-.4-.6-.8-1.2-1.2-1.9-.4-.6-.3-1.1.1-1.4.4-.3.8-.1 1.2.4.2.2.4.5.6.8 3.9 5.1 8.3 9.7 13.3 13.6 4.2 3.3 8.9 5.8 14 7.6 3.9 1.4 7.9 2.6 11.7 4.2 7.6 3.1 14.3 7.6 19.6 14 1.1 1.3 2.2 2.6 3.4 3.9.4.4.7.8 1.3 1 .5-.4.6-.9.8-1.4.6-2.3 1.3-4.6 1.8-6.8.9-3.6 1.5-7.3 1.8-11.1.5-7.3-.3-14.5-2-21.6-1.2-5-2.8-9.8-4.3-14.7-1.9-6.1-3.6-12.3-4.8-18.5-.2-1-.9-1.8-1.7-2.3-5.6-3.1-11.2-6.3-16.9-9.3-2.1-1.1-4.4-1.8-6.6-2.8-2.4-1-4.7-2-7-3.1-8.4-3.8-15.9-9-22.3-15.6-1.8-1.9-3.5-3.9-5.2-5.9-.6-.7-1.2-1.4-1.7-2-.2-.2-.4-.5-.5-.8-.1-.4 0-.7.3-.9.2-.1.6-.1.9-.1.2 0 .4.3.6.4 2.4 2 4.8 4 7.3 6 3 2.4 6.5 4.1 9.9 5.9 7.5 4 15.3 7.3 23.2 10.2 4.2 1.5 8.4 3.2 12.5 4.8 1.8.7 3.4 1.7 5.2 2.5.2.1.3.2.6.3v-.7c0-3.9-.2-7.7 0-11.6.2-5.8.7-11.7 1.1-17.5 0-.4 0-.7-.3-1.1-4.2-4.3-6.8-9.7-9-15.2-.7-1.7-1.2-3.4-1.8-5.1-.1-.4-.1-.8-.1-1.1 0-.5.2-.9.7-1 .5-.2.9 0 1.2.4l.6.9c2.3 3.9 4.7 7.7 7.5 11.4.6.9 1.2 1.8 2 2.9.1-1.4.3-2.6.3-3.9.3-4.6.7-9.2.8-13.9.2-5.5.2-11 .3-16.5 0-1.9-.1-3.9-.2-5.8 0-.5 0-1 .1-1.4.2-1 1.3-1.2 1.9-.5.3.4.6.9.8 1.4 1 2.6 1.6 5.3 2.1 8.1 1 5.2 1.3 10.4 1.2 15.7 0 1.8-.1 3.6-.1 5.5v1.1c.2-.1.4-.2.5-.3 1.4-1 2.9-2 4.3-3.1 3-2.1 6-4.2 9-6.4 2.5-1.9 4.6-4.1 6.4-6.6 2.2-2.9 4.3-5.8 6.5-8.6.2-.3.5-.6.7-.9.8-.7 1.9-.4 2.1.7.1.3.1.7 0 1-.4 1.2-.7 2.4-1.2 3.5-.5 1.2-1.2 2.4-1.7 3.6-1.1 2.3-2.8 4.2-4.6 6-3.5 3.5-7.3 6.8-11.3 9.7-3 2.1-5.6 4.6-7.8 7.6-.6.8-1.2 1.7-1.8 2.6-1.2 1.9-1.7 3.9-1.7 6.1 0 5-.3 10.1-.4 15.1-.2 12.1 1.1 24.1 4 35.9.1.6.3 1.2.5 1.9.4-.2.7-.3 1-.5 1.3-.8 2.6-1.6 3.8-2.4 6.4-4.3 12.9-8.5 19.7-12.3 1.9-1.1 3.9-2.3 5.7-3.5 8.7-5.6 16.2-12.5 23.1-20.2 4.6-5.2 8.8-10.8 12.4-16.8 2.3-3.8 4.2-7.8 6.1-11.8.3-.7.6-1.3 1-2 .2-.4.4-.8.7-1.1.8-.9 2-.7 2.4.5.2.7.3 1.4.3 2.2-.1 2.8-.3 5.5-1.2 8.1-2 5.9-4.7 11.4-8.4 16.4-1.2 1.6-2.4 3.1-3.5 4.7-.2.2-.4.5-.6.8 1.3.2 2.5 0 3.6-.2 4.7-.7 9.2-2.3 13.6-4.1 9.6-3.9 18-9.6 25.4-16.8 1.7-1.7 3.4-3.3 5.1-5 .5-.5 1-1 1.6-1.4.7-.5 1.3-.5 1.7-.1.4.4.5 1 .1 1.8-.2.5-.5.9-.8 1.3-1.1 1.3-2.1 2.6-3.3 3.7-2.8 2.7-6 5-9.2 7.2-3.2 2.2-6.3 4.3-9.5 6.4-6.4 4.2-13.3 7.5-20.6 9.8-8 2.5-14.9 6.7-21.1 12.2-3.3 2.9-6.5 5.9-9.8 8.7-4.9 4.2-10.2 7.8-15.8 11-2.3 1.3-4.5 2.6-6.8 4-1 .6-1.9 1.3-2.8 2-2.6 2.2-4.1 5-4 8.4 0 2.4.2 4.9.3 7.3.2 3.8.4 7.6.5 11.4.1 5.7.2 11.3.2 17 .1 3.9-.3 7.9-.7 11.8-.3 2.1-.5 4.2-.5 6.3-.2 4.7 1.7 8.2 5.8 10.6 3.5 2 7.3 2.7 11.4 2.3 4.5-.4 8.7-1.6 12.8-3.5.7-.3 1.2-.8 1.7-1.3 3.1-3.8 5.4-8.1 7-12.8 2.7-7.9 5-16 7.1-24.1 1.3-4.8 2.7-9.5 4.1-14.3.1-.3.2-.7.4-1 .2-.2.5-.4.8-.4.4 0 .6.3.6.7 0 .3 0 .5-.1.8-1.9 7.9-3 15.9-4.7 23.9-1.4 6.9-3.1 13.6-5.5 20.2-.1.1-.1.3 0 .6.3-.2.5-.4.8-.7 3-2.7 5.8-5.7 8.5-8.7 2.6-2.9 5.2-5.7 7.9-8.5 4.8-5 10.5-8.8 16.9-11.5 6.1-2.5 12.2-5 18.1-8 .8-.4 1.4-.9 2-1.5 3.4-3.8 5.9-8.1 8.1-12.7.8-1.8 1.7-3.5 2.5-5.3.2-.5.5-.9.8-1.3.3-.3.6-.6 1.1-.4.5.1.7.5.7.9v1c-.3 2.4-1 4.8-1.9 7.1l-2.1 5.1c-.1.3-.2.6-.4 1.1.5-.3.8-.4 1-.6 6.9-4.3 13.2-9.4 18.8-15.4 2.8-2.9 5.4-6 8.1-8.9.5-.6 1.1-1.2 1.7-1.7.5-.4 1.1-.7 1.8-.3.6.4.8 1 .6 1.7-.2.8-.3 1.6-.7 2.4-.6 1.4-1.3 2.9-2.1 4.2-3.8 5.9-8.2 11.3-13.7 15.8-.8.6-1.6 1.3-2.4 1.9-5.1 3.6-10.1 7.1-15.2 10.7-3.9 2.7-8 4.9-12.3 6.9-5 2.3-9.8 4.7-14.7 7.3-.3.2-.6.4-.9.7h.8c3.3-.3 6.5 0 9.8.1 4 .2 7.9.5 11.9.7l13.2.6c4.2.2 8.3-.2 12.4-.7 2.7-.3 5.4-1.1 8-1.9.4-.1.9-.2 1.3-.3.4 0 .8.1.9.5.2.4-.1.8-.4 1-.5.3-1.1.6-1.6.8-4 1.1-7.8 2.6-11.9 3.3-3.2.6-6.5 1-9.8 1.1-3.8.1-7.6.1-11.4.1-5.1 0-10.3-.3-15.4-.2-4.3 0-8.7.2-13 .9-1.8.3-3.6.8-5.4 1.3-.6.2-1.3.6-1.8 1.1-2.3 2.2-4.7 4.5-7 6.7-3.6 3.5-7.1 7-10.9 10.2-3.9 3.2-7.9 6.1-12.2 8.8-2.9 1.8-5.9 3.3-9 4.7-1.8.8-3.6 1.7-5.3 2.7-1 .6-1.9 1.2-2.9 1.9-1.9 1.4-3.2 3.2-4 5.5-2.2 6.2-4.1 12.4-5 19-.4 3.2-.7 6.5-.9 9.7-.2 5.2-.3 10.5-.5 15.7 0 .7.1 1.3.2 2.1.3-.1.6 0 .7-.1.5-.2.9-.4 1.4-.7 4.7-3.1 9.2-6.5 13-10.7 2.2-2.4 4.2-5.1 6.1-7.8.7-1.1 1.5-2.2 2.3-3.3.3-.4.7-.8 1.1-1.1.7-.5 1.5-.2 1.8.6.1.4.2 1 .2 1.4-.1.9-.2 1.9-.5 2.8-1.7 5.5-4.5 10.3-8.4 14.5-3.2 3.5-6.6 6.8-10.2 9.8-3.1 2.6-5.4 5.8-6.5 9.7-.5 1.8-.9 3.7-1.2 5.6-.5 3.4-.6 6.9-.5 10.3.1 3.7 1 7.2 2.4 10.6 1.4 3.3 2.8 6.7 4.2 10 .3.8.6 1.6.8 2.3l.3 1.2c.2 2.1-1.1 3.4-3.2 3.2-1.1-.1-2.1-.3-3.2-.2-1.7 0-3.4.1-5.2.2-2.9.2-5.8.5-8.7.7-1.3.1-2.7.2-4 .2-1.2 0-2.4 0-3.5-.1s-2-.7-2.4-1.8c-.4-.9-.6-1.9-.6-2.9 0-2.6.2-5.2.7-7.7.8-4.4 1.2-8.8 1.3-13.2.1-3.4.2-6.8.3-10.3.1-6.3-.5-12.5-1.5-18.7-.7-4.5-1.6-8.9-3.1-13.2-2.7-8.4-7.4-15.6-13.5-21.8-3.5-3.5-7.3-6.6-11.3-9.5-1.8-1.3-3.5-2.5-5.3-3.8-4.3-3.1-8.3-6.6-11.8-10.6-1.2-1.3-2.5-2.5-3.8-3.8-.2-.2-.4-.4-.5-.6-.3-.4-.2-.9.1-1.1.3-.3.7-.3 1.1-.1.2.1.3.2.5.3 1.8 1.7 3.9 2.9 6.1 3.9 4.8 2 9.1 4.7 13.4 7.7 5.9 4 11.8 8 17.8 11.9 4 2.6 8 5.3 11.5 8.6.9.8 1.7 1.7 2.5 2.5-.5.2-.2.4.3.8z"/><path class="st62" d="M256.7 125.1c1.5 0 3 .3 4.4.7.7.2 1.4.3 2.1.5 2.3.6 4.6 0 6.8-.6.3-.1.6-.2.8-.3 2.4-1.1 5-1.4 7.6-1.8.4-.1.8-.1 1.1-.1 1.4.1 2.3 1.3 1.7 2.6-.2.5-.5 1-.9 1.4-.8.9-1.7 1.7-2.6 2.5-1.2 1-2.3 2-3.2 3.2-2.3 3.1-5.3 4.9-9.1 5.4-1.1.2-2.2.3-3.2.4-2 .1-3.3 1.2-3.9 3.1-.4 1.2-.5 2.4-.8 3.6-.2.8-.3 1.5-.5 2.3-.5 2.3-1.6 4.3-3.3 6-1 .9-2 1.8-3 2.6-1.4 1.1-2.4 2.4-3 4-.5 1.3-.8 2.6-1.2 3.9-.5 1.6-1.1 3.3-1.7 4.9-.3.7-.8 1.4-1.4 1.9-1 1-2.3 1.1-3.4.2-.6-.4-1.1-1-1.6-1.6-1-1.2-1.5-2.7-2-4.1-.3-.9-.6-1.9-.9-2.8-.6-1.6-1.7-2.4-3.4-2.7-1.9-.3-3.8-.2-5.7.1-2.9.4-5.9.9-8.8 1.4-2.1.3-4.1.8-6.2.5-.6-.1-1.3-.2-1.9-.4-2.1-.8-2.8-2.8-1.6-4.8.7-1.2 1.7-2.1 2.8-2.8 1.6-1 3.1-2 4.8-2.8 1.3-.7 2.7-1.4 4.1-2 3.9-1.9 7.4-4.2 10.9-6.8 2.8-2.1 5.7-4 8.7-5.8 2.3-1.4 4.3-3.2 5.9-5.2.3-.4.7-.8 1-1.3 2.7-3.7 6.3-5.1 10.6-5.3zM156.2 250.6c1.6 0 2.8.5 4 .9 4.2 1.7 8.1 4 11.9 6.4 6 3.8 11.6 8 17.2 12.3 2 1.5 4.1 3 6.2 4.4 2 1.4 4.2 2.4 6.5 3.3 3.6 1.5 7.1 3.3 10 6 2 1.8 3.7 3.8 5.3 5.9.4.5.8 1.1 1.2 1.6 1.4 2 3.1 3.6 5.1 5 .8.5 1.5 1.1 2.3 1.6.7.5 1.2 1.1 1.6 1.9.6 1.2.6 2.3-.3 3.3-.6.7-1.4 1.4-2.1 2.1-.2.2-.5.3-.7.5-3 1.5-6 2.9-9.2 4-1.8.6-3.3 0-4.4-1.6-.7-1-1-2.2-1.2-3.4-.3-2.1-.7-4.3-1.5-6.3-.2-.6-.5-1.2-.8-1.8-.2-.4-.5-.8-.8-1.2-.9-.9-1.5-.9-2 .3-.4 1-.7 2.1-.9 3.2-.3 1.5-.4 3-.6 4.5-.1.6-.3 1.3-.5 1.8-.8 1.8-2.6 2.3-4.2 1.3-1-.6-1.8-1.5-2.5-2.5-1.1-1.7-2-3.6-2.7-5.5l-1.5-4.5c-1.1-3.2-2.6-6.2-4.7-8.9-2.7-3.5-5.5-6.9-8.3-10.3-.4-.5-.9-.8-1.4-1.2-4.1-3.1-8.5-5.7-12.9-8.3-1-.6-2.1-1.3-3.1-1.9-2.7-1.5-4.9-3.6-6.8-6-.6-.7-1-1.5-1.4-2.3-1.1-2.2-.1-4.1 2.3-4.6h.9zM204.6 238.6c.2-.6.3-1.6.7-2.5.4-1.1 1.3-1.7 2.5-1.6.9.1 1.8.3 2.7.6 1.2.4 2.3.8 3.4 1.3 3.2 1.2 6.4 1.4 9.7.8 2.2-.4 4.4-1 6.6-1.4 2.6-.5 5.2-.8 7.9-1.2 3.3-.5 6.3-1.4 9.3-2.9 4.2-2.1 7.8-5 10.8-8.6.6-.7 1.3-1.5 2-2.1 3-2.5 5.8-5.1 9.1-7.2 1.1-.7 2.2-1.4 3.4-1.9 2-.8 3.8.3 4.1 2.5.1.6 0 1.3-.2 1.9-.3.8-.7 1.7-1.2 2.4-1.4 2.2-3.1 4.3-5 6.2l-4.2 4.2c-1.5 1.5-3 2.9-4.4 4.5-4 4.7-9 8.1-14.5 10.9-2.3 1.2-4.6 2.4-6.6 4-1 .8-2.1 1.4-3.3 1.9-1.9.8-3.1 2.1-3.6 4.1l-.6 2.1c-.3.7-.6 1.5-1 2.1-1.5 2.2-4.5 2.7-6.7 1.1-.7-.5-1.4-1.1-1.8-1.8-1.8-2.9-4.4-5.1-6.6-7.6-1.1-1.2-2.5-1.6-4-1.9-.9-.1-1.7-.2-2.6-.4-3.2-.6-5.1-2.4-5.6-5.7-.2-1.1-.2-2.2-.3-3.8zM331.7 190.7c-1 .6-1.8 1.3-2.4 2.1-.6.9-1.2 1.7-1.9 2.5-1.1 1.3-2.3 2.6-3.8 3.3-1.7.8-2.2 2.2-2.2 3.9v1.5c.1.9-.3 1.7-.7 2.4-.5.8-1.2 1.1-2.1.9-.7-.2-1.5-.5-2.2-.8-2.8-1.2-5.7-2.3-8.8-2.8-4.1-.6-8.1-.7-12.2 0-1.5.3-3 .4-4.6.5-.7.1-1.5 0-2.2-.2-1.4-.4-2-1.7-1.6-3.1.3-1 .9-1.9 1.6-2.7 1.4-1.7 3.1-3.1 5.1-4.2 3.3-1.7 6.7-3 10.2-4 3.7-1 7.4-2 10.9-3.6 4.2-1.8 8.1-4.1 11.6-7.1 2.2-1.9 4.3-3.9 6-6.3 1.3-1.9 2.9-3.5 4.5-5.1.4-.4.9-.8 1.4-1.1 1.3-.8 2.6-.5 3.2.9.4.8.6 1.8.7 2.7.3 2.2.4 4.4.6 6.6.1 1.6-.1 3.1-.6 4.5-.1.4-.3.9-.5 1.2-1.3 2.3-1.5 4.8-1.6 7.3-.1 3.7-.2 7.4-.4 11.1 0 .5-.1 1.1-.2 1.6-.2.7-.5 1.4-1.4 1.5-.9.1-1.4-.4-1.7-1.2-.4-1-.7-2-1-3-.7-2.2-1.2-4.4-1.9-6.6-.2-.7-.6-1.4-.9-2-.2 0-.6-.3-.9-.7zM106.6 192.6c1.1.2 2.3.3 3.4.6 5.5 1.2 11 2.5 16.5 3.6 3 .6 6.1 1 9.1 1.7 3.3.7 6.6 1.5 9.9 2.4 3.7.9 7.4 1.5 11.1 1.8 4.6.4 9.2 1.1 13.7 2.3 4.6 1.2 8.6 3.6 11.8 7.2 1.7 1.8 3.4 3.6 5.4 5 1.4 1.1 2.6 2.3 3.6 3.9.5.7.8 1.5.7 2.4-.1 1.1-.8 1.8-1.9 1.7-.6-.1-1.2-.3-1.7-.6-1.2-.7-2.4-1.6-3.6-2.4-1.2-.8-2.4-1.7-3.7-2.6-2.2-1.5-4.7-2.4-7.3-3.1-3.1-.8-6.3-1.4-9.4-2.1-5.9-1.3-11.9-2.4-17.8-3.9-4.1-1-8.2-2.4-12.2-3.5-3.3-.9-6.7-1.6-10-2.5-4.9-1.3-9.7-2.7-14.3-5-1.3-.6-2.6-1.4-3.8-2.2-.6-.4-1.1-.9-1.6-1.4-.6-.6-.8-1.3-.5-2.1.3-.8 1-1.1 1.8-1.2.2.1.5.1.8 0zM180.7 152.6c-2.8 0-4.4 1.1-5.4 3.7-.1.4-.3.7-.4 1.1-.1.3-.2.7-.4 1-1.1 2.5-3 3.1-5.4 1.7-1.4-.8-2.5-2-3.4-3.3-.7-.9-1.2-1.9-1.8-2.9-.9-1.5-1.7-3-2.5-4.5-1.3-2.3-3-4.4-4.8-6.2-2.5-2.5-5-4.9-7.5-7.4-1.4-1.5-3.1-2.6-5-3.4-4.3-1.8-7.8-4.8-11.1-8-.7-.6-1.2-1.4-1.4-2.3-.3-1.2.3-2.2 1.6-2.2.6 0 1.2.1 1.8.3 1.1.4 2.2.9 3.3 1.3.7.3 1.3.6 1.9 1 4 2.6 8.4 4.3 13 5.7 5.4 1.6 10.6 3.7 15.6 6.2 3.5 1.7 7 3.2 10.9 4.1 2.4.5 4.6 1.7 6.7 3 .9.6 1.7 1.3 2.2 2.3 1 1.9.5 3.9-1.4 5.1-.5.3-.9.6-1.2 1.1-1.6 2-2.7 2.6-5.3 2.6zM222.6 80.5c-.1 2.3-.7 4.3-1.4 6.3-.5 1.4-1.1 2.8-1.9 4.1-2.1 3.2-4.2 6.3-7.2 8.8-1.5 1.3-2.7 2.8-3.3 4.7-.1.3-.3.6-.4 1-1 1.9-3 2.7-5 1.8-.9-.4-1.8-.9-2.5-1.5-1.7-1.5-3.3-3.1-4.9-4.7-1.2-1.2-1.2-2.4-.3-3.8.5-.8 1.2-1.4 2-1.9 1.3-.7 2.5-1.4 3.8-1.9 5.1-2.1 9.1-5.6 12.6-9.7 1.1-1.3 2.2-2.6 3.3-3.8.5-.6 1.1-1.1 1.7-1.5 1.6-1 3-.4 3.4 1.4 0 .1.1.5.1.7z"/></g></svg>
