<?xml version="1.0" encoding="utf-8"?>
<!-- Generator: Adobe Illustrator 22.0.1, SVG Export Plug-In . SVG Version: 6.00 Build 0)  -->
<svg version="1.1" id="Calque_1" xmlns="http://www.w3.org/2000/svg" xmlns:xlink="http://www.w3.org/1999/xlink" x="0px" y="0px"
	 viewBox="0 0 432 432" style="enable-background:new 0 0 432 432;" xml:space="preserve">
<style type="text/css">
	path {
    fill: #ffffff;
  }
</style>
<g>
	<g>
		<path class="st60" d="M226.4,107.6c0-0.6,0-1.1-0.1-1.7c0-0.1-0.1-0.2-0.1-0.3c-0.3-0.4-0.6-0.7-1-1.1c-0.1-0.1-0.2-0.2-0.2-0.3
			c-0.1-0.1-0.1-0.2,0-0.4c0.1-0.1,0.2-0.1,0.3-0.1c0.1,0.1,0.3,0.2,0.4,0.2c0.2,0.2,0.4,0.4,0.6,0.6c0-0.1,0-0.2,0-0.2
			c0-0.4,0-0.8,0.1-1.2c0-0.2,0.1-0.4,0.2-0.6c0.2-0.4,0.6-0.4,0.8,0c0.2,0.4,0.3,0.8,0.4,1.3c0,0.3,0.1,0.6,0.1,0.9
			c0.1-0.1,0.2-0.2,0.3-0.3c0.2-0.3,0.5-0.5,0.7-0.8c0.1-0.1,0.2-0.2,0.3-0.2c0.1-0.1,0.2,0,0.3,0.1c0.1,0.1,0.1,0.2,0.1,0.3
			c0,0.1-0.1,0.2-0.2,0.3c-0.4,0.5-0.9,1-1.3,1.5c-0.1,0.1-0.2,0.2-0.1,0.3c0,0.7,0.1,1.3,0.1,2c0,0,0,0.1,0,0.2
			c0.1-0.1,0.2-0.2,0.3-0.3c0.6-0.6,1.2-1.3,1.7-1.9c0.1-0.1,0.1-0.1,0.2-0.2c0.2-0.1,0.3-0.1,0.5,0c0.1,0.1,0.1,0.3,0,0.5
			c0,0.1-0.1,0.1-0.1,0.2c-0.7,0.9-1.5,1.8-2.4,2.6c-0.1,0.1-0.2,0.2-0.2,0.4c0.1,1.4,0.1,2.8,0.2,4.1c0,0.1,0,0.1,0,0.2
			c0.1-0.1,0.1-0.2,0.2-0.2c1.3-2.2,2.7-4.5,3.8-6.8c0.2-0.5,0.5-0.9,0.8-1.3c0.3-0.4,0.6-0.7,1.1-0.8c1.1-0.3,2.3-0.6,3.4-0.9
			c0.3-0.1,0.6-0.1,1-0.1c0.2,0,0.3,0.1,0.4,0.3c0.2,1.1,0.1,2.1,0,3.2c-0.1,0.7-0.2,1.3-0.2,2c0,0.4-0.2,0.8-0.6,1.1
			c-0.3,0.2-0.6,0.4-0.9,0.6c-2.1,1.4-4.3,2.9-6.4,4.3c-0.4,0.2-0.7,0.5-1.1,0.7c-0.2,0.1-0.4,0.3-0.5,0.5c0.1,0,0.2,0,0.3,0
			c2.9-0.1,5.9-0.2,8.8-0.3c0.2,0,0.3-0.1,0.4-0.2c0.4-0.6,0.9-1.1,1.3-1.7c0.1-0.1,0.2-0.2,0.3-0.3c0.1-0.1,0.2-0.1,0.4,0
			c0.1,0.1,0.2,0.2,0.2,0.3c0,0.1-0.1,0.3-0.2,0.4c-0.2,0.3-0.5,0.6-0.7,0.9c-0.1,0.2-0.2,0.3-0.4,0.5c0.4,0,0.8,0,1.2,0
			c0.1,0,0.2-0.1,0.2-0.2c0.3-0.3,0.6-0.6,0.9-0.9c0.1-0.1,0.3-0.2,0.4-0.3c0.1-0.1,0.3-0.1,0.4,0c0.1,0.1,0.1,0.3,0,0.4
			c-0.1,0.2-0.3,0.3-0.4,0.5c-0.1,0.2-0.3,0.3-0.5,0.5c0.2,0,0.3,0,0.3,0c0.5,0,1,0,1.5,0c0.4,0,0.8,0.5,0.7,0.9
			c0,0.2-0.2,0.4-0.4,0.5c-0.4,0.1-0.7,0.2-1.1,0.2c-0.3,0-0.5,0-0.8,0c0.2,0.2,0.3,0.4,0.5,0.5c0.2,0.2,0.4,0.4,0.6,0.5
			c0.1,0.1,0.2,0.2,0.1,0.4c-0.1,0.2-0.3,0.3-0.5,0.2c-0.3-0.2-0.6-0.3-0.8-0.5c-0.4-0.3-0.7-0.6-1-0.9c-0.1-0.1-0.2-0.2-0.4-0.2
			c-0.3,0-0.6,0-0.9,0c0.1,0.1,0.2,0.2,0.2,0.3c0.4,0.4,0.8,0.8,1.2,1.3c0.1,0.1,0.3,0.3,0.4,0.4c0.1,0.2,0.1,0.3,0,0.5
			c-0.1,0.1-0.3,0.1-0.4,0c-0.2-0.1-0.3-0.2-0.4-0.3c-0.6-0.6-1.3-1.3-1.9-1.9c-0.1-0.1-0.2-0.2-0.4-0.2c-2.6,0.1-5.2,0.2-7.9,0.3
			c-0.1,0-0.1,0-0.3,0c0.1,0.1,0.2,0.1,0.2,0.1c2.2,1.1,4.5,2.2,6.8,3.1c0.7,0.3,1.5,0.5,2.2,0.8c0.4,0.1,0.7,0.3,1,0.4
			c0.3,0.1,0.5,0.4,0.5,0.7c0.2,1.3,0.3,2.7,0.3,4.1c0,0.1,0,0.2,0,0.3c0.1,0.6-0.3,1-0.8,1c-0.3,0-0.5-0.1-0.8-0.1
			c-0.4-0.1-0.8-0.1-1.2-0.1c-0.9-0.1-1.8-0.3-2.7-0.4c-0.4-0.1-0.7-0.2-0.9-0.5c-0.5-0.6-1.1-1.3-1.6-1.9c-1-1.3-1.9-2.5-2.8-3.8
			c-0.5-0.7-1-1.4-1.6-2.1c-0.1-0.1-0.1-0.1-0.2-0.2c-0.1,0.1-0.1,0.2-0.1,0.3c0.1,1.4,0.1,2.8,0.2,4.2c0,0.3,0,0.6,0,0.9
			c0,0.2,0.1,0.3,0.2,0.4c1.1,0.7,2.1,1.6,3.2,2.5c0.1,0.1,0.2,0.2,0.4,0.4c0.1,0.2,0.1,0.3,0,0.5c-0.1,0.1-0.3,0.2-0.5,0.1
			c-0.2-0.1-0.3-0.2-0.5-0.3c-0.8-0.6-1.6-1.3-2.4-1.9c-0.1-0.1-0.2-0.1-0.4-0.3c0,0.2,0,0.4,0,0.6c0,0.3,0,0.6,0.1,0.8
			c0.1,0.2,0.4,0.4,0.6,0.6c0.4,0.4,0.8,0.9,1.3,1.3c0.1,0.1,0.2,0.2,0.2,0.3c0.1,0.2,0.1,0.4,0,0.5c-0.1,0.1-0.3,0.1-0.5,0
			c-0.1-0.1-0.2-0.2-0.3-0.3c-0.3-0.3-0.6-0.6-0.9-0.9c-0.1-0.1-0.1-0.1-0.2-0.2c0,0.2,0,0.3,0,0.4c0,0.4,0,0.8,0,1.3
			c0,0.2,0,0.3-0.1,0.5c-0.1,0.4-0.4,0.6-0.8,0.6c-0.3,0-0.7-0.2-0.8-0.5c-0.1-0.2-0.1-0.4-0.1-0.5c0-0.5,0-1-0.1-1.4
			c0-0.1,0-0.2,0-0.4c-0.1,0.1-0.2,0.1-0.2,0.2c-0.3,0.4-0.7,0.7-1,1.1c-0.1,0.1-0.2,0.2-0.3,0.2c-0.1,0.1-0.2,0.1-0.3,0
			c-0.1-0.1-0.1-0.2,0-0.3c0.1-0.2,0.2-0.4,0.4-0.5c0.4-0.5,0.8-1,1.2-1.5c0.2-0.2,0.2-0.4,0.2-0.6c0-0.2,0-0.4,0-0.7
			c-0.1,0.1-0.2,0.1-0.3,0.2c-0.7,0.6-1.4,1.1-2.2,1.7c-0.2,0.1-0.3,0.2-0.5,0.3c-0.1,0.1-0.3,0.1-0.4-0.1c-0.1-0.1-0.1-0.3,0-0.4
			c0.1-0.1,0.2-0.2,0.3-0.3c0.3-0.3,0.6-0.5,0.9-0.8c0.6-0.5,1.2-1.1,1.8-1.6c0.1-0.1,0.2-0.2,0.2-0.4c-0.1-1.8-0.1-3.6-0.2-5.4
			c0-0.1,0-0.1,0-0.3c-0.1,0.1-0.1,0.2-0.1,0.2c-0.4,0.7-0.7,1.4-1.1,2.1c-0.7,1.4-1.4,2.8-2.2,4.2c-0.6,1.1-1.2,2.1-1.7,3.2
			c-0.2,0.4-0.5,0.6-0.9,0.6c-0.8,0.1-1.6,0.3-2.4,0.4c-0.3,0-0.5,0.1-0.8,0.1c-0.2,0-0.4,0.1-0.6,0.1c-0.6,0.2-1.1-0.1-1.2-0.7
			c0-0.4,0-0.7,0-1.1c0.1-1.1,0.2-2.2,0.3-3.3c0-0.3,0.2-0.5,0.4-0.7c0.1-0.1,0.1-0.1,0.2-0.2c2.1-1.6,4.2-3.3,6.2-5
			c0.4-0.3,0.8-0.7,1.2-1c0.1-0.1,0.1-0.1,0.2-0.2c-0.1,0-0.2,0-0.3,0c-1.9,0.1-3.7,0.1-5.6,0.2c-0.2,0-0.3,0.1-0.4,0.2
			c-0.6,0.8-1.2,1.5-1.8,2.2c-0.1,0.1-0.2,0.2-0.3,0.3c-0.1,0.1-0.2,0-0.4,0c-0.1-0.1-0.2-0.2-0.1-0.4c0.1-0.2,0.1-0.3,0.2-0.4
			c0.4-0.5,0.8-1,1.2-1.5c0.1-0.1,0.2-0.2,0.3-0.3c-0.1,0-0.2,0-0.2,0c-0.6,0-1.2,0-1.8,0c-0.2,0-0.3,0.1-0.4,0.2
			c-0.2,0.3-0.4,0.6-0.6,0.9c-0.1,0.2-0.2,0.3-0.4,0.5c-0.2,0.2-0.3,0.2-0.5,0.1c-0.1-0.1-0.2-0.3,0-0.5c0.2-0.3,0.4-0.6,0.6-0.9
			c0-0.1,0.1-0.1,0.1-0.2c-0.1,0-0.2,0-0.3,0c-0.5,0-1-0.1-1.4-0.1c-0.2,0-0.4-0.1-0.6-0.1c-0.2-0.1-0.4-0.1-0.4-0.4
			c0-0.2,0.2-0.3,0.4-0.4c0.4-0.1,0.7-0.2,1.1-0.3c0.3-0.1,0.5-0.1,0.8-0.1c-0.1-0.1-0.1-0.1-0.2-0.2c-0.2-0.2-0.4-0.4-0.6-0.5
			c-0.1-0.1-0.1-0.1-0.2-0.2c-0.1-0.2-0.1-0.4,0-0.5c0.1-0.1,0.3-0.1,0.5,0c0.3,0.3,0.7,0.5,1,0.8c0.4,0.4,0.7,0.5,1.3,0.5
			c0.4-0.1,0.9-0.1,1.3-0.1c0,0,0.1,0,0.2,0c-0.1-0.1-0.2-0.2-0.3-0.2c-0.5-0.5-1.1-0.9-1.6-1.4c-0.1-0.1-0.2-0.2-0.3-0.3
			c-0.1-0.1-0.1-0.3,0-0.4c0.1-0.1,0.2-0.1,0.3,0c0.2,0.1,0.4,0.3,0.6,0.4c0.8,0.6,1.5,1.2,2.3,1.8c0.1,0.1,0.2,0.1,0.4,0.1
			c2.3-0.1,4.6-0.2,6.9-0.2c0.1,0,0.1,0,0.3,0c-0.1-0.1-0.2-0.1-0.3-0.1c-2-0.8-4-1.5-5.9-2.4c-0.8-0.3-1.6-0.7-2.4-1.1
			c-0.3-0.2-0.6-0.4-0.7-0.8c-0.6-1.6-1.1-3.1-1.6-4.7c-0.1-0.2-0.1-0.4-0.1-0.6c-0.1-0.3,0-0.6,0.4-0.6c0.4-0.1,0.7-0.1,1.1,0
			c0.7,0.1,1.3,0.3,2,0.5c1.1,0.3,2.1,0.7,3.1,1c0.3,0.1,0.6,0.3,0.8,0.6c0.3,0.4,0.6,0.9,0.9,1.4c1,1.5,1.9,3,2.9,4.4
			c0.2,0.3,0.3,0.5,0.5,0.8c0.1,0.2,0.2,0.3,0.4,0.4c0-0.1,0-0.2,0-0.2c-0.1-1.8-0.2-3.7-0.2-5.5c0-0.2-0.1-0.3-0.2-0.4
			c-0.6-0.6-1.2-1.3-1.8-1.9c-0.1-0.1-0.1-0.1-0.2-0.2c-0.2-0.2-0.2-0.4-0.1-0.6c0.1-0.1,0.3-0.1,0.6,0c0.2,0.1,0.3,0.3,0.5,0.4
			c0.3,0.3,0.6,0.6,0.9,0.9c0.1,0.1,0.1,0.1,0.2,0.2C226.3,107.6,226.4,107.6,226.4,107.6z M240.4,126.4c0-0.1,0-0.1,0-0.1
			c-0.1-0.9-0.2-1.8-0.2-2.7c0-0.5-0.3-0.7-0.7-0.8c-0.7-0.2-1.4-0.4-2.1-0.7c-1.3-0.5-2.7-1.1-4-1.7c-0.1,0-0.2-0.1-0.3-0.1
			c0,0,0,0,0,0.1C235.5,122.3,238,124.4,240.4,126.4z M231.6,113.3C231.7,113.3,231.7,113.3,231.6,113.3c0.1,0,0.1,0,0.2,0
			c1.7-1.1,3.4-2.3,5.1-3.4c0.2-0.2,0.5-0.3,0.7-0.5c0.2-0.1,0.3-0.3,0.3-0.6c0.1-1,0.2-2,0.3-3.1c0-0.1,0-0.3,0-0.5
			C236.1,108,233.9,110.6,231.6,113.3z M215.7,108c0,0.2,0.1,0.3,0.1,0.4c0.2,0.7,0.5,1.4,0.7,2.1c0.1,0.4,0.3,0.7,0.4,1.1
			c0.1,0.2,0.2,0.3,0.4,0.4c0.8,0.4,1.5,0.7,2.3,1.1c1.2,0.5,2.3,0.9,3.5,1.4c0,0,0.1,0,0.2,0C220.8,112.3,218.3,110.1,215.7,108z
			 M230.9,120.8C230.9,120.8,230.9,120.8,230.9,120.8c0,0.1,0,0.2,0.1,0.2c1,1.5,2.2,3,3.3,4.5c0.3,0.4,0.7,0.8,1,1.3
			c0.1,0.2,0.3,0.3,0.5,0.3c0.9,0.1,1.8,0.3,2.7,0.4c0.1,0,0.2,0,0.3,0c0,0,0,0,0-0.1C236.2,125.2,233.6,123,230.9,120.8z
			 M216.6,128.1c2.5-2.9,5-5.8,7.5-8.8c-0.1,0-0.2,0.1-0.3,0.1c-0.8,0.7-1.7,1.5-2.6,2.2c-1.4,1.1-2.8,2.1-4.1,3.2
			c-0.1,0.1-0.3,0.2-0.3,0.4c-0.1,0.8-0.2,1.7-0.2,2.5C216.6,127.9,216.6,128,216.6,128.1z M218.1,129.2c0.1,0,0.2,0,0.2,0
			c0.8-0.1,1.6-0.3,2.4-0.4c0.2,0,0.2-0.1,0.3-0.2c0.6-1.1,1.1-2.2,1.7-3.2c0.6-1.1,1.1-2.2,1.6-3.3c0,0,0-0.1,0.1-0.1c0,0,0,0,0,0
			C222.3,124.3,220.2,126.7,218.1,129.2z M230.4,112C230.4,112,230.5,112,230.4,112c2.3-2.5,4.4-5.1,6.7-7.5
			c-0.9,0.2-1.7,0.5-2.5,0.7c-0.4,0.1-0.7,0.4-0.9,0.7c-0.3,0.6-0.6,1.1-0.9,1.7c-0.7,1.4-1.5,2.8-2.3,4.2
			C230.5,111.8,230.5,111.9,230.4,112z M216.9,106.8C216.9,106.9,216.8,106.9,216.9,106.8c2.4,2,4.8,4,7.2,6c0-0.2-0.1-0.3-0.2-0.4
			c-0.6-1-1.2-1.9-1.8-2.9c-0.2-0.3-0.5-0.7-0.7-1c-0.1-0.2-0.3-0.3-0.5-0.4c-1.3-0.4-2.5-0.8-3.8-1.2
			C217,106.9,216.9,106.9,216.9,106.8z"/>
		<path class="st60" d="M337.8,235.7c0.5-0.1,1-0.3,1.6-0.4c0.1,0,0.2-0.1,0.2-0.2c0.3-0.4,0.5-0.8,0.8-1.2c0.1-0.1,0.1-0.2,0.2-0.3
			c0.1-0.1,0.2-0.1,0.3-0.1c0.1,0.1,0.2,0.2,0.2,0.3c0,0.1-0.1,0.3-0.2,0.4c-0.1,0.2-0.3,0.4-0.4,0.7c0.1,0,0.2,0,0.2,0
			c0.4-0.1,0.8-0.2,1.2-0.2c0.2,0,0.4,0,0.6,0c0.4,0.1,0.5,0.5,0.2,0.8c-0.3,0.3-0.7,0.5-1.1,0.7c-0.3,0.1-0.5,0.2-0.8,0.3
			c0.1,0.1,0.2,0.1,0.3,0.2c0.3,0.2,0.6,0.3,0.9,0.5c0.1,0.1,0.2,0.2,0.3,0.3c0.1,0.1,0.1,0.2,0,0.3c-0.1,0.1-0.2,0.2-0.3,0.1
			c-0.1,0-0.2-0.1-0.3-0.1c-0.6-0.3-1.2-0.6-1.7-0.9c-0.1-0.1-0.2-0.1-0.3-0.1c-0.6,0.2-1.2,0.4-1.8,0.6c0,0-0.1,0-0.1,0.1
			c0.1,0.1,0.2,0.1,0.3,0.2c0.7,0.4,1.5,0.8,2.2,1.2c0.1,0,0.1,0.1,0.2,0.1c0.2,0.1,0.2,0.3,0.1,0.4c-0.1,0.1-0.2,0.2-0.4,0.1
			c-0.1,0-0.1-0.1-0.2-0.1c-1.1-0.5-2.1-1-3.1-1.6c-0.1-0.1-0.3-0.1-0.4-0.1c-1.3,0.4-2.6,0.8-3.9,1.2c-0.1,0-0.1,0-0.2,0.1
			c0.1,0,0.2,0.1,0.3,0.1c2.5,0.7,4.9,1.5,7.4,2c0.5,0.1,1,0.3,1.5,0.4c0.5,0.1,0.8,0.4,1.1,0.8c0.6,1,1.1,2,1.7,3
			c0.2,0.3,0.2,0.6,0.4,0.9c0.1,0.2,0,0.3-0.2,0.4c-1,0.4-2,0.6-3,0.8c-0.6,0.1-1.3,0.2-2,0.3c-0.4,0.1-0.8,0-1.1-0.3
			c-0.3-0.2-0.6-0.5-0.8-0.7c-1.9-1.7-3.7-3.4-5.6-5.1c-0.3-0.3-0.6-0.6-0.9-0.9c-0.2-0.2-0.4-0.3-0.6-0.4c0,0.1,0,0.2,0,0.3
			c0.8,2.8,1.6,5.5,2.4,8.3c0,0.2,0.1,0.3,0.3,0.3c0.6,0.3,1.3,0.6,1.9,0.9c0.1,0.1,0.2,0.1,0.3,0.2c0.1,0.1,0.2,0.2,0.1,0.3
			c0,0.1-0.2,0.2-0.3,0.2c-0.1,0-0.3,0-0.4-0.1c-0.4-0.1-0.7-0.3-1-0.4c-0.2-0.1-0.4-0.2-0.6-0.3c0.1,0.4,0.2,0.8,0.3,1.1
			c0,0.1,0.1,0.1,0.2,0.2c0.4,0.2,0.7,0.4,1.1,0.6c0.1,0.1,0.3,0.2,0.4,0.3c0.1,0.1,0.2,0.2,0.1,0.4c-0.1,0.1-0.2,0.2-0.4,0.1
			c-0.2-0.1-0.4-0.2-0.6-0.3c-0.2-0.1-0.3-0.2-0.6-0.3c0,0.2,0,0.2,0.1,0.3c0.1,0.5,0.3,0.9,0.4,1.4c0.1,0.4-0.3,0.9-0.7,0.9
			c-0.2,0-0.4-0.1-0.5-0.3c-0.2-0.3-0.4-0.6-0.5-1c-0.1-0.2-0.1-0.5-0.2-0.8c-0.2,0.2-0.3,0.4-0.4,0.6c-0.1,0.2-0.2,0.4-0.4,0.7
			c-0.1,0.1-0.2,0.2-0.3,0.2c-0.2,0-0.4-0.2-0.3-0.4c0.1-0.3,0.2-0.6,0.3-0.9c0.2-0.4,0.4-0.8,0.6-1.2c0.1-0.1,0.1-0.3,0.1-0.4
			c-0.1-0.3-0.2-0.5-0.3-0.9c-0.1,0.1-0.2,0.2-0.2,0.3c-0.3,0.5-0.6,1-0.9,1.5c-0.1,0.2-0.2,0.3-0.3,0.4c-0.1,0.2-0.3,0.2-0.4,0.1
			c-0.1-0.1-0.2-0.2-0.1-0.4c0-0.2,0.1-0.3,0.2-0.5c0.5-0.8,0.9-1.5,1.4-2.2c0.1-0.1,0.1-0.2,0.1-0.4c-0.7-2.5-1.4-5-2.1-7.4
			c0-0.1-0.1-0.1-0.1-0.2c0,0.1-0.1,0.2-0.1,0.2c-0.6,2.4-1,4.8-1.3,7.2c-0.1,0.8-0.1,1.5-0.2,2.3c0,0.4-0.1,0.7-0.1,1.1
			c-0.1,0.3-0.2,0.5-0.6,0.7c-1.2,0.5-2.5,1-3.8,1.3c-0.1,0-0.2,0.1-0.3,0.1c-0.5,0.2-1,0-1.1-0.6c-0.1-0.2-0.1-0.5-0.1-0.8
			c0-0.4-0.1-0.8-0.1-1.2c-0.1-0.9-0.2-1.8-0.2-2.7c0-0.4,0.1-0.7,0.3-1c0.5-0.7,1-1.3,1.5-2c1-1.2,2-2.4,2.9-3.6
			c0.5-0.7,1.1-1.3,1.6-2c0.1-0.1,0.1-0.1,0.2-0.2c-0.1-0.1-0.2,0-0.3,0c-1.3,0.4-2.6,0.8-4,1.2c-0.3,0.1-0.6,0.2-0.9,0.3
			c-0.2,0-0.3,0.1-0.3,0.3c-0.4,1.2-1,2.4-1.6,3.6c-0.1,0.1-0.2,0.3-0.3,0.4c-0.1,0.2-0.3,0.2-0.5,0.1c-0.2-0.1-0.2-0.2-0.2-0.4
			c0.1-0.2,0.1-0.3,0.2-0.5c0.4-0.9,0.8-1.8,1.2-2.7c0-0.1,0.1-0.2,0.2-0.4c-0.2,0.1-0.4,0.1-0.6,0.2c-0.3,0.1-0.6,0.1-0.8,0.3
			c-0.2,0.2-0.3,0.5-0.4,0.7c-0.3,0.5-0.6,1-0.9,1.5c-0.1,0.1-0.1,0.2-0.2,0.3c-0.2,0.2-0.3,0.2-0.5,0.1c-0.2-0.1-0.2-0.3-0.1-0.5
			c0.1-0.1,0.1-0.3,0.2-0.4c0.2-0.4,0.4-0.7,0.7-1.1c0-0.1,0.1-0.2,0.1-0.3c-0.1,0-0.2,0.1-0.3,0.1c-0.4,0.1-0.8,0.2-1.2,0.3
			c-0.2,0-0.3,0.1-0.5,0.1c-0.4,0-0.7-0.3-0.7-0.6c-0.1-0.3,0-0.7,0.3-0.9c0.1-0.1,0.3-0.2,0.5-0.2c0.4-0.1,0.9-0.3,1.4-0.4
			c0.1,0,0.2-0.1,0.4-0.1c-0.1-0.1-0.2-0.1-0.2-0.2c-0.4-0.2-0.9-0.5-1.3-0.7c-0.1-0.1-0.2-0.1-0.3-0.2c-0.1-0.1-0.1-0.2-0.1-0.3
			c0.1-0.1,0.2-0.1,0.3-0.1c0.2,0.1,0.4,0.1,0.6,0.2c0.6,0.3,1.1,0.5,1.7,0.8c0.2,0.1,0.4,0.1,0.6,0c0.2-0.1,0.4-0.1,0.6-0.2
			c-0.1-0.1-0.2-0.2-0.3-0.2c-0.7-0.6-1.4-1.1-2.1-1.7c-0.2-0.1-0.3-0.3-0.4-0.4c-0.1-0.1-0.1-0.2,0-0.4c0.1-0.1,0.2-0.1,0.4-0.1
			c0.1,0.1,0.2,0.1,0.3,0.2c0.3,0.2,0.6,0.5,1,0.7c0.6,0.5,1.3,0.9,1.9,1.4c0.1,0.1,0.3,0.1,0.5,0.1c1.7-0.5,3.4-1,5.1-1.5
			c0.1,0,0.1,0,0.3-0.1c-0.1,0-0.2-0.1-0.3-0.1c-0.7-0.2-1.5-0.4-2.2-0.5c-1.5-0.4-3-0.7-4.5-1.1c-1.2-0.3-2.3-0.6-3.5-0.9
			c-0.4-0.1-0.7-0.3-0.8-0.7c-0.3-0.7-0.6-1.4-0.9-2.1c-0.1-0.2-0.2-0.5-0.3-0.7c-0.1-0.2-0.2-0.4-0.3-0.5c-0.3-0.5-0.1-1.1,0.4-1.3
			c0.3-0.1,0.7-0.2,1-0.3c1.1-0.2,2.1-0.3,3.2-0.5c0.3,0,0.5,0,0.8,0.2c0.1,0.1,0.2,0.1,0.2,0.2c2,1.7,4.1,3.2,6.2,4.7
			c0.4,0.3,0.8,0.6,1.2,0.9c0.1,0,0.1,0.1,0.2,0.2c0-0.1,0-0.2,0-0.3c-0.5-1.8-1-3.5-1.5-5.3c0-0.2-0.1-0.3-0.3-0.3
			c-0.9-0.4-1.7-0.8-2.6-1.2c-0.1-0.1-0.2-0.2-0.3-0.3c-0.1-0.1-0.1-0.2-0.1-0.3c0.1-0.1,0.2-0.2,0.3-0.2c0.2,0,0.3,0.1,0.5,0.1
			c0.6,0.3,1.2,0.5,1.7,0.8c0.1,0.1,0.2,0.1,0.4,0.2c0-0.1,0-0.2,0-0.2c-0.1-0.6-0.3-1.1-0.4-1.7c0-0.2-0.1-0.3-0.3-0.3
			c-0.3-0.1-0.7-0.3-1-0.4c-0.2-0.1-0.4-0.2-0.5-0.3c-0.2-0.1-0.3-0.3-0.2-0.4c0.1-0.1,0.2-0.2,0.4-0.2c0.3,0.1,0.7,0.2,1,0.3
			c0.1,0,0.2,0,0.3,0.1c0-0.1,0-0.2,0-0.3c-0.1-0.5-0.2-0.9-0.2-1.4c0-0.2,0-0.4,0-0.6c0-0.2,0-0.4,0.3-0.5c0.2-0.1,0.4,0.1,0.5,0.3
			c0.2,0.3,0.4,0.7,0.5,1c0.1,0.2,0.2,0.5,0.3,0.8c0.1-0.1,0.1-0.1,0.1-0.2c0.1-0.2,0.2-0.5,0.4-0.7c0-0.1,0.1-0.1,0.1-0.2
			c0.1-0.2,0.3-0.2,0.5-0.1c0.2,0.1,0.2,0.2,0.1,0.5c-0.2,0.4-0.3,0.8-0.6,1.2c-0.3,0.4-0.3,0.8-0.1,1.3c0.2,0.4,0.3,0.8,0.4,1.2
			c0,0,0,0.1,0.1,0.2c0.1-0.1,0.1-0.2,0.2-0.3c0.3-0.6,0.6-1.2,0.9-1.9c0.1-0.1,0.2-0.2,0.3-0.3c0.1-0.1,0.2-0.2,0.4-0.1
			c0.1,0.1,0.1,0.2,0.1,0.3c-0.1,0.2-0.2,0.4-0.3,0.6c-0.4,0.9-0.8,1.7-1.1,2.6c-0.1,0.1-0.1,0.3,0,0.4c0.6,2.2,1.3,4.4,1.9,6.5
			c0,0.1,0,0.1,0.1,0.2c0-0.1,0.1-0.2,0.1-0.3c0.3-2.1,0.5-4.1,0.8-6.2c0.1-0.9,0.3-1.7,0.5-2.5c0.1-0.4,0.3-0.6,0.6-0.9
			c1.3-0.9,2.7-1.8,4.1-2.6c0.2-0.1,0.3-0.2,0.5-0.3c0.3-0.2,0.5-0.1,0.7,0.2c0.2,0.3,0.3,0.7,0.3,1c0,0.7,0,1.3,0,2
			c0,1.1-0.1,2.1-0.2,3.2c0,0.3-0.1,0.6-0.4,0.9c-0.4,0.4-0.7,0.8-1.1,1.2c-1.2,1.3-2.4,2.5-3.5,3.8c-0.2,0.2-0.4,0.4-0.6,0.7
			c-0.1,0.1-0.2,0.3-0.3,0.5c0.1,0,0.2,0,0.2,0c1.7-0.5,3.5-1,5.2-1.5c0.2,0,0.3-0.1,0.3-0.3c0.5-0.7,0.9-1.5,1.4-2.2
			c0-0.1,0.1-0.1,0.1-0.2c0.2-0.3,0.4-0.3,0.5-0.2c0.2,0.1,0.2,0.3,0.1,0.6c-0.1,0.2-0.2,0.4-0.3,0.6c-0.2,0.4-0.4,0.7-0.6,1.1
			C337.9,235.5,337.8,235.5,337.8,235.7C337.8,235.6,337.8,235.7,337.8,235.7z M323.3,253.6c0.1,0,0.1,0,0.1,0
			c0.9-0.3,1.7-0.6,2.6-0.9c0.5-0.1,0.6-0.4,0.6-0.9c0-0.7,0.1-1.5,0.2-2.2c0.2-1.4,0.4-2.8,0.6-4.2c0-0.1,0-0.2,0-0.3
			c0,0,0,0-0.1,0C326,247.9,324.7,250.7,323.3,253.6z M333.7,242C333.7,242.1,333.7,242.1,333.7,242c0,0.1,0,0.1,0.1,0.1
			c1.5,1.4,3,2.7,4.5,4.1c0.2,0.2,0.4,0.4,0.6,0.5c0.2,0.2,0.4,0.2,0.6,0.2c1-0.2,2-0.3,3-0.4c0.1,0,0.3-0.1,0.5-0.1
			C339.7,245.1,336.7,243.5,333.7,242z M334.9,225.6c-0.1,0.1-0.2,0.1-0.3,0.2c-0.6,0.4-1.2,0.8-1.8,1.2c-0.3,0.2-0.6,0.4-1,0.7
			c-0.2,0.1-0.3,0.3-0.3,0.5c-0.2,0.8-0.3,1.6-0.5,2.5c-0.2,1.2-0.3,2.5-0.5,3.7c0,0,0,0.1,0,0.2
			C332.1,231.5,333.5,228.6,334.9,225.6z M326.4,243.2C326.4,243.1,326.4,243.1,326.4,243.2c-0.1,0-0.1,0.1-0.2,0.1
			c-1.2,1.4-2.3,2.8-3.5,4.2c-0.3,0.4-0.6,0.9-1,1.3c-0.1,0.2-0.2,0.4-0.2,0.6c0.1,0.9,0.2,1.8,0.3,2.7c0,0.1,0,0.2,0.1,0.3
			c0,0,0,0,0.1,0C323.5,249.3,324.9,246.2,326.4,243.2z M316,231.3c3.4,1.7,6.8,3.3,10.1,5c0-0.1-0.1-0.2-0.2-0.2
			c-0.9-0.6-1.8-1.2-2.7-1.9c-1.4-1-2.7-2.1-4-3.2c-0.1-0.1-0.3-0.2-0.5-0.2c-0.8,0.1-1.6,0.2-2.5,0.4
			C316.2,231.3,316.1,231.3,316,231.3z M315.3,232.9c0,0.1,0,0.2,0.1,0.2c0.3,0.7,0.7,1.5,1,2.2c0.1,0.1,0.2,0.2,0.3,0.2
			c1.2,0.3,2.3,0.6,3.5,0.8c1.2,0.3,2.4,0.5,3.5,0.8c0,0,0.1,0,0.1,0c0,0,0,0,0,0C321,235.8,318.2,234.4,315.3,232.9z M334.6,240.6
			C334.6,240.6,334.6,240.6,334.6,240.6c2.9,1.5,5.9,3,8.8,4.6c-0.4-0.8-0.8-1.5-1.3-2.2c-0.2-0.4-0.5-0.6-0.9-0.7
			c-0.6-0.1-1.2-0.3-1.8-0.4c-1.5-0.3-3-0.7-4.5-1.2C334.8,240.6,334.7,240.6,334.6,240.6z M336.3,226.5
			C336.3,226.5,336.3,226.4,336.3,226.5c-1.3,2.8-2.7,5.5-4,8.3c0.1-0.1,0.2-0.2,0.3-0.3c0.8-0.8,1.6-1.6,2.3-2.5
			c0.3-0.3,0.5-0.6,0.8-0.9c0.2-0.2,0.2-0.4,0.2-0.6c0.1-1.3,0.2-2.6,0.3-3.9C336.3,226.6,336.3,226.5,336.3,226.5z"/>
		<path class="st60" d="M106.1,231.2c-0.2-0.9-0.5-1.8-0.7-2.7c0-0.1-0.2-0.3-0.3-0.4c-0.7-0.5-1.4-1-2-1.5
			c-0.2-0.1-0.3-0.3-0.5-0.4c-0.2-0.2-0.2-0.4-0.1-0.6c0.1-0.2,0.3-0.3,0.5-0.3c0.2,0.1,0.5,0.2,0.7,0.3c0.4,0.2,0.8,0.5,1.2,0.7
			c0-0.2,0-0.3,0-0.4c-0.1-0.7-0.2-1.4-0.3-2.1c0-0.4,0-0.8,0.1-1.1c0.2-0.7,0.8-0.9,1.3-0.4c0.6,0.5,0.8,1.2,1.1,1.9
			c0.2,0.4,0.3,0.9,0.5,1.4c0.1-0.2,0.2-0.4,0.3-0.5c0.3-0.5,0.6-1.1,0.9-1.6c0.1-0.2,0.3-0.4,0.5-0.5c0.2-0.2,0.4-0.2,0.6,0
			c0.2,0.1,0.3,0.3,0.2,0.5c0,0.2-0.1,0.4-0.2,0.6c-0.5,1-1.1,2-1.6,3c-0.1,0.2-0.2,0.4-0.1,0.6c0.3,1.1,0.6,2.1,1,3.2
			c0,0.1,0.1,0.1,0.1,0.3c0.1-0.2,0.2-0.4,0.3-0.5c0.7-1.3,1.4-2.5,2.2-3.8c0.1-0.1,0.1-0.2,0.2-0.4c0.2-0.3,0.5-0.4,0.7-0.2
			c0.2,0.1,0.3,0.4,0.2,0.7c0,0.1-0.1,0.2-0.1,0.3c-0.8,1.8-1.8,3.6-2.9,5.3c-0.2,0.2-0.2,0.5-0.1,0.7c0.6,2.3,1.2,4.5,1.9,6.8
			c0,0.1,0.1,0.2,0.1,0.4c0.1-0.2,0.1-0.3,0.2-0.4c1.4-4.2,2.7-8.5,3.7-12.8c0.2-0.8,0.5-1.7,0.7-2.5c0.3-0.8,0.7-1.4,1.5-1.8
			c1.8-0.9,3.5-1.9,5.3-2.8c0.5-0.3,1-0.4,1.5-0.6c0.3-0.1,0.6,0,0.7,0.4c0.7,1.7,1,3.5,1.2,5.3c0.1,1.1,0.3,2.3,0.4,3.4
			c0.1,0.8-0.1,1.4-0.6,2c-0.4,0.5-0.8,0.9-1.2,1.4c-3,3.2-6,6.4-9,9.6c-0.5,0.5-1,1.1-1.6,1.6c-0.3,0.3-0.5,0.6-0.6,1.1
			c0.2,0,0.3,0,0.4-0.1c4.8-1.3,9.7-2.5,14.5-3.8c0.3-0.1,0.5-0.2,0.6-0.5c0.5-1.1,1-2.2,1.6-3.3c0.1-0.2,0.2-0.4,0.3-0.6
			c0.1-0.2,0.3-0.3,0.6-0.2c0.2,0.1,0.4,0.3,0.4,0.5c0,0.2,0,0.5-0.1,0.7c-0.2,0.6-0.5,1.2-0.8,1.8c-0.1,0.3-0.3,0.6-0.5,1.1
			c0.7-0.2,1.3-0.3,1.9-0.5c0.1,0,0.2-0.2,0.3-0.4c0.4-0.6,0.8-1.2,1.2-1.9c0.2-0.3,0.4-0.5,0.6-0.7c0.2-0.2,0.4-0.3,0.6-0.1
			c0.2,0.1,0.3,0.4,0.2,0.7c-0.1,0.3-0.3,0.6-0.5,0.9c-0.2,0.3-0.4,0.6-0.6,1c0.3-0.1,0.4-0.1,0.6-0.1c0.8-0.2,1.6-0.4,2.4-0.6
			c0.7-0.2,1.5,0.5,1.6,1.2c0,0.4-0.2,0.7-0.5,0.9c-0.5,0.3-1.1,0.6-1.7,0.8c-0.4,0.1-0.9,0.2-1.4,0.4c0.4,0.4,0.7,0.5,1.1,0.7
			c0.4,0.2,0.8,0.4,1.2,0.7c0.2,0.1,0.4,0.3,0.4,0.5c0,0.4-0.3,0.7-0.8,0.6c-0.5-0.2-1-0.4-1.5-0.6c-0.7-0.3-1.4-0.7-2.1-1.1
			c-0.2-0.1-0.5-0.2-0.8-0.1c-0.5,0.1-0.9,0.3-1.5,0.4c0.2,0.2,0.3,0.3,0.5,0.4c0.8,0.5,1.7,1.1,2.5,1.6c0.3,0.2,0.5,0.4,0.8,0.6
			c0.3,0.2,0.3,0.5,0.2,0.8c-0.1,0.2-0.4,0.3-0.7,0.2c-0.3-0.1-0.6-0.2-0.8-0.4c-1.3-0.8-2.6-1.7-3.8-2.5c-0.2-0.2-0.4-0.2-0.7-0.1
			c-4.3,1.2-8.6,2.3-13,3.5c-0.1,0-0.2,0.1-0.4,0.2c0.2,0.1,0.3,0.1,0.4,0.1c4.1,1,8.2,1.9,12.4,2.5c1.3,0.2,2.6,0.3,3.9,0.5
			c0.6,0.1,1.3,0.2,1.9,0.3c0.6,0.1,0.9,0.4,1.2,1c0.9,2.1,1.6,4.4,2.1,6.6c0,0.2,0.1,0.4,0.2,0.5c0.4,0.9-0.1,1.8-1,2
			c-0.4,0.1-0.9,0.1-1.3,0.1c-0.7,0.1-1.4,0.2-2.1,0.2c-1.5,0.1-3.1,0.2-4.6,0.3c-0.6,0-1.2-0.1-1.7-0.5c-1.1-0.9-2.3-1.7-3.4-2.6
			c-2.1-1.7-4.1-3.5-6.2-5.2c-1.1-1-2.3-1.9-3.4-2.9c-0.1-0.1-0.3-0.2-0.4-0.3c-0.1,0.2,0,0.4,0,0.5c0.6,2.3,1.3,4.6,1.9,6.9
			c0.1,0.5,0.3,1,0.4,1.5c0.1,0.3,0.2,0.4,0.5,0.6c2.1,0.8,4.2,1.9,6.2,2.9c0.3,0.1,0.5,0.3,0.7,0.4c0.3,0.2,0.4,0.5,0.2,0.8
			c-0.1,0.3-0.4,0.4-0.8,0.3c-0.3-0.1-0.6-0.3-0.9-0.4c-1.6-0.7-3.1-1.5-4.7-2.2c-0.2-0.1-0.4-0.2-0.7-0.3c0.1,0.4,0.2,0.7,0.2,1
			c0.1,0.5,0.2,1,0.4,1.4c0.3,0.4,0.8,0.5,1.2,0.8c0.9,0.6,1.7,1.1,2.6,1.7c0.2,0.1,0.3,0.2,0.5,0.4c0.3,0.3,0.4,0.6,0.2,0.9
			c-0.2,0.3-0.5,0.3-0.9,0.2c-0.2-0.1-0.4-0.2-0.7-0.4c-0.6-0.4-1.3-0.8-1.9-1.2c-0.1-0.1-0.3-0.1-0.5-0.3c0.1,0.3,0.1,0.4,0.1,0.6
			c0.2,0.7,0.4,1.4,0.5,2.1c0.1,0.3,0.1,0.6,0.1,0.8c0,0.6-0.5,1.1-1,1.3c-0.6,0.2-1.2,0-1.5-0.5c-0.2-0.3-0.3-0.6-0.4-0.9
			c-0.2-0.8-0.4-1.6-0.7-2.4c-0.1-0.2-0.1-0.4-0.2-0.6c-0.1,0.2-0.2,0.3-0.3,0.4c-0.4,0.7-0.8,1.5-1.2,2.2c-0.1,0.2-0.2,0.4-0.4,0.5
			c-0.2,0.2-0.4,0.2-0.6,0.1c-0.2-0.1-0.2-0.3-0.2-0.5c0.1-0.4,0.2-0.7,0.4-1c0.5-1,1-1.9,1.5-2.9c0.2-0.4,0.2-0.7,0.1-1.1
			c-0.1-0.3-0.2-0.7-0.3-1.1c-0.2,0.2-0.3,0.3-0.4,0.4c-1,1.2-1.9,2.5-2.9,3.7c-0.2,0.3-0.5,0.5-0.7,0.7c-0.2,0.2-0.4,0.2-0.6,0
			c-0.2-0.2-0.2-0.4-0.1-0.6c0.1-0.2,0.2-0.4,0.3-0.5c0.4-0.6,0.8-1.1,1.3-1.7c0.8-1.1,1.6-2.2,2.4-3.3c0.2-0.3,0.2-0.5,0.1-0.8
			c-0.8-3-1.6-5.9-2.4-8.9c0-0.1-0.1-0.2-0.2-0.4c-0.1,0.2-0.1,0.3-0.1,0.5c-0.3,1.3-0.7,2.5-1,3.8c-0.7,2.6-1.3,5.2-2,7.8
			c-0.5,2-1.1,4-1.6,6c-0.2,0.7-0.6,1.1-1.3,1.4c-1.3,0.5-2.5,1-3.7,1.6c-0.4,0.2-0.9,0.3-1.3,0.5c-0.3,0.1-0.6,0.3-0.9,0.4
			c-0.9,0.5-1.9,0.2-2.2-0.8c-0.2-0.6-0.3-1.2-0.4-1.8c-0.3-1.8-0.5-3.7-0.7-5.6c-0.1-0.5,0-0.9,0.4-1.3c0.1-0.1,0.2-0.3,0.3-0.4
			c2.9-3.4,5.7-7,8.4-10.7c0.5-0.7,1.1-1.4,1.6-2.1c0.1-0.1,0.2-0.2,0.3-0.4c-0.2,0-0.3,0-0.5,0.1c-3.1,0.8-6.2,1.6-9.2,2.4
			c-0.3,0.1-0.5,0.2-0.6,0.5c-0.7,1.5-1.4,2.9-2.2,4.4c-0.1,0.2-0.3,0.4-0.5,0.6c-0.2,0.2-0.4,0.2-0.6,0.1c-0.2-0.1-0.4-0.3-0.3-0.6
			c0-0.3,0.1-0.6,0.2-0.8c0.5-1,1-2,1.5-3c0.1-0.2,0.2-0.4,0.3-0.6c-0.2,0-0.3,0-0.4,0.1c-1,0.2-1.9,0.5-2.9,0.7
			c-0.3,0.1-0.4,0.2-0.5,0.4c-0.2,0.6-0.5,1.2-0.7,1.8c-0.1,0.3-0.3,0.6-0.5,0.9c-0.2,0.3-0.5,0.4-0.8,0.3c-0.2-0.1-0.4-0.4-0.3-0.7
			c0.2-0.6,0.4-1.1,0.6-1.7c0-0.1,0.1-0.3,0.2-0.5c-0.2,0-0.3,0-0.4,0c-0.8,0.1-1.6,0.3-2.4,0.4c-0.3,0-0.7,0-1.1,0
			c-0.3,0-0.7-0.1-0.8-0.5c-0.1-0.4,0.2-0.6,0.5-0.8c0.6-0.3,1.2-0.6,1.8-0.9c0.4-0.2,0.9-0.3,1.3-0.5c-0.1-0.1-0.2-0.2-0.3-0.2
			c-0.4-0.2-0.8-0.4-1.2-0.7c-0.1-0.1-0.2-0.2-0.3-0.3c-0.3-0.3-0.4-0.6-0.2-0.9c0.2-0.3,0.4-0.3,0.8-0.2c0.7,0.3,1.4,0.6,2,1
			c0.7,0.5,1.4,0.6,2.3,0.3c0.7-0.3,1.4-0.4,2.1-0.6c0.1,0,0.2-0.1,0.3-0.1c-0.2-0.1-0.4-0.2-0.6-0.3c-1.1-0.6-2.1-1.1-3.2-1.7
			c-0.2-0.1-0.4-0.3-0.6-0.5c-0.2-0.2-0.3-0.4-0.1-0.6c0.1-0.2,0.4-0.2,0.6-0.1c0.4,0.2,0.7,0.4,1.1,0.5c1.5,0.7,2.9,1.4,4.4,2
			c0.2,0.1,0.5,0.1,0.7,0.1c3.8-1,7.6-2,11.4-3c0.1,0,0.2-0.1,0.4-0.1c-0.2-0.1-0.4-0.1-0.5-0.1c-3.6-0.5-7.1-1.1-10.7-1.6
			c-1.5-0.2-2.9-0.6-4.4-1c-0.6-0.1-1.1-0.5-1.5-1.1c-1.5-2.4-3.1-4.7-4.4-7.2c-0.2-0.3-0.3-0.6-0.5-0.9c-0.3-0.5-0.2-0.9,0.3-1.2
			c0.6-0.3,1.2-0.5,1.8-0.5c1.2,0,2.3,0,3.5,0.1c1.9,0.1,3.7,0.3,5.6,0.4c0.6,0,1.1,0.2,1.5,0.6c0.7,0.6,1.3,1.3,2,1.9
			c2.1,2.1,4.3,4.2,6.4,6.3c0.4,0.4,0.8,0.7,1.1,1.1c0.2,0.2,0.5,0.4,0.9,0.5c0-0.2,0-0.3-0.1-0.4c-0.8-3-1.7-6-2.5-9.1
			c-0.1-0.3-0.2-0.5-0.5-0.6c-1.2-0.8-2.5-1.7-3.7-2.5c-0.1-0.1-0.2-0.2-0.4-0.2c-0.4-0.3-0.6-0.6-0.4-0.9c0.2-0.3,0.5-0.3,1-0.1
			c0.3,0.1,0.7,0.3,1,0.5c0.6,0.4,1.2,0.8,1.8,1.1c0.1,0.1,0.2,0.2,0.4,0.3C106,231.3,106,231.3,106.1,231.2z M136.6,257.1
			c0-0.1,0-0.2,0-0.2c-0.5-1.5-1-3-1.4-4.5c-0.2-0.9-0.7-1.1-1.5-1.1c-1.3-0.1-2.6-0.1-3.8-0.3c-2.4-0.4-4.8-0.8-7.2-1.3
			c-0.2,0-0.3-0.1-0.5-0.1c0,0,0,0.1,0,0.1C126.9,252.2,131.7,254.6,136.6,257.1z M116.9,238.6C117,238.6,117,238.7,116.9,238.6
			c0.1,0,0.2,0,0.2-0.1c2.4-2.5,4.8-5.1,7.2-7.6c0.3-0.3,0.6-0.7,1-1.1c0.3-0.3,0.4-0.6,0.3-1.1c-0.2-1.7-0.4-3.5-0.6-5.2
			c0-0.2-0.1-0.5-0.2-0.8C122.4,228.3,119.6,233.4,116.9,238.6z M88.5,236c0.1,0.2,0.2,0.4,0.3,0.6c0.7,1.1,1.3,2.1,2,3.2
			c0.4,0.6,0.7,1.1,1.1,1.7c0.2,0.3,0.5,0.5,0.8,0.5c1.4,0.3,2.8,0.7,4.3,0.9c2.1,0.4,4.3,0.7,6.4,1c0.1,0,0.1,0,0.3,0
			C98.6,241.1,93.6,238.6,88.5,236z M118.6,251.3C118.6,251.4,118.6,251.4,118.6,251.3c0,0.2,0.1,0.2,0.2,0.3
			c2.3,2.2,4.8,4.2,7.2,6.1c0.7,0.6,1.5,1.1,2.2,1.7c0.3,0.2,0.6,0.3,1,0.3c1.5-0.1,3.1-0.2,4.6-0.3c0.2,0,0.3-0.1,0.5-0.1
			c0,0,0-0.1,0-0.1C129.1,256.6,123.9,254,118.6,251.3z M97.8,269c3-5.8,6-11.6,9-17.4c-0.2,0.1-0.3,0.2-0.4,0.3
			c-1.1,1.5-2.2,3.1-3.4,4.6c-1.8,2.3-3.7,4.6-5.6,6.9c-0.2,0.2-0.3,0.5-0.3,0.8c0.2,1.4,0.4,2.9,0.6,4.3
			C97.7,268.7,97.7,268.8,97.8,269z M100.5,270.2c0.2,0,0.3-0.1,0.4-0.1c1.3-0.5,2.6-1.1,3.9-1.6c0.3-0.1,0.4-0.3,0.4-0.5
			c0.5-2,1.1-4,1.6-6c0.5-2,1-4.1,1.5-6.1c0-0.1,0-0.2,0-0.2c0,0,0,0-0.1,0C105.6,260.4,103.1,265.3,100.5,270.2z M114.4,237
			C114.5,237,114.5,237,114.4,237c2.8-5,5.4-10.1,8.3-15.1c-1.3,0.7-2.6,1.4-3.9,2.1c-0.6,0.3-1,0.9-1.2,1.6c-0.3,1-0.6,2.1-0.8,3.1
			c-0.6,2.6-1.3,5.2-2.2,7.8C114.5,236.6,114.5,236.8,114.4,237z M90,233.6C90,233.7,90,233.7,90,233.6c4.7,2.4,9.5,4.8,14.2,7.1
			c-0.1-0.2-0.3-0.4-0.5-0.6c-1.4-1.4-2.8-2.8-4.2-4.1c-0.5-0.5-1-1-1.5-1.4c-0.3-0.3-0.6-0.4-1-0.4c-2.2-0.2-4.5-0.4-6.7-0.6
			C90.2,233.6,90.1,233.6,90,233.6z"/>
		<path class="st60" d="M294.7,144.2c1.3-0.6,2.7-1.3,4-1.9c0.5-0.2,1-0.5,1.6-0.6c1.3-0.4,2.1,0.3,1.8,1.6c-0.5,2.4-1,4.9-1.5,7.3
			c0,0.2-0.1,0.4-0.1,0.6c2.1,1.6,3.8,3.5,5.7,5.3c0.4,0.4,0.8,0.8,1.2,1.3c0.7,0.7,0.8,1.4,0.3,2.2c-0.3,0.6-0.7,1.1-1.1,1.7
			c-1.2,1.5-2.3,3-3.5,4.5c-0.3,0.4-0.7,0.8-1.1,1.1c-0.4,0.3-0.4,0.6-0.3,1.1c0.4,1.3,0.8,2.6,1.2,3.9c0.2,0.8,0.5,1.6,0.7,2.4
			c0.3,1.3-0.6,2.6-2.2,2.2c-1-0.3-2.1-0.5-3.1-0.8c-0.3-0.1-0.5,0-0.7,0.1c-2.4,1.7-4.8,3.3-7.3,4.9c-0.8,0.5-1.7,0.9-2.5,1.3
			c-0.9,0.5-1.8,0.4-2.7-0.2c-2.6-1.6-5.1-3.4-7.5-5.4c-1,0.3-2,0.6-3,0.9c-0.5,0.1-1,0.3-1.5,0.4c-1,0.2-1.6-0.3-1.6-1.3
			c0.1-0.7,0.2-1.5,0.3-2.2c0.3-1.8,0.6-3.7,0.9-5.5c0.1-0.4-0.1-0.7-0.4-0.9c-2.1-1.7-3.7-3.7-5.5-5.6c-0.4-0.4-0.7-0.9-1.1-1.4
			c-0.3-0.5-0.4-1,0-1.6c0.5-0.6,0.9-1.3,1.5-2c1.1-1.3,2.2-2.5,3.3-3.7c0.5-0.5,1-1,1.6-1.5c-0.2-0.5-0.5-1.1-0.7-1.7
			c-0.7-1.7-1.4-3.5-2.1-5.2c-0.1-0.3-0.2-0.5-0.2-0.8c-0.1-1.4,0.7-2.1,2.1-1.9c1.5,0.2,3.1,0.7,4.6,1.1c0.6,0.2,1.3,0.4,1.9,0.6
			c0.3,0.1,0.5,0.1,0.7-0.1c1.6-1.4,3.2-2.7,4.8-4.1c0.4-0.3,0.7-0.6,1.1-1c0.6-0.6,1.2-0.7,2-0.4c0.3,0.1,0.7,0.3,1,0.5
			c2.1,1.3,4.3,2.7,6.4,4C294.1,143.6,294.4,143.9,294.7,144.2z M289.9,161.2c0,0.1,0,0.1-0.1,0.2c2.5,2.5,5,5,7.6,7.5
			c0.7,0.7,1.4,1.3,2.1,2c0,0,0.1,0,0.1,0c0,0,0,0,0.1-0.1c-1-3.2-2-6.4-3-9.7C294.3,161,292.1,161.1,289.9,161.2z M284.8,149.6
			c-1.7-0.8-9.6-3.6-10.2-3.6c3.4,3.3,6.8,6.7,10.2,10.2C284.8,153.9,284.8,151.7,284.8,149.6z M283.5,161.5c0-0.1-0.1-0.1-0.1-0.2
			c-2.2,0.1-4.3,0.1-6.5,0.2c-0.6,3.1-1.4,9.1-1.3,9.6C278.2,167.8,280.8,164.6,283.5,161.5z M288.6,171.1c2.8,0.7,5.7,1.4,8.6,2.2
			c-0.1-0.2-0.2-0.3-0.3-0.4c-2.7-2.6-5.4-5.1-8-7.6c-0.1-0.1-0.3-0.2-0.5-0.3C288.5,167.1,288.5,169.1,288.6,171.1z M285,165.1
			c-0.1,0-0.1,0-0.2-0.1c-2.6,3-5.2,5.9-7.7,9c0.9-0.1,7-2.4,8-3.1C285.1,169,285.1,167,285,165.1z M288,155.8c0.1,0,0.1,0,0.2,0.1
			c0.2-0.2,0.3-0.4,0.5-0.6c1.1-1.3,2.3-2.5,3.3-3.8c1.3-1.5,2.6-3.1,3.9-4.7c0.1-0.1,0.1-0.3,0.2-0.5c-2.9,1.4-5.6,2.8-8.3,4.2
			C287.9,152.3,287.9,154.1,288,155.8z M273,149.4c1.3,3,2.6,5.9,3.9,8.9c1.4,0.1,4.4,0,4.8-0.2C278.9,155.1,276.2,152,273,149.4z
			 M298.1,149.8c0,0-0.1,0-0.1,0c-2.3,2.7-4.6,5.5-7,8.3c1.9-0.1,3.7-0.1,5.4-0.2C297,155.2,297.5,152.5,298.1,149.8z M294.4,175
			c-2-0.6-3.9-1.2-5.8-1.8c0.1,1.8,0.1,3.6,0.2,5.5C290.7,177.5,292.5,176.3,294.4,175z M280.5,176c1.7,1.2,3.2,2.4,4.9,3.4
			c0.1-0.9,0-4.7-0.3-5.3C283.7,174.7,282.2,175.3,280.5,176z M292.1,145.5c-1.7-1-3.2-2.2-5-3.1c0.1,1.9,0.3,3.6,0.4,5.4
			C289.1,147.1,290.5,146.3,292.1,145.5z M269.2,161.4c1.4,1.4,2.8,2.7,4.2,4.1c0.3-1.4,0.5-2.7,0.7-4
			C272.5,161.4,271,161.4,269.2,161.4z M284.9,142.3c-1.4,1.1-2.8,2.1-4.2,3.2c1.4,0.5,2.7,1,4.1,1.5
			C284.8,145.4,284.9,144,284.9,142.3z M303.5,157.8c-1.2-1.3-2.4-2.5-3.6-3.8c-0.5,1.3-0.7,2.6-0.9,3.9
			C300.5,157.9,301.9,157.8,303.5,157.8z M300.6,164.5c1-1.3,1.8-2.4,2.8-3.7c-1.5,0-2.7,0.1-4,0.1
			C299.8,162.1,300.2,163.2,300.6,164.5z M274.8,158.4c-0.5-1.1-0.9-2.1-1.4-3.2c-1.1,1.2-2,2.2-3.1,3.4
			C271.9,158.5,273.3,158.5,274.8,158.4z"/>
		<path class="st60" d="M240.9,190c0.8,0.3,1.6,0.6,2.3,0.9c0.3,0.1,0.6,0.3,0.9,0.4c0.7,0.4,0.7,1,0,1.4c-1.2,0.7-2.4,1.5-3.6,2.2
			c-0.1,0.1-0.2,0.1-0.3,0.2c0.2,1.5,0,3,0,4.5c0,0.3,0,0.7,0,1c0,0.6-0.3,0.9-0.8,1c-0.4,0.1-0.8,0.1-1.1,0.2
			c-1.1,0.1-2.2,0.2-3.3,0.3c-0.3,0-0.6,0-0.9,0c-0.3,0-0.4,0.1-0.6,0.3c-0.4,0.7-0.8,1.4-1.2,2c-0.2,0.4-0.5,0.9-0.8,1.2
			c-0.5,0.6-1.3,0.8-1.8-0.1c-0.3-0.5-0.6-1.1-0.9-1.6c-0.1-0.1-0.2-0.2-0.3-0.2c-1.6-0.4-3.3-0.7-4.9-1.1c-0.5-0.1-1-0.4-1.5-0.5
			c-0.6-0.2-0.9-0.6-1-1.2c-0.3-1.7-0.6-3.4-0.7-5.2c-0.5-0.3-1-0.6-1.5-0.9c-0.3-0.2-0.5-0.3-0.7-0.5c-0.5-0.3-0.5-0.8-0.1-1.2
			c0.3-0.3,0.7-0.5,1-0.7c0.9-0.6,1.8-1.2,2.7-1.8c0.2-0.1,0.3-0.3,0.2-0.5c-0.1-1.5,0.1-3,0.2-4.5c0-0.3,0.1-0.7,0.2-1
			c0.1-0.3,0.3-0.6,0.7-0.6c0.5,0,0.9-0.1,1.4-0.2c0.9,0,1.9-0.1,2.8-0.1c0.4,0,0.8,0,1.3,0.1c0.1-0.3,0.3-0.6,0.4-1
			c0.5-1,0.9-1.9,1.4-2.9c0.1-0.1,0.2-0.3,0.3-0.4c0.5-0.6,1.1-0.5,1.6,0.1c0.5,0.7,0.9,1.5,1.3,2.3c0.2,0.3,0.3,0.7,0.5,1
			c0.1,0.1,0.2,0.2,0.3,0.2c1.2,0.1,2.4,0.3,3.6,0.4c0.3,0,0.6,0.1,0.8,0.1c0.5,0,0.8,0.2,1,0.7c0.1,0.2,0.2,0.4,0.2,0.6
			c0.3,1.4,0.5,2.8,0.8,4.2C240.9,189.5,240.9,189.8,240.9,190z M231.9,194.6C231.9,194.6,231.8,194.6,231.9,194.6
			c-0.1,2.1-0.2,4.1-0.3,6.1c0,0.5,0,1.1,0,1.6c0,0,0,0,0,0c0,0,0,0,0.1,0c0.9-1.7,1.9-3.3,2.9-5
			C233.7,196.4,232.8,195.5,231.9,194.6z M234.8,188c-0.3-1-2.2-5.4-2.5-5.7c-0.1,2.7-0.2,5.4-0.3,8.2
			C233,189.7,233.9,188.8,234.8,188z M229.3,192c0,0,0-0.1,0-0.1c-0.9-0.9-1.7-1.8-2.6-2.6c-1.5,1-4.3,2.9-4.5,3.2
			C224.6,192.3,226.9,192.2,229.3,192z M227.3,197.9c0.8,1.5,1.6,2.9,2.4,4.5c0-0.1,0-0.2,0-0.3c0-2.1,0-4.2,0.1-6.3
			c0-0.1,0-0.2-0.1-0.3C228.9,196.3,228.1,197.1,227.3,197.9z M228.4,194.1C228.4,194.1,228.3,194,228.4,194.1c-2.3,0-4.5,0-6.8,0.2
			c0.4,0.4,3.7,2,4.4,2.2C226.8,195.7,227.6,194.9,228.4,194.1z M233.4,191.7c0,0,0,0.1,0.1,0.1c0.1,0,0.3,0,0.4,0
			c1,0,1.9,0,2.9-0.1c1.2-0.1,2.3-0.1,3.5-0.2c0.1,0,0.2,0,0.3-0.1c-1.7-0.6-3.4-1.3-5-1.9C234.8,190.3,234.1,191,233.4,191.7z
			 M230.3,183c-0.7,1.7-1.5,3.4-2.2,5.1c0.5,0.6,1.7,1.8,2,1.9C230.2,187.7,230.4,185.3,230.3,183z M239.9,193.6
			C239.9,193.6,239.9,193.6,239.9,193.6c-2.1,0-4.1,0.1-6.2,0.2c0.8,0.8,1.5,1.5,2.2,2.2C237.2,195.3,238.5,194.4,239.9,193.6z
			 M227.9,201.9c-0.5-1.1-1-2.1-1.5-3.1c-0.7,0.7-1.5,1.5-2.2,2.2C225.4,201.3,226.6,201.6,227.9,201.9z M222.1,196.5
			c0.1,1.2,0.3,2.3,0.5,3.4c0.4-0.3,2-1.9,2.1-2.2C223.8,197.3,223,196.9,222.1,196.5z M239.3,189.5c-0.2-1.1-0.4-2.2-0.6-3.3
			c-0.7,0.8-1.4,1.5-2.1,2.3C237.5,188.8,238.4,189.1,239.3,189.5z M223.8,186c0,1.2-0.1,2.2-0.1,3.4c0.7-0.4,1.3-0.8,2-1.3
			C225,187.5,224.4,186.8,223.8,186z M237.9,185.2c-1-0.2-2-0.3-3-0.5c0.3,0.8,0.6,1.5,1,2.3C236.5,186.4,237.2,185.8,237.9,185.2z
			 M238.6,199c0.1-1,0.1-2,0.2-3c-0.7,0.3-1.4,0.7-2,1.1C237.4,197.8,238,198.3,238.6,199z M234.7,200.4c0.9-0.1,1.7-0.2,2.6-0.3
			c-0.6-0.6-1.1-1.1-1.6-1.6C235.4,199.1,235.1,199.7,234.7,200.4z M227.2,187.2c0.3-0.7,0.5-1.2,0.8-1.9c-0.9,0-1.7,0-2.6,0
			C226,186.1,226.6,186.6,227.2,187.2z"/>
		<path class="st60" d="M170.2,110.1c0.5-0.3,1.1-0.5,1.6-0.8c0.2-0.1,0.4-0.2,0.6-0.3c0.5-0.2,0.8,0.1,0.7,0.6
			c-0.2,1-0.4,2-0.6,2.9c0,0.1,0,0.2,0,0.2c0.9,0.6,1.5,1.4,2.3,2.1c0.2,0.2,0.3,0.3,0.5,0.5c0.3,0.3,0.3,0.5,0.1,0.9
			c-0.1,0.2-0.3,0.5-0.4,0.7c-0.5,0.6-0.9,1.2-1.4,1.8c-0.1,0.2-0.3,0.3-0.4,0.4c-0.1,0.1-0.2,0.3-0.1,0.4c0.2,0.5,0.3,1,0.5,1.6
			c0.1,0.3,0.2,0.6,0.3,1c0.1,0.5-0.2,1.1-0.9,0.9c-0.4-0.1-0.8-0.2-1.3-0.3c-0.1,0-0.2,0-0.3,0.1c-1,0.7-1.9,1.3-2.9,2
			c-0.3,0.2-0.7,0.4-1,0.5c-0.4,0.2-0.7,0.2-1.1-0.1c-1-0.6-2-1.3-3-2.1c-0.4,0.1-0.8,0.2-1.2,0.3c-0.2,0.1-0.4,0.1-0.6,0.2
			c-0.4,0.1-0.7-0.1-0.6-0.5c0-0.3,0.1-0.6,0.1-0.9c0.1-0.7,0.2-1.5,0.4-2.2c0-0.2,0-0.3-0.1-0.4c-0.8-0.7-1.5-1.5-2.2-2.2
			c-0.2-0.2-0.3-0.4-0.4-0.6c-0.1-0.2-0.2-0.4,0-0.6c0.2-0.3,0.4-0.5,0.6-0.8c0.4-0.5,0.9-1,1.3-1.5c0.2-0.2,0.4-0.4,0.6-0.6
			c-0.1-0.2-0.2-0.4-0.3-0.7c-0.3-0.7-0.6-1.4-0.8-2.1c0-0.1-0.1-0.2-0.1-0.3c-0.1-0.6,0.3-0.8,0.8-0.8c0.6,0.1,1.2,0.3,1.8,0.4
			c0.3,0.1,0.5,0.2,0.8,0.2c0.1,0,0.2,0,0.3-0.1c0.6-0.5,1.3-1.1,1.9-1.6c0.1-0.1,0.3-0.3,0.4-0.4c0.2-0.2,0.5-0.3,0.8-0.2
			c0.1,0,0.3,0.1,0.4,0.2c0.9,0.5,1.7,1.1,2.6,1.6C169.9,109.9,170,110,170.2,110.1z M168.2,116.9
			C168.2,116.9,168.2,116.9,168.2,116.9c1,1.1,2,2.1,3,3c0.3,0.3,0.6,0.5,0.8,0.8c0,0,0,0,0,0c0,0,0,0,0.1,0
			c-0.4-1.3-0.8-2.6-1.2-3.9C170,116.8,169.1,116.8,168.2,116.9z M166.2,112.3c-0.7-0.3-3.8-1.4-4.1-1.5c1.3,1.3,2.7,2.7,4.1,4.1
			C166.2,114,166.2,113.1,166.2,112.3z M165.7,117C165.7,117,165.6,116.9,165.7,117c-0.9,0-1.8,0-2.6,0c-0.2,1.2-0.6,3.6-0.5,3.8
			C163.6,119.5,164.6,118.3,165.7,117z M167.7,120.8c1.1,0.3,2.3,0.6,3.4,0.9c-0.1-0.1-0.1-0.1-0.1-0.1c-1.1-1-2.1-2-3.2-3.1
			c0,0-0.1-0.1-0.2-0.1C167.7,119.2,167.7,120,167.7,120.8z M166.3,118.4C166.3,118.4,166.2,118.4,166.3,118.4
			c-1.1,1.2-2.1,2.3-3.1,3.6c0.4,0,2.8-1,3.2-1.2C166.3,120,166.3,119.2,166.3,118.4z M167.5,114.7
			C167.5,114.7,167.5,114.8,167.5,114.7c0.1,0,0.2-0.1,0.3-0.2c0.4-0.5,0.9-1,1.3-1.5c0.5-0.6,1-1.2,1.5-1.9c0,0,0.1-0.1,0.1-0.2
			c-1.1,0.6-2.2,1.1-3.3,1.7C167.4,113.3,167.5,114,167.5,114.7z M161.5,112.2c0.5,1.2,1,2.4,1.6,3.6c0.6,0.1,1.7,0,1.9-0.1
			C163.9,114.4,162.8,113.2,161.5,112.2z M171.5,112.3C171.5,112.3,171.5,112.3,171.5,112.3c-1,1.1-1.9,2.2-2.8,3.3
			c0.8,0,1.5,0,2.2-0.1C171.1,114.5,171.3,113.4,171.5,112.3z M170.1,122.4c-0.8-0.2-1.5-0.5-2.3-0.7c0,0.7,0,1.4,0.1,2.2
			C168.6,123.4,169.3,122.9,170.1,122.4z M164.5,122.8c0.7,0.5,1.3,0.9,2,1.4c0.1-0.3,0-1.9-0.1-2.1
			C165.8,122.3,165.2,122.5,164.5,122.8z M169.1,110.6c-0.7-0.4-1.3-0.9-2-1.3c0.1,0.8,0.1,1.4,0.2,2.2
			C167.9,111.2,168.5,110.9,169.1,110.6z M160,116.9c0.6,0.6,1.1,1.1,1.7,1.6c0.1-0.6,0.2-1.1,0.3-1.6
			C161.3,117,160.7,117,160,116.9z M166.2,109.3c-0.6,0.4-1.1,0.9-1.7,1.3c0.6,0.2,1.1,0.4,1.6,0.6
			C166.2,110.6,166.2,110,166.2,109.3z M173.7,115.5c-0.5-0.5-0.9-1-1.4-1.5c-0.2,0.5-0.3,1-0.4,1.6
			C172.5,115.6,173,115.5,173.7,115.5z M172.5,118.2c0.4-0.5,0.7-1,1.1-1.5c-0.6,0-1.1,0-1.6,0C172.2,117.2,172.4,117.7,172.5,118.2
			z M162.2,115.8c-0.2-0.5-0.4-0.9-0.6-1.3c-0.4,0.5-0.8,0.9-1.2,1.4C161.1,115.8,161.6,115.8,162.2,115.8z"/>
		<g>
			<path class="st60" d="M107.9,136.7c0-0.4,0.1-0.6,0.1-0.8c0.1-1.3,0.1-2.7,0.2-4c0-0.3,0.1-0.7,0.1-1c0.2-0.8,0.6-1.2,1.2-1.2
				c0.5,0,1,0.4,1.2,1.1c0.2,0.6,0.3,1.2,0.4,1.8c0.2,1.1,0.3,2.1,0.5,3.4c0.2-0.4,0.4-0.6,0.5-0.8c0.5-0.8,0.9-1.5,1.5-2.3
				c0.2-0.4,0.5-0.7,0.9-1c0.4-0.4,0.9-0.4,1.4-0.1c0.5,0.2,0.7,0.8,0.6,1.3c-0.1,0.5-0.3,0.9-0.5,1.4c-1.2,2-2.4,3.9-3.6,5.8
				c-0.2,0.3-0.3,0.7-0.3,1.1c0.1,2.7,0.3,5.4,0.4,8.2c0,0.2,0,0.3,0.1,0.5c0.2-0.1,0.3-0.2,0.4-0.3c0.7-0.8,1.4-1.6,2.1-2.3
				c0.2-0.2,0.3-0.5,0.3-0.8c-0.1-1-0.1-2.1-0.2-3.2c0-0.1,0-0.3,0-0.4c0.1-0.5,0.4-0.9,0.9-1.1c0.5-0.1,1,0.1,1.3,0.5
				c0.2,0.3,0.3,0.6,0.3,0.8c0.1,0.2,0.1,0.4,0.2,0.8c0.2-0.2,0.4-0.4,0.6-0.6c0.8-1,1.7-2,2.5-3c0.2-0.2,0.3-0.4,0.5-0.6
				c0.4-0.4,1-0.5,1.5-0.2c0.5,0.2,0.9,0.7,0.8,1.3c0,0.5-0.2,1-0.5,1.4c-0.5,0.7-1,1.4-1.5,2.1c-0.4,0.6-0.8,1.2-1.3,1.9
				c0.5,0.1,0.9,0.2,1.4,0.4c0.3,0.1,0.6,0.2,0.9,0.4c0.7,0.6,0.6,1.5-0.2,1.9c-0.3,0.2-0.7,0.3-1.1,0.2c-0.8,0-1.6-0.1-2.5-0.2
				c-0.3,0-0.6-0.1-0.8,0.2c-0.9,1.2-1.9,2.3-2.9,3.4c0,0.1-0.1,0.1-0.1,0.3c0.8,0,1.5,0,2.2-0.1c3.3-0.1,6.6-0.3,9.9-0.4
				c0.6,0,1.1-0.2,1.4-0.7c0.4-0.5,0.8-1,1.2-1.5c0.4-0.4,0.8-0.7,1.2-1c0.6-0.4,1.3-0.3,1.7,0.2c0.4,0.4,0.5,1,0.2,1.6
				c-0.2,0.4-0.4,0.7-0.7,1.1c0.2,0,0.4,0.1,0.5,0.1c0.5,0,1,0,1.5,0c1,0.1,1.7,0.9,1.7,1.9c0,0.9-0.6,1.8-1.5,2
				c-0.4,0.1-0.8,0.1-1.3,0.2c0.2,0.3,0.4,0.4,0.6,0.6c0.4,0.6,0.9,1.1,1.2,1.8c0.3,0.5,0.3,1.1-0.2,1.5c-0.4,0.4-0.9,0.5-1.5,0.3
				c-0.9-0.3-1.7-0.8-2.4-1.4c-0.9-0.8-1.8-1.5-2.7-2.3c-0.3-0.3-0.6-0.4-1-0.4c-3.5,0.1-6.9,0.2-10.4,0.4c-0.2,0-0.4,0-0.8,0.1
				c0.8,0.7,1.4,1.3,2.1,2c0.4,0.4,0.8,1,1.3,1.1c0.5,0.2,1.2,0,1.7,0c0.6,0,1.3,0,1.9,0.1c0.3,0,0.6,0.2,0.8,0.4
				c0.8,0.5,0.8,1.5,0,2c-0.3,0.2-0.7,0.3-1.1,0.5c0.2,0.2,0.5,0.3,0.6,0.5c0.3,0.3,0.6,0.5,0.8,0.8c0.4,0.6,0.3,1.4-0.1,1.9
				c-0.5,0.6-1.3,0.8-2,0.5c-0.5-0.3-1-0.6-1.5-1c-0.5-0.4-1-0.8-1.6-1.3c-0.1,0.4-0.1,0.8-0.2,1.1c-0.1,0.4-0.2,0.8-0.3,1.2
				c-0.2,0.3-0.5,0.5-0.9,0.5c-0.4,0-0.7-0.2-0.8-0.6c-0.1-0.2-0.2-0.5-0.2-0.7c-0.1-1.1-0.1-2.2-0.2-3.3c0-0.2,0-0.5-0.2-0.6
				c-1-0.9-2.1-1.9-3.1-2.8c0,0-0.1,0-0.2,0c0,0.1,0,0.3,0,0.4c0.1,3.7,0.3,7.3,0.4,11c0,0.4,0.2,0.6,0.4,0.8c1,0.9,2,1.8,3,2.8
				c0.6,0.6,1.1,1.3,1.6,2c0.1,0.1,0.2,0.3,0.3,0.5c0.3,0.6,0.2,1.2-0.2,1.6c-0.4,0.4-1,0.5-1.6,0.2c-0.7-0.4-1.3-0.9-1.9-1.3
				c-0.4-0.3-0.8-0.7-1.3-1.1c0,0.3-0.1,0.4-0.1,0.6c0,0.7,0.1,1.4,0,2.2c0,1.1-0.9,1.9-2,1.9c-0.9-0.1-1.6-0.7-1.7-1.7
				c-0.1-0.8-0.1-1.5-0.2-2.3c0-0.3,0-0.5,0-0.9c-0.2,0.3-0.4,0.4-0.5,0.5c-0.7,0.7-1.3,1.4-2,2c-0.3,0.3-0.8,0.4-1.3,0.5
				c-0.8,0.1-1.4-0.6-1.2-1.4c0.1-0.4,0.3-0.8,0.5-1.1c1.3-1.8,2.6-3.6,3.9-5.4c0.2-0.2,0.3-0.5,0.3-0.8c-0.2-3.1-0.3-6.2-0.5-9.2
				c0-0.2-0.1-0.4-0.1-0.8c-0.4,0.4-0.7,0.8-1,1.1c-0.6,0.6-1.1,1.3-1.7,1.9c-0.4,0.4-0.5,0.8-0.4,1.4c0.1,0.7,0.1,1.4,0.2,2.1
				c0,0.2,0,0.4,0,0.6c-0.1,0.5-0.4,0.9-0.9,1c-0.5,0.1-1-0.1-1.2-0.6c-0.2-0.3-0.4-0.7-0.6-1.2c-0.2,0.2-0.4,0.3-0.5,0.5
				c-0.5,0.6-1,1.2-1.5,1.7c-0.7,0.7-1.7,0.7-2.4,0.2c-0.7-0.6-0.8-1.6-0.2-2.4c0.4-0.6,0.9-1,1.4-1.6c0.2-0.2,0.3-0.4,0.5-0.7
				c-0.4-0.1-0.7-0.1-1-0.2c-0.3-0.1-0.5-0.1-0.7-0.2c-0.5-0.2-0.8-0.6-0.8-1.2c0-0.6,0.3-1,0.8-1.2c0.4-0.2,0.9-0.3,1.3-0.3
				c0.9-0.1,1.7,0,2.6,0c0.3,0,0.5-0.1,0.7-0.3c0.8-1,1.7-1.9,2.5-2.9c0-0.1,0.1-0.1,0.1-0.3c-0.2,0-0.4,0-0.5,0
				c-3.2,0.1-6.4,0.2-9.6,0.3c-0.4,0-0.7,0.2-0.9,0.6c-0.8,1.2-1.6,2.3-2.4,3.5c-0.2,0.3-0.5,0.6-0.8,0.8c-0.5,0.4-1.1,0.3-1.6,0
				c-0.5-0.3-0.7-0.9-0.4-1.5c0.3-0.8,0.7-1.5,1.1-2.2c0.2-0.3,0.3-0.6,0.6-0.9c-0.4-0.2-0.8-0.1-1.1-0.2c-1-0.1-1.9-0.3-2.9-0.4
				c-0.2,0-0.3-0.1-0.5-0.2c-0.5-0.2-0.8-0.5-0.8-1c0-0.5,0.3-0.8,0.7-1c0.2-0.1,0.5-0.2,0.7-0.3c0.6-0.2,1.2-0.3,1.8-0.4
				c0.2,0,0.4-0.1,0.6-0.2c-0.2-0.2-0.3-0.4-0.4-0.6c-0.2-0.2-0.3-0.5-0.4-0.7c-0.3-0.7-0.3-1.3,0.1-1.7c0.4-0.5,1.1-0.6,1.8-0.2
				c0.4,0.2,0.8,0.5,1.2,0.9c0.6,0.6,1.2,1.2,1.9,1.7c0.2,0.2,0.5,0.3,0.8,0.3c3.6-0.2,7.3-0.3,10.9-0.5c0.1,0,0.2,0,0.4-0.1
				c-0.2-0.4-0.6-0.6-0.9-0.9c-0.5-0.4-0.9-0.9-1.5-1.1c-0.5-0.2-1.2,0.1-1.7,0.1c-0.7,0-1.4,0-2.2,0c-0.2,0-0.5-0.1-0.7-0.1
				c-0.8-0.3-1-1.3-0.3-1.8c0.3-0.2,0.8-0.3,1.2-0.5c0.2-0.1,0.4-0.1,0.7-0.2c-0.2-0.2-0.3-0.3-0.5-0.5c-1.1-1-2.2-2.1-3.3-3.1
				c-0.4-0.4-0.7-0.8-0.9-1.2c-0.5-1.1,0.2-2.2,1.5-2c0.4,0,0.8,0.2,1.1,0.4c0.6,0.4,1.3,0.9,1.9,1.4c0.6,0.5,1.3,1,2,1.7
				c0.1-0.3,0.1-0.6,0.1-0.8c0.1-0.3,0.1-0.6,0.2-0.8c0.2-0.5,0.5-0.8,1.1-0.8c0.5,0,0.9,0.2,1,0.7c0.2,0.5,0.3,1.1,0.4,1.6
				c0.1,0.6,0.1,1.3,0.1,1.9c0,0.2,0.1,0.5,0.2,0.6c0.8,0.7,1.6,1.4,2.4,2c0.1,0.1,0.2,0.2,0.4,0.3c0-0.3,0-0.5,0-0.7
				c-0.1-2.5-0.2-4.9-0.3-7.4c0-0.4-0.2-0.7-0.4-0.9c-1-1-1.9-2.1-2.8-3.2c-0.4-0.4-0.7-0.8-1-1.3c-0.2-0.3-0.3-0.6-0.4-1
				c-0.2-1,0.7-1.8,1.7-1.5c0.7,0.2,1.2,0.7,1.6,1.1C107.1,135.8,107.5,136.2,107.9,136.7z"/>
			<path class="st60" d="M126,138.5c-1,0.2-1.6-0.3-2.1-1.1c-0.5-0.9-0.4-1.7,0.2-2.5c1-1.3,2.8-1.4,4-0.3c0.8,0.8,0.9,1.8,0.3,2.7
				C127.9,138.2,127,138.6,126,138.5z"/>
			<path class="st60" d="M92.5,137.9c0.6,0,1.1,0.1,1.6,0.4c0.9,0.6,1.4,1.5,1.1,2.5c-0.3,1.1-1.2,1.8-2.3,1.8c-1.2,0-2.3-0.9-2.6-2
				C89.9,139.2,90.8,138,92.5,137.9z"/>
			<path class="st60" d="M97.7,171.3c0,1.3-1.1,2.5-2.4,2.5c-1.3,0-2.5-1.1-2.5-2.4c0-1.3,1-2.3,2.3-2.3
				C96.5,169.1,97.6,170,97.7,171.3z"/>
			<path class="st60" d="M129.1,169.1c0,1.1-0.9,2.1-2,2.2c-1.1,0-2.3-1-2.3-2.2c0-1.2,0.8-2.2,1.9-2.2
				C128,166.9,129,167.9,129.1,169.1z"/>
		</g>
		<g>
			<path class="st60" d="M178.6,179.1c0.2,0,0.3,0.1,0.4,0.1c0.7,0.1,1.3,0.2,2,0.3c0.2,0,0.3,0.1,0.5,0.1c0.4,0.1,0.6,0.4,0.6,0.6
				c0,0.3-0.2,0.5-0.6,0.6c-0.3,0.1-0.6,0.1-0.9,0.1c-0.5,0-1.1,0.1-1.7,0.1c0.2,0.1,0.3,0.2,0.4,0.3c0.4,0.3,0.7,0.5,1.1,0.8
				c0.2,0.1,0.3,0.3,0.5,0.5c0.2,0.2,0.2,0.5,0,0.7c-0.1,0.2-0.4,0.3-0.7,0.2c-0.2-0.1-0.5-0.2-0.7-0.3c-0.9-0.7-1.9-1.4-2.8-2.1
				c-0.2-0.1-0.3-0.2-0.5-0.2c-1.4,0-2.8-0.1-4.1-0.2c-0.1,0-0.2,0-0.3,0c0.1,0.1,0.1,0.2,0.1,0.2c0.4,0.4,0.7,0.8,1.1,1.2
				c0.1,0.1,0.2,0.2,0.4,0.2c0.5,0,1.1,0,1.6,0c0.1,0,0.1,0,0.2,0c0.3,0.1,0.5,0.3,0.5,0.5c0,0.2-0.1,0.5-0.3,0.6
				c-0.1,0.1-0.3,0.1-0.4,0.1c-0.1,0-0.2,0-0.4,0.1c0.1,0.1,0.2,0.2,0.3,0.3c0.5,0.5,0.9,0.9,1.4,1.4c0.1,0.1,0.2,0.2,0.3,0.3
				c0.2,0.2,0.2,0.5,0,0.8c-0.1,0.3-0.4,0.4-0.7,0.3c-0.2,0-0.5-0.1-0.7-0.3c-0.4-0.3-0.7-0.6-1-0.9c-0.3-0.2-0.6-0.5-0.9-0.7
				c-0.1,0.3-0.2,0.5-0.2,0.7c-0.1,0.2-0.1,0.3-0.3,0.4c-0.3,0.3-0.8,0.2-1-0.2c-0.1-0.2-0.1-0.4-0.1-0.6c0-0.4,0.1-0.8,0.2-1.2
				c0-0.2,0.1-0.3-0.1-0.4c-0.5-0.5-1.1-1.1-1.6-1.6c0,0-0.1,0-0.1-0.1c0,0.4-0.1,0.8-0.1,1.1c-0.1,1.7-0.1,3.3-0.2,5
				c0,0.3,0,0.6,0.3,0.8c0.2,0.2,0.5,0.4,0.7,0.7c0.2,0.2,0.3,0.4,0.5,0.7c0.2,0.3,0.1,0.7-0.2,0.9c-0.2,0.2-0.5,0.2-0.8,0
				c-0.2-0.1-0.3-0.2-0.5-0.4c0,0.1-0.1,0.2-0.1,0.3c0,0.3,0,0.5-0.1,0.8c-0.1,0.5-0.5,0.8-1,0.8c-0.5,0-0.9-0.4-0.9-0.9
				c0-0.2,0-0.4-0.1-0.7c-0.1,0.1-0.2,0.2-0.3,0.3c-0.3,0.2-0.6,0.4-0.9,0.5c-0.3,0.1-0.5,0.1-0.8-0.1c-0.2-0.2-0.2-0.5-0.1-0.8
				c0.2-0.4,0.5-0.8,0.8-1.2c0.4-0.4,0.8-0.9,1.3-1.3c0.2-0.1,0.2-0.3,0.2-0.5c0.1-1.8,0.2-3.5,0.3-5.3c0-0.1,0-0.2,0-0.4
				c-0.4,0.4-0.7,0.7-1.1,1c-0.2,0.2-0.5,0.4-0.6,0.6c-0.1,0.2-0.1,0.6-0.1,0.9c0,0.3-0.1,0.6-0.1,1c0,0.1-0.1,0.3-0.2,0.4
				c-0.3,0.4-0.8,0.3-1-0.1c-0.1-0.2-0.1-0.4-0.2-0.6c-0.1,0.1-0.2,0.2-0.3,0.3c-0.1,0.1-0.3,0.3-0.5,0.4c-0.3,0.2-0.7,0.1-1-0.2
				c-0.3-0.3-0.4-0.7-0.2-1c0.2-0.3,0.4-0.5,0.6-0.7c0.2-0.2,0.5-0.5,0.7-0.7c-0.2-0.1-0.4-0.1-0.5-0.1c-0.2-0.1-0.4-0.1-0.6-0.2
				c-0.2-0.1-0.3-0.3-0.2-0.5c0-0.2,0.1-0.3,0.3-0.4c0.1,0,0.3-0.1,0.4-0.1c0.6,0,1.1,0,1.7,0c0.1,0,0.2,0,0.3-0.1
				c0.5-0.5,1-1,1.5-1.5c0,0,0,0,0-0.1c-0.1,0-0.1,0-0.2,0c-1.9-0.1-3.7-0.2-5.6-0.3c-0.2,0-0.3,0.1-0.4,0.2c-0.5,0.5-1,0.9-1.5,1.4
				c-0.3,0.3-0.7,0.5-1.1,0.7c-0.1,0-0.2,0.1-0.2,0.1c-0.3,0.1-0.6,0.1-0.8-0.2c-0.2-0.2-0.2-0.5,0-0.8c0.2-0.3,0.5-0.6,0.8-0.9
				c0.2-0.2,0.4-0.4,0.6-0.6c-0.1,0-0.2-0.1-0.3-0.1c-0.4,0-0.7,0-1.1-0.1c-0.6-0.1-0.9-0.5-0.8-1.1c0.1-0.4,0.4-0.8,0.9-0.8
				c0.4,0,0.8,0,1.2,0c0.1,0,0.3,0,0.5,0c-0.1-0.1-0.2-0.2-0.2-0.3c-0.3-0.4-0.6-0.7-0.9-1.1c-0.1-0.2-0.2-0.4-0.2-0.7
				c0-0.4,0.4-0.7,0.8-0.5c0.2,0.1,0.4,0.2,0.5,0.3c0.9,0.7,1.7,1.5,2.6,2.2c0.1,0.1,0.2,0.2,0.4,0.2c1.6,0.1,3.1,0.1,4.7,0.2
				c0.1,0,0.2,0,0.4,0c-0.2-0.2-0.4-0.4-0.5-0.6c-0.3-0.3-0.6-0.6-0.9-0.9c-0.2-0.2-0.4-0.3-0.7-0.3c-0.4,0-0.7,0-1.1,0
				c-0.1,0-0.2,0-0.3,0c-0.3-0.1-0.4-0.2-0.5-0.5c0-0.3,0.1-0.5,0.4-0.6c0.2-0.1,0.4-0.1,0.6-0.2c-0.1-0.1-0.1-0.2-0.2-0.3
				c-0.3-0.3-0.6-0.6-0.8-0.9c-0.3-0.4-0.3-0.9,0-1.2c0.3-0.3,0.8-0.3,1.2,0c0.3,0.2,0.5,0.5,0.7,0.8c0.1,0.1,0.2,0.2,0.3,0.3
				c0-0.2,0.1-0.3,0.1-0.5c0-0.1,0.1-0.3,0.1-0.4c0.1-0.3,0.3-0.4,0.6-0.4c0.3,0,0.5,0.2,0.6,0.5c0.1,0.2,0.1,0.5,0.1,0.7
				c0,0.4-0.1,0.9-0.1,1.3c0,0.2,0,0.3,0.1,0.4c0.5,0.5,0.9,0.9,1.4,1.4c0,0,0.1,0,0.1,0.1c0-0.1,0-0.2,0-0.3
				c0.1-1.6,0.2-3.3,0.3-4.9c0-0.2-0.1-0.3-0.2-0.5c-0.6-0.4-1.1-0.9-1.6-1.4c-0.1-0.1-0.3-0.3-0.4-0.5c-0.2-0.3-0.1-0.6,0.1-0.8
				c0.2-0.2,0.5-0.3,0.8-0.2c0.4,0.2,0.7,0.4,1.1,0.7c0.1,0.1,0.3,0.2,0.4,0.3c0.1-0.2,0.1-0.4,0.1-0.6c0.1-0.5,0.2-1,0.3-1.4
				c0-0.1,0.1-0.2,0.1-0.3c0.1-0.2,0.3-0.4,0.5-0.4c0.3,0,0.4,0.2,0.5,0.4c0,0.1,0.1,0.2,0.1,0.4c0.1,0.3,0.1,0.6,0.1,0.9
				c0,0.1,0,0.2,0.1,0.3c0.1-0.1,0.2-0.1,0.3-0.2c0.1-0.1,0.3-0.1,0.4-0.2c0.4-0.1,0.7-0.1,0.9,0.1c0.2,0.2,0.2,0.6,0,0.9
				c-0.1,0.2-0.3,0.4-0.5,0.6c-0.3,0.3-0.6,0.6-1,0.9c-0.1,0.1-0.2,0.2-0.2,0.4c-0.1,1.9-0.1,3.7-0.2,5.6c0,0,0,0.1,0,0.2
				c0.2-0.1,0.3-0.3,0.5-0.4c0.2-0.2,0.5-0.4,0.6-0.7c0.1-0.3,0-0.6,0-0.9c0-0.4,0-0.7,0.1-1.1c0-0.1,0-0.2,0.1-0.3
				c0.2-0.4,0.7-0.4,0.9,0c0.1,0.2,0.1,0.4,0.2,0.6c0,0.1,0,0.2,0.1,0.3c0.1-0.1,0.2-0.1,0.3-0.2c0.6-0.5,1.1-1,1.7-1.5
				c0.2-0.2,0.4-0.3,0.7-0.4c0.6-0.2,1.1,0.2,1,0.8c0,0.2-0.1,0.4-0.2,0.5c-0.2,0.3-0.5,0.6-0.8,0.9c-0.3,0.3-0.6,0.6-0.9,0.9
				c0.2,0,0.3,0.1,0.4,0.1c0.1,0,0.3,0.1,0.4,0.1c0.2,0.1,0.4,0.3,0.3,0.6c0,0.2-0.2,0.4-0.4,0.5c-0.3,0.1-0.6,0.1-0.8,0.1
				c-0.3,0-0.7,0-1,0c-0.1,0-0.3,0-0.3,0.1c-0.4,0.4-0.8,0.8-1.1,1.1c-0.1,0.1-0.1,0.1-0.2,0.2c0.1,0,0.2,0,0.3,0.1
				c1.3,0.1,2.5,0.1,3.8,0.2c0.2,0,0.3-0.1,0.5-0.2c0.6-0.4,1.1-0.9,1.7-1.3c0.2-0.2,0.5-0.3,0.7-0.4c0.2-0.1,0.3-0.1,0.5-0.2
				c0.5-0.1,0.9,0.4,0.7,0.9c-0.1,0.3-0.4,0.6-0.6,0.8C179,178.8,178.8,178.9,178.6,179.1z"/>
			<path class="st60" d="M176.8,188.2c0-0.5,0.2-0.8,0.7-1c0.5-0.2,0.9-0.1,1.3,0.2c0.6,0.6,0.6,1.5,0,2c-0.4,0.4-1,0.4-1.4,0
				C176.9,189.2,176.8,188.7,176.8,188.2z"/>
			<path class="st60" d="M178.6,171.3c0,0.3-0.1,0.6-0.3,0.8c-0.3,0.4-0.8,0.6-1.3,0.5c-0.5-0.2-0.9-0.7-0.8-1.2
				c0-0.6,0.5-1.1,1.1-1.2C178.1,169.9,178.7,170.5,178.6,171.3z"/>
			<path class="st60" d="M161.5,172.4c-0.7,0-1.2-0.6-1.2-1.4c0-0.7,0.7-1.2,1.3-1.2c0.6,0,1.1,0.6,1.1,1.3
				C162.7,171.9,162.2,172.5,161.5,172.4z"/>
			<path class="st60" d="M161.2,188.4c-0.6,0-1-0.5-1-1.1c0-0.6,0.6-1.1,1.2-1.1c0.6,0,1.1,0.5,1.1,1.1
				C162.4,188,161.9,188.5,161.2,188.4z"/>
		</g>
		<g>
			<path class="st60" d="M258.6,255c-0.3-0.4-0.4-0.7-0.6-1c-1-1.5-2.1-3.1-3.1-4.6c-0.3-0.4-0.5-0.8-0.7-1.2
				c-0.5-1-0.4-1.9,0.3-2.4c0.6-0.5,1.4-0.4,2.3,0.2c0.7,0.5,1.3,1.1,1.9,1.7c1.1,1,2.1,2.1,3.4,3.4c0-0.6,0-1-0.1-1.3
				c-0.1-1.3-0.2-2.5-0.3-3.8c0-0.6,0-1.2,0.1-1.8c0.1-0.7,0.7-1.2,1.4-1.3c0.7-0.1,1.5,0.2,1.8,1c0.3,0.6,0.5,1.3,0.5,2
				c0.3,3.2,0.6,6.4,0.9,9.5c0,0.6,0.2,1,0.5,1.5c2.4,2.9,4.9,5.8,7.3,8.8c0.1,0.2,0.3,0.3,0.5,0.6c0.1-0.3,0.2-0.5,0.2-0.6
				c0.1-1.5,0.3-2.9,0.4-4.4c0-0.5-0.1-0.8-0.4-1.1c-1-1.1-1.9-2.2-2.9-3.4c-0.1-0.1-0.2-0.3-0.3-0.4c-0.4-0.6-0.3-1.4,0.1-1.9
				c0.4-0.5,1.2-0.7,1.9-0.5c0.4,0.1,0.7,0.4,1.1,0.7c0.3,0.2,0.5,0.4,0.8,0.7c0.1-0.5,0.1-0.8,0.1-1.2c0.1-1.8,0.2-3.7,0.3-5.5
				c0-0.4,0-0.7,0.1-1.1c0.2-0.8,0.7-1.3,1.5-1.5c0.8-0.2,1.6,0.1,2,0.8c0.3,0.6,0.6,1.2,0.6,1.9c0.1,1.2,0,2.4,0.1,3.7
				c0,1,0.1,2.1,0.1,3.2c0.7-0.3,1.2-0.5,1.8-0.7c0.4-0.1,0.9-0.3,1.4-0.3c1.2,0,1.9,1.2,1.3,2.3c-0.2,0.5-0.6,0.9-1,1.2
				c-0.9,0.7-1.9,1.2-2.9,1.8c-0.4,0.2-0.7,0.4-0.7,0.9c-0.1,2.1-0.2,4.2-0.4,6.2c0,0.1,0,0.2,0.1,0.4c0.9-0.6,1.7-1.3,2.5-1.9
				c3.5-2.9,7.1-5.9,10.6-8.8c0.7-0.5,1-1.1,1-2c0-0.9,0-1.8,0.1-2.7c0.1-0.7,0.3-1.5,0.5-2.2c0.3-0.9,1.2-1.4,2.1-1.2
				c0.8,0.1,1.4,0.7,1.6,1.6c0.1,0.6,0.1,1.1,0.2,1.8c0.2-0.1,0.5-0.2,0.6-0.3c0.6-0.4,1.1-0.9,1.7-1.3c1.2-0.7,2.7-0.4,3.5,0.6
				c0.8,1,0.8,2.5-0.1,3.5c-0.4,0.4-0.8,0.8-1.2,1.3c0.5,0.1,0.8,0.1,1.2,0.2c1,0.3,1.9,0.6,2.8,0.9c0.7,0.3,1.2,1,1.1,1.8
				c-0.1,0.8-0.6,1.3-1.4,1.6c-1.2,0.4-2.5,0.6-3.8,0.5c-1.6-0.1-3.3-0.1-4.9-0.2c-0.6,0-1,0.1-1.5,0.5c-3.8,3.1-7.5,6.1-11.3,9.1
				c-0.2,0.2-0.4,0.4-0.8,0.8c1.5,0.2,2.7,0.3,3.9,0.4c0.8,0.1,1.7,0.4,2.4,0.2c0.7-0.2,1.3-1,2-1.5c0.7-0.5,1.5-1,2.2-1.5
				c0.4-0.2,0.8-0.3,1.2-0.3c1.3-0.1,2.1,1,1.7,2.2c-0.2,0.5-0.5,0.9-0.8,1.6c0.4,0,0.8,0,1.2,0.1c0.5,0.1,1.1,0.1,1.6,0.3
				c0.9,0.3,1.5,1.3,1.5,2.3c0,1-0.7,2-1.8,2.2c-0.8,0.2-1.7,0.2-2.6,0.2c-0.9,0-1.8-0.1-2.9-0.2c0.3,0.6,0.5,0.9,0.7,1.3
				c0.2,0.5,0.5,1.1,0.6,1.6c0.1,0.5-0.1,1-0.5,1.3c-0.5,0.3-1,0.3-1.4,0.1c-0.3-0.2-0.6-0.4-0.8-0.6c-1-1.2-2-2.3-3-3.5
				c-0.2-0.2-0.5-0.5-0.7-0.5c-1.9-0.2-3.9-0.3-5.8-0.5c-0.1,0-0.1,0.1-0.2,0.2c0.1,0.2,0.2,0.3,0.3,0.5c3.2,4,6.5,8,9.7,11.9
				c0.3,0.4,0.7,0.5,1.2,0.6c1.9,0.2,3.8,0.3,5.7,0.6c1.2,0.2,2.3,0.5,3.4,0.8c0.2,0.1,0.5,0.2,0.7,0.3c0.8,0.5,1.2,1.1,1.1,1.9
				c-0.1,0.8-0.7,1.4-1.7,1.5c-1.1,0.1-2.1,0.1-3.2,0.1c-0.7,0-1.5-0.1-2.4-0.2c0.2,0.3,0.3,0.5,0.4,0.7c0.6,0.8,1.3,1.5,1.9,2.4
				c0.9,1.3,0.6,2.9-0.7,3.8c-1,0.7-2.4,0.5-3.3-0.5c-0.7-0.8-1.4-1.6-2.1-2.4c-0.2-0.3-0.4-0.6-0.8-1c-0.1,0.5-0.1,0.7-0.1,1
				c-0.2,1.3-0.3,2.6-0.6,3.9c-0.1,0.6-0.6,1.2-1,1.6c-0.8,0.7-2.1,0.4-2.5-0.6c-0.2-0.5-0.3-1.1-0.3-1.7c-0.1-3.1-0.1-6.2-0.1-9.4
				c0-0.4-0.1-0.8-0.4-1.1c-2.8-3.3-5.5-6.6-8.3-9.9c-0.2-0.2-0.4-0.4-0.8-0.8c-0.1,0.8-0.1,1.5-0.2,2.1c-0.1,1.2-0.1,2.4-0.3,3.5
				c-0.1,0.8,0.2,1.3,0.7,1.9c0.7,0.7,1.4,1.5,2,2.2c0.2,0.2,0.4,0.5,0.5,0.7c0.3,0.7,0.3,1.3-0.2,1.9c-0.5,0.6-1.2,0.7-1.9,0.4
				c-0.5-0.2-1-0.5-1.6-0.8c-0.1,0.4-0.1,0.6-0.2,0.9c-0.1,1.1-0.1,2.2-0.3,3.2c-0.2,1.4-1.3,2.2-2.5,2.2c-1.3-0.1-2.3-1.1-2.3-2.5
				c0-1,0.1-1.9,0.2-2.9c0-0.3,0-0.7,0-1.2c-0.5,0.3-0.8,0.5-1.2,0.6c-0.3,0.2-0.7,0.3-1,0.4c-0.8,0.2-1.4,0-1.9-0.6
				c-0.5-0.6-0.5-1.4-0.1-2c0.3-0.5,0.8-1,1.3-1.5c0.9-0.8,1.9-1.5,2.9-2.2c0.3-0.3,0.5-0.5,0.6-1c0.1-1.8,0.3-3.6,0.4-5.4
				c0-0.1,0-0.2-0.1-0.4c-0.2,0.2-0.5,0.3-0.6,0.4c-3.5,2.8-7,5.6-10.5,8.4c-0.5,0.4-0.6,0.8-0.5,1.4c0.1,2,0.2,3.9,0.2,5.9
				c0,0.5-0.1,1.1-0.2,1.6c-0.3,0.9-0.9,1.3-1.8,1.3c-0.8,0-1.5-0.4-1.8-1.3c-0.3-1.1-0.4-2.2-0.6-3.4c-0.1-0.5-0.1-0.9-0.1-1.5
				c-0.6,0.1-1,0.5-1.4,0.8c-1.2,0.7-2.4,1.3-3.6,2c-0.2,0.1-0.5,0.2-0.7,0.3c-0.7,0.2-1.3,0.2-1.8-0.4c-0.4-0.5-0.3-1.2,0-1.7
				c0.2-0.3,0.3-0.6,0.6-0.9c0.5-0.7,1.1-1.3,1.6-2c0.2-0.2,0.3-0.4,0.5-0.7c-0.4-0.1-0.7-0.2-1-0.3c-0.4-0.1-0.8-0.3-1.1-0.4
				c-1-0.5-1.4-1.2-1.3-2c0.1-0.9,0.8-1.5,1.8-1.7c0.7-0.1,1.4-0.1,2,0c1.2,0.1,2.4,0.2,3.5,0.4c0.5,0.1,0.8,0,1.2-0.3
				c3.9-3.3,7.8-6.5,11.8-9.8c0.1-0.1,0.2-0.2,0.3-0.4c-0.6-0.3-1.2-0.2-1.7-0.2c-0.9-0.1-1.8-0.3-2.6,0c-0.7,0.2-1.2,1-1.9,1.6
				c-0.8,0.6-1.6,1.2-2.4,1.8c-0.3,0.2-0.6,0.3-0.9,0.4c-1.2,0.3-2.2-0.6-1.8-1.8c0.2-0.6,0.6-1,0.9-1.6c0.1-0.2,0.3-0.4,0.6-0.8
				c-0.4-0.1-0.6-0.1-0.9-0.1c-2.1-0.2-4.2-0.4-6.3-0.7c-0.7-0.1-1.4-0.3-2.1-0.6c-1.6-0.8-1.6-2.6-0.1-3.5c0.4-0.3,1-0.4,1.5-0.5
				c1.1-0.1,2.1-0.1,3.2,0c1.1,0,2.3,0.1,3.6,0.2c-0.2-0.4-0.4-0.7-0.5-1c-0.2-0.4-0.4-0.7-0.5-1.1c-0.2-0.7-0.1-1.3,0.5-1.7
				c0.5-0.4,1.2-0.5,1.7-0.1c0.6,0.4,1.2,1,1.8,1.5c0.6,0.6,1.2,1.4,1.8,2c0.2,0.2,0.5,0.5,0.8,0.5c1.5,0.1,2.9,0.2,4.4,0.2
				c0.2,0,0.4,0,0.8,0c-0.2-0.3-0.3-0.6-0.5-0.8c-2.2-2.7-4.4-5.3-6.5-8c-0.3-0.4-0.7-0.6-1.3-0.7c-1.9-0.4-3.9-0.7-5.8-1.2
				c-0.7-0.2-1.5-0.4-2.2-0.7c-0.5-0.2-0.9-0.4-1.3-0.8c-1.1-1-0.7-2.6,0.6-3.1c0.9-0.3,1.8-0.2,2.8-0.1
				C257,254.7,257.7,254.8,258.6,255z"/>
			<path class="st60" d="M280.4,241.8c-1,1-2.1,1-3.3,0.5c-1.2-0.6-1.9-1.6-1.9-3c0-2.2,2-3.9,4.2-3.7c1.5,0.2,2.5,1.3,2.6,2.8
				C282.1,239.9,281.6,241,280.4,241.8z"/>
			<path class="st60" d="M242.4,269.3c0.6-0.5,1.3-0.8,2.2-0.9c1.5-0.1,2.8,0.6,3.3,1.8c0.6,1.4,0.2,3-1.1,4c-1.3,1-3.4,1-4.6,0
				C240.6,272.8,240.6,270.7,242.4,269.3z"/>
			<path class="st60" d="M276.2,302.2c1.2,1.5,0.9,3.7-0.6,4.9c-1.4,1.1-3.6,0.8-4.8-0.6c-1.1-1.4-0.8-3.3,0.6-4.5
				C273,300.7,275.1,300.8,276.2,302.2z"/>
			<path class="st60" d="M309.5,273.4c1,1.2,0.8,3.1-0.4,4.1c-1.2,1-3.4,0.8-4.4-0.5c-1.1-1.4-0.9-3.2,0.3-4.1
				C306.4,271.8,308.4,272.1,309.5,273.4z"/>
		</g>
	</g>
	<g>
		<g>
			<path class="st61" d="M196.7,283.8c0.2-0.9,0.4-1.5,0.5-2.2c0.8-7.3,0.8-14.6-0.8-21.9c-1.5-7.3-4.3-14-9.1-19.8
				c-3.1-3.9-6.8-7.2-10.8-10.2c-5.2-3.9-10.5-7.7-16.4-10.7c-5.2-2.6-10.6-4.9-16.3-6.2c-4.4-1-8.8-1.9-13.2-2.9
				c-6.7-1.6-13-4.1-18.7-7.8c-1.8-1.1-3.5-2.3-5.2-3.6c-1-0.7-1.9-1.5-2.7-2.3c-1.5-1.4-2.9-2.8-4.4-4.1c-0.2-0.2-0.4-0.4-0.6-0.6
				c-0.2-0.4-0.2-0.7,0.2-1c0.3-0.3,0.6-0.3,1-0.1c0.3,0.2,0.6,0.4,0.8,0.6c1.6,1.5,3.4,2.7,5.3,3.8c2.3,1.2,4.6,2.5,6.9,3.7
				c2.6,1.3,5.4,1.8,8.3,2.3c5,0.8,10,1.6,14.9,2.9c2.3,0.6,4.7,1.3,7,2c0.3,0.1,0.7,0.2,1.1,0.3c-0.2-0.3-0.3-0.4-0.4-0.6
				c-1.5-2.1-3.1-4.1-4.6-6.2c-2.2-3.2-4.3-6.4-6.5-9.6c-0.4-0.6-0.8-1.2-1.2-1.9c-0.4-0.6-0.3-1.1,0.1-1.4c0.4-0.3,0.8-0.1,1.2,0.4
				c0.2,0.2,0.4,0.5,0.6,0.8c3.9,5.1,8.3,9.7,13.3,13.6c4.2,3.3,8.9,5.8,14,7.6c3.9,1.4,7.9,2.6,11.7,4.2c7.6,3.1,14.3,7.6,19.6,14
				c1.1,1.3,2.2,2.6,3.4,3.9c0.4,0.4,0.7,0.8,1.3,1c0.5-0.4,0.6-0.9,0.8-1.4c0.6-2.3,1.3-4.6,1.8-6.8c0.9-3.6,1.5-7.3,1.8-11.1
				c0.5-7.3-0.3-14.5-2-21.6c-1.2-5-2.8-9.8-4.3-14.7c-1.9-6.1-3.6-12.3-4.8-18.5c-0.2-1-0.9-1.8-1.7-2.3
				c-5.6-3.1-11.2-6.3-16.9-9.3c-2.1-1.1-4.4-1.8-6.6-2.8c-2.4-1-4.7-2-7-3.1c-8.4-3.8-15.9-9-22.3-15.6c-1.8-1.9-3.5-3.9-5.2-5.9
				c-0.6-0.7-1.2-1.4-1.7-2c-0.2-0.2-0.4-0.5-0.5-0.8c-0.1-0.4,0-0.7,0.3-0.9c0.2-0.1,0.6-0.1,0.9-0.1c0.2,0,0.4,0.3,0.6,0.4
				c2.4,2,4.8,4,7.3,6c3,2.4,6.5,4.1,9.9,5.9c7.5,4,15.3,7.3,23.2,10.2c4.2,1.5,8.4,3.2,12.5,4.8c1.8,0.7,3.4,1.7,5.2,2.5
				c0.2,0.1,0.3,0.2,0.6,0.3c0-0.3,0-0.5,0-0.7c0-3.9-0.2-7.7,0-11.6c0.2-5.8,0.7-11.7,1.1-17.5c0-0.4,0-0.7-0.3-1.1
				c-4.2-4.3-6.8-9.7-9-15.2c-0.7-1.7-1.2-3.4-1.8-5.1c-0.1-0.4-0.1-0.8-0.1-1.1c0-0.5,0.2-0.9,0.7-1c0.5-0.2,0.9,0,1.2,0.4
				c0.2,0.3,0.4,0.6,0.6,0.9c2.3,3.9,4.7,7.7,7.5,11.4c0.6,0.9,1.2,1.8,2,2.9c0.1-1.4,0.3-2.6,0.3-3.9c0.3-4.6,0.7-9.2,0.8-13.9
				c0.2-5.5,0.2-11,0.3-16.5c0-1.9-0.1-3.9-0.2-5.8c0-0.5,0-1,0.1-1.4c0.2-1,1.3-1.2,1.9-0.5c0.3,0.4,0.6,0.9,0.8,1.4
				c1,2.6,1.6,5.3,2.1,8.1c1,5.2,1.3,10.4,1.2,15.7c0,1.8-0.1,3.6-0.1,5.5c0,0.3,0,0.6,0,1.1c0.2-0.1,0.4-0.2,0.5-0.3
				c1.4-1,2.9-2,4.3-3.1c3-2.1,6-4.2,9-6.4c2.5-1.9,4.6-4.1,6.4-6.6c2.2-2.9,4.3-5.8,6.5-8.6c0.2-0.3,0.5-0.6,0.7-0.9
				c0.8-0.7,1.9-0.4,2.1,0.7c0.1,0.3,0.1,0.7,0,1c-0.4,1.2-0.7,2.4-1.2,3.5c-0.5,1.2-1.2,2.4-1.7,3.6c-1.1,2.3-2.8,4.2-4.6,6
				c-3.5,3.5-7.3,6.8-11.3,9.7c-3,2.1-5.6,4.6-7.8,7.6c-0.6,0.8-1.2,1.7-1.8,2.6c-1.2,1.9-1.7,3.9-1.7,6.1c0,5-0.3,10.1-0.4,15.1
				c-0.2,12.1,1.1,24.1,4,35.9c0.1,0.6,0.3,1.2,0.5,1.9c0.4-0.2,0.7-0.3,1-0.5c1.3-0.8,2.6-1.6,3.8-2.4c6.4-4.3,12.9-8.5,19.7-12.3
				c1.9-1.1,3.9-2.3,5.7-3.5c8.7-5.6,16.2-12.5,23.1-20.2c4.6-5.2,8.8-10.8,12.4-16.8c2.3-3.8,4.2-7.8,6.1-11.8c0.3-0.7,0.6-1.3,1-2
				c0.2-0.4,0.4-0.8,0.7-1.1c0.8-0.9,2-0.7,2.4,0.5c0.2,0.7,0.3,1.4,0.3,2.2c-0.1,2.8-0.3,5.5-1.2,8.1c-2,5.9-4.7,11.4-8.4,16.4
				c-1.2,1.6-2.4,3.1-3.5,4.7c-0.2,0.2-0.4,0.5-0.6,0.8c1.3,0.2,2.5,0,3.6-0.2c4.7-0.7,9.2-2.3,13.6-4.1c9.6-3.9,18-9.6,25.4-16.8
				c1.7-1.7,3.4-3.3,5.1-5c0.5-0.5,1-1,1.6-1.4c0.7-0.5,1.3-0.5,1.7-0.1c0.4,0.4,0.5,1,0.1,1.8c-0.2,0.5-0.5,0.9-0.8,1.3
				c-1.1,1.3-2.1,2.6-3.3,3.7c-2.8,2.7-6,5-9.2,7.2c-3.2,2.2-6.3,4.3-9.5,6.4c-6.4,4.2-13.3,7.5-20.6,9.8c-8,2.5-14.9,6.7-21.1,12.2
				c-3.3,2.9-6.5,5.9-9.8,8.7c-4.9,4.2-10.2,7.8-15.8,11c-2.3,1.3-4.5,2.6-6.8,4c-1,0.6-1.9,1.3-2.8,2c-2.6,2.2-4.1,5-4,8.4
				c0,2.4,0.2,4.9,0.3,7.3c0.2,3.8,0.4,7.6,0.5,11.4c0.1,5.7,0.2,11.3,0.2,17c0.1,3.9-0.3,7.9-0.7,11.8c-0.3,2.1-0.5,4.2-0.5,6.3
				c-0.2,4.7,1.7,8.2,5.8,10.6c3.5,2,7.3,2.7,11.4,2.3c4.5-0.4,8.7-1.6,12.8-3.5c0.7-0.3,1.2-0.8,1.7-1.3c3.1-3.8,5.4-8.1,7-12.8
				c2.7-7.9,5-16,7.1-24.1c1.3-4.8,2.7-9.5,4.1-14.3c0.1-0.3,0.2-0.7,0.4-1c0.2-0.2,0.5-0.4,0.8-0.4c0.4,0,0.6,0.3,0.6,0.7
				c0,0.3,0,0.5-0.1,0.8c-1.9,7.9-3,15.9-4.7,23.9c-1.4,6.9-3.1,13.6-5.5,20.2c-0.1,0.1-0.1,0.3,0,0.6c0.3-0.2,0.5-0.4,0.8-0.7
				c3-2.7,5.8-5.7,8.5-8.7c2.6-2.9,5.2-5.7,7.9-8.5c4.8-5,10.5-8.8,16.9-11.5c6.1-2.5,12.2-5,18.1-8c0.8-0.4,1.4-0.9,2-1.5
				c3.4-3.8,5.9-8.1,8.1-12.7c0.8-1.8,1.7-3.5,2.5-5.3c0.2-0.5,0.5-0.9,0.8-1.3c0.3-0.3,0.6-0.6,1.1-0.4c0.5,0.1,0.7,0.5,0.7,0.9
				c0,0.3,0,0.6,0,1c-0.3,2.4-1,4.8-1.9,7.1c-0.7,1.7-1.4,3.4-2.1,5.1c-0.1,0.3-0.2,0.6-0.4,1.1c0.5-0.3,0.8-0.4,1-0.6
				c6.9-4.3,13.2-9.4,18.8-15.4c2.8-2.9,5.4-6,8.1-8.9c0.5-0.6,1.1-1.2,1.7-1.7c0.5-0.4,1.1-0.7,1.8-0.3c0.6,0.4,0.8,1,0.6,1.7
				c-0.2,0.8-0.3,1.6-0.7,2.4c-0.6,1.4-1.3,2.9-2.1,4.2c-3.8,5.9-8.2,11.3-13.7,15.8c-0.8,0.6-1.6,1.3-2.4,1.9
				c-5.1,3.6-10.1,7.1-15.2,10.7c-3.9,2.7-8,4.9-12.3,6.9c-5,2.3-9.8,4.7-14.7,7.3c-0.3,0.2-0.6,0.4-0.9,0.7c0.3,0,0.5,0,0.8,0
				c3.3-0.3,6.5,0,9.8,0.1c4,0.2,7.9,0.5,11.9,0.7c4.4,0.2,8.8,0.4,13.2,0.6c4.2,0.2,8.3-0.2,12.4-0.7c2.7-0.3,5.4-1.1,8-1.9
				c0.4-0.1,0.9-0.2,1.3-0.3c0.4,0,0.8,0.1,0.9,0.5c0.2,0.4-0.1,0.8-0.4,1c-0.5,0.3-1.1,0.6-1.6,0.8c-4,1.1-7.8,2.6-11.9,3.3
				c-3.2,0.6-6.5,1-9.8,1.1c-3.8,0.1-7.6,0.1-11.4,0.1c-5.1,0-10.3-0.3-15.4-0.2c-4.3,0-8.7,0.2-13,0.9c-1.8,0.3-3.6,0.8-5.4,1.3
				c-0.6,0.2-1.3,0.6-1.8,1.1c-2.3,2.2-4.7,4.5-7,6.7c-3.6,3.5-7.1,7-10.9,10.2c-3.9,3.2-7.9,6.1-12.2,8.8c-2.9,1.8-5.9,3.3-9,4.7
				c-1.8,0.8-3.6,1.7-5.3,2.7c-1,0.6-1.9,1.2-2.9,1.9c-1.9,1.4-3.2,3.2-4,5.5c-2.2,6.2-4.1,12.4-5,19c-0.4,3.2-0.7,6.5-0.9,9.7
				c-0.2,5.2-0.3,10.5-0.5,15.7c0,0.7,0.1,1.3,0.2,2.1c0.3-0.1,0.6,0,0.7-0.1c0.5-0.2,0.9-0.4,1.4-0.7c4.7-3.1,9.2-6.5,13-10.7
				c2.2-2.4,4.2-5.1,6.1-7.8c0.7-1.1,1.5-2.2,2.3-3.3c0.3-0.4,0.7-0.8,1.1-1.1c0.7-0.5,1.5-0.2,1.8,0.6c0.1,0.4,0.2,1,0.2,1.4
				c-0.1,0.9-0.2,1.9-0.5,2.8c-1.7,5.5-4.5,10.3-8.4,14.5c-3.2,3.5-6.6,6.8-10.2,9.8c-3.1,2.6-5.4,5.8-6.5,9.7
				c-0.5,1.8-0.9,3.7-1.2,5.6c-0.5,3.4-0.6,6.9-0.5,10.3c0.1,3.7,1,7.2,2.4,10.6c1.4,3.3,2.8,6.7,4.2,10c0.3,0.8,0.6,1.6,0.8,2.3
				c0.1,0.4,0.2,0.8,0.3,1.2c0.2,2.1-1.1,3.4-3.2,3.2c-1.1-0.1-2.1-0.3-3.2-0.2c-1.7,0-3.4,0.1-5.2,0.2c-2.9,0.2-5.8,0.5-8.7,0.7
				c-1.3,0.1-2.7,0.2-4,0.2c-1.2,0-2.4,0-3.5-0.1c-1.1-0.1-2-0.7-2.4-1.8c-0.4-0.9-0.6-1.9-0.6-2.9c0-2.6,0.2-5.2,0.7-7.7
				c0.8-4.4,1.2-8.8,1.3-13.2c0.1-3.4,0.2-6.8,0.3-10.3c0.1-6.3-0.5-12.5-1.5-18.7c-0.7-4.5-1.6-8.9-3.1-13.2
				c-2.7-8.4-7.4-15.6-13.5-21.8c-3.5-3.5-7.3-6.6-11.3-9.5c-1.8-1.3-3.5-2.5-5.3-3.8c-4.3-3.1-8.3-6.6-11.8-10.6
				c-1.2-1.3-2.5-2.5-3.8-3.8c-0.2-0.2-0.4-0.4-0.5-0.6c-0.3-0.4-0.2-0.9,0.1-1.1c0.3-0.3,0.7-0.3,1.1-0.1c0.2,0.1,0.3,0.2,0.5,0.3
				c1.8,1.7,3.9,2.9,6.1,3.9c4.8,2,9.1,4.7,13.4,7.7c5.9,4,11.8,8,17.8,11.9c4,2.6,8,5.3,11.5,8.6c0.9,0.8,1.7,1.7,2.5,2.5
				C195.9,283.2,196.2,283.4,196.7,283.8z"/>
		</g>
		<g>
			<path class="st62" d="M256.7,125.1c1.5,0,3,0.3,4.4,0.7c0.7,0.2,1.4,0.3,2.1,0.5c2.3,0.6,4.6,0,6.8-0.6c0.3-0.1,0.6-0.2,0.8-0.3
				c2.4-1.1,5-1.4,7.6-1.8c0.4-0.1,0.8-0.1,1.1-0.1c1.4,0.1,2.3,1.3,1.7,2.6c-0.2,0.5-0.5,1-0.9,1.4c-0.8,0.9-1.7,1.7-2.6,2.5
				c-1.2,1-2.3,2-3.2,3.2c-2.3,3.1-5.3,4.9-9.1,5.4c-1.1,0.2-2.2,0.3-3.2,0.4c-2,0.1-3.3,1.2-3.9,3.1c-0.4,1.2-0.5,2.4-0.8,3.6
				c-0.2,0.8-0.3,1.5-0.5,2.3c-0.5,2.3-1.6,4.3-3.3,6c-1,0.9-2,1.8-3,2.6c-1.4,1.1-2.4,2.4-3,4c-0.5,1.3-0.8,2.6-1.2,3.9
				c-0.5,1.6-1.1,3.3-1.7,4.9c-0.3,0.7-0.8,1.4-1.4,1.9c-1,1-2.3,1.1-3.4,0.2c-0.6-0.4-1.1-1-1.6-1.6c-1-1.2-1.5-2.7-2-4.1
				c-0.3-0.9-0.6-1.9-0.9-2.8c-0.6-1.6-1.7-2.4-3.4-2.7c-1.9-0.3-3.8-0.2-5.7,0.1c-2.9,0.4-5.9,0.9-8.8,1.4
				c-2.1,0.3-4.1,0.8-6.2,0.5c-0.6-0.1-1.3-0.2-1.9-0.4c-2.1-0.8-2.8-2.8-1.6-4.8c0.7-1.2,1.7-2.1,2.8-2.8c1.6-1,3.1-2,4.8-2.8
				c1.3-0.7,2.7-1.4,4.1-2c3.9-1.9,7.4-4.2,10.9-6.8c2.8-2.1,5.7-4,8.7-5.8c2.3-1.4,4.3-3.2,5.9-5.2c0.3-0.4,0.7-0.8,1-1.3
				C248.8,126.7,252.4,125.3,256.7,125.1z"/>
			<path class="st62" d="M156.2,250.6c1.6,0,2.8,0.5,4,0.9c4.2,1.7,8.1,4,11.9,6.4c6,3.8,11.6,8,17.2,12.3c2,1.5,4.1,3,6.2,4.4
				c2,1.4,4.2,2.4,6.5,3.3c3.6,1.5,7.1,3.3,10,6c2,1.8,3.7,3.8,5.3,5.9c0.4,0.5,0.8,1.1,1.2,1.6c1.4,2,3.1,3.6,5.1,5
				c0.8,0.5,1.5,1.1,2.3,1.6c0.7,0.5,1.2,1.1,1.6,1.9c0.6,1.2,0.6,2.3-0.3,3.3c-0.6,0.7-1.4,1.4-2.1,2.1c-0.2,0.2-0.5,0.3-0.7,0.5
				c-3,1.5-6,2.9-9.2,4c-1.8,0.6-3.3,0-4.4-1.6c-0.7-1-1-2.2-1.2-3.4c-0.3-2.1-0.7-4.3-1.5-6.3c-0.2-0.6-0.5-1.2-0.8-1.8
				c-0.2-0.4-0.5-0.8-0.8-1.2c-0.9-0.9-1.5-0.9-2,0.3c-0.4,1-0.7,2.1-0.9,3.2c-0.3,1.5-0.4,3-0.6,4.5c-0.1,0.6-0.3,1.3-0.5,1.8
				c-0.8,1.8-2.6,2.3-4.2,1.3c-1-0.6-1.8-1.5-2.5-2.5c-1.1-1.7-2-3.6-2.7-5.5c-0.5-1.5-1-3-1.5-4.5c-1.1-3.2-2.6-6.2-4.7-8.9
				c-2.7-3.5-5.5-6.9-8.3-10.3c-0.4-0.5-0.9-0.8-1.4-1.2c-4.1-3.1-8.5-5.7-12.9-8.3c-1-0.6-2.1-1.3-3.1-1.9c-2.7-1.5-4.9-3.6-6.8-6
				c-0.6-0.7-1-1.5-1.4-2.3c-1.1-2.2-0.1-4.1,2.3-4.6C155.6,250.6,156,250.6,156.2,250.6z"/>
			<path class="st62" d="M204.6,238.6c0.2-0.6,0.3-1.6,0.7-2.5c0.4-1.1,1.3-1.7,2.5-1.6c0.9,0.1,1.8,0.3,2.7,0.6
				c1.2,0.4,2.3,0.8,3.4,1.3c3.2,1.2,6.4,1.4,9.7,0.8c2.2-0.4,4.4-1,6.6-1.4c2.6-0.5,5.2-0.8,7.9-1.2c3.3-0.5,6.3-1.4,9.3-2.9
				c4.2-2.1,7.8-5,10.8-8.6c0.6-0.7,1.3-1.5,2-2.1c3-2.5,5.8-5.1,9.1-7.2c1.1-0.7,2.2-1.4,3.4-1.9c2-0.8,3.8,0.3,4.1,2.5
				c0.1,0.6,0,1.3-0.2,1.9c-0.3,0.8-0.7,1.7-1.2,2.4c-1.4,2.2-3.1,4.3-5,6.2c-1.4,1.4-2.8,2.8-4.2,4.2c-1.5,1.5-3,2.9-4.4,4.5
				c-4,4.7-9,8.1-14.5,10.9c-2.3,1.2-4.6,2.4-6.6,4c-1,0.8-2.1,1.4-3.3,1.9c-1.9,0.8-3.1,2.1-3.6,4.1c-0.2,0.7-0.4,1.4-0.6,2.1
				c-0.3,0.7-0.6,1.5-1,2.1c-1.5,2.2-4.5,2.7-6.7,1.1c-0.7-0.5-1.4-1.1-1.8-1.8c-1.8-2.9-4.4-5.1-6.6-7.6c-1.1-1.2-2.5-1.6-4-1.9
				c-0.9-0.1-1.7-0.2-2.6-0.4c-3.2-0.6-5.1-2.4-5.6-5.7C204.7,241.3,204.7,240.2,204.6,238.6z"/>
			<path class="st62" d="M331.7,190.7c-1,0.6-1.8,1.3-2.4,2.1c-0.6,0.9-1.2,1.7-1.9,2.5c-1.1,1.3-2.3,2.6-3.8,3.3
				c-1.7,0.8-2.2,2.2-2.2,3.9c0,0.5,0,1,0,1.5c0.1,0.9-0.3,1.7-0.7,2.4c-0.5,0.8-1.2,1.1-2.1,0.9c-0.7-0.2-1.5-0.5-2.2-0.8
				c-2.8-1.2-5.7-2.3-8.8-2.8c-4.1-0.6-8.1-0.7-12.2,0c-1.5,0.3-3,0.4-4.6,0.5c-0.7,0.1-1.5,0-2.2-0.2c-1.4-0.4-2-1.7-1.6-3.1
				c0.3-1,0.9-1.9,1.6-2.7c1.4-1.7,3.1-3.1,5.1-4.2c3.3-1.7,6.7-3,10.2-4c3.7-1,7.4-2,10.9-3.6c4.2-1.8,8.1-4.1,11.6-7.1
				c2.2-1.9,4.3-3.9,6-6.3c1.3-1.9,2.9-3.5,4.5-5.1c0.4-0.4,0.9-0.8,1.4-1.1c1.3-0.8,2.6-0.5,3.2,0.9c0.4,0.8,0.6,1.8,0.7,2.7
				c0.3,2.2,0.4,4.4,0.6,6.6c0.1,1.6-0.1,3.1-0.6,4.5c-0.1,0.4-0.3,0.9-0.5,1.2c-1.3,2.3-1.5,4.8-1.6,7.3c-0.1,3.7-0.2,7.4-0.4,11.1
				c0,0.5-0.1,1.1-0.2,1.6c-0.2,0.7-0.5,1.4-1.4,1.5c-0.9,0.1-1.4-0.4-1.7-1.2c-0.4-1-0.7-2-1-3c-0.7-2.2-1.2-4.4-1.9-6.6
				c-0.2-0.7-0.6-1.4-0.9-2C332.4,191.4,332,191.1,331.7,190.7z"/>
			<path class="st62" d="M106.6,192.6c1.1,0.2,2.3,0.3,3.4,0.6c5.5,1.2,11,2.5,16.5,3.6c3,0.6,6.1,1,9.1,1.7
				c3.3,0.7,6.6,1.5,9.9,2.4c3.7,0.9,7.4,1.5,11.1,1.8c4.6,0.4,9.2,1.1,13.7,2.3c4.6,1.2,8.6,3.6,11.8,7.2c1.7,1.8,3.4,3.6,5.4,5
				c1.4,1.1,2.6,2.3,3.6,3.9c0.5,0.7,0.8,1.5,0.7,2.4c-0.1,1.1-0.8,1.8-1.9,1.7c-0.6-0.1-1.2-0.3-1.7-0.6c-1.2-0.7-2.4-1.6-3.6-2.4
				c-1.2-0.8-2.4-1.7-3.7-2.6c-2.2-1.5-4.7-2.4-7.3-3.1c-3.1-0.8-6.3-1.4-9.4-2.1c-5.9-1.3-11.9-2.4-17.8-3.9
				c-4.1-1-8.2-2.4-12.2-3.5c-3.3-0.9-6.7-1.6-10-2.5c-4.9-1.3-9.7-2.7-14.3-5c-1.3-0.6-2.6-1.4-3.8-2.2c-0.6-0.4-1.1-0.9-1.6-1.4
				c-0.6-0.6-0.8-1.3-0.5-2.1c0.3-0.8,1-1.1,1.8-1.2C106,192.7,106.3,192.7,106.6,192.6C106.6,192.6,106.6,192.6,106.6,192.6z"/>
			<path class="st62" d="M180.7,152.6c-2.8,0-4.4,1.1-5.4,3.7c-0.1,0.4-0.3,0.7-0.4,1.1c-0.1,0.3-0.2,0.7-0.4,1
				c-1.1,2.5-3,3.1-5.4,1.7c-1.4-0.8-2.5-2-3.4-3.3c-0.7-0.9-1.2-1.9-1.8-2.9c-0.9-1.5-1.7-3-2.5-4.5c-1.3-2.3-3-4.4-4.8-6.2
				c-2.5-2.5-5-4.9-7.5-7.4c-1.4-1.5-3.1-2.6-5-3.4c-4.3-1.8-7.8-4.8-11.1-8c-0.7-0.6-1.2-1.4-1.4-2.3c-0.3-1.2,0.3-2.2,1.6-2.2
				c0.6,0,1.2,0.1,1.8,0.3c1.1,0.4,2.2,0.9,3.3,1.3c0.7,0.3,1.3,0.6,1.9,1c4,2.6,8.4,4.3,13,5.7c5.4,1.6,10.6,3.7,15.6,6.2
				c3.5,1.7,7,3.2,10.9,4.1c2.4,0.5,4.6,1.7,6.7,3c0.9,0.6,1.7,1.3,2.2,2.3c1,1.9,0.5,3.9-1.4,5.1c-0.5,0.3-0.9,0.6-1.2,1.1
				C184.4,152,183.3,152.6,180.7,152.6z"/>
			<path class="st62" d="M222.6,80.5c-0.1,2.3-0.7,4.3-1.4,6.3c-0.5,1.4-1.1,2.8-1.9,4.1c-2.1,3.2-4.2,6.3-7.2,8.8
				c-1.5,1.3-2.7,2.8-3.3,4.7c-0.1,0.3-0.3,0.6-0.4,1c-1,1.9-3,2.7-5,1.8c-0.9-0.4-1.8-0.9-2.5-1.5c-1.7-1.5-3.3-3.1-4.9-4.7
				c-1.2-1.2-1.2-2.4-0.3-3.8c0.5-0.8,1.2-1.4,2-1.9c1.3-0.7,2.5-1.4,3.8-1.9c5.1-2.1,9.1-5.6,12.6-9.7c1.1-1.3,2.2-2.6,3.3-3.8
				c0.5-0.6,1.1-1.1,1.7-1.5c1.6-1,3-0.4,3.4,1.4C222.5,79.9,222.6,80.3,222.6,80.5z"/>
		</g>
	</g>
</g>
</svg>
